M48
; DRILL file {KiCad 5.1.10-1.fc33} date Wed May 26 11:16:51 2021
; FORMAT={-:-/ absolute / inch / decimal}
; #@! TF.CreationDate,2021-05-26T11:16:51-04:00
; #@! TF.GenerationSoftware,Kicad,Pcbnew,5.1.10-1.fc33
FMAT,2
INCH
T1C0.0079
T2C0.0118
T3C0.0157
T4C0.0236
T5C0.0256
T6C0.0394
T7C0.0450
T8C0.1300
T9C0.1693
%
G90
G05
T1
X5.8504Y-4.7421
X5.8504Y-4.7618
X5.8504Y-4.7815
X5.8504Y-4.8012
X5.8504Y-4.8209
X5.8504Y-4.8406
X5.8504Y-4.8602
X5.8504Y-4.8799
X5.8504Y-4.8996
X5.8504Y-4.9193
X5.8701Y-4.7421
X5.8701Y-4.7618
X5.8701Y-4.7815
X5.8701Y-4.8012
X5.8701Y-4.8209
X5.8701Y-4.8406
X5.8701Y-4.8602
X5.8701Y-4.8799
X5.8701Y-4.8996
X5.8701Y-4.9193
X5.8898Y-4.7421
X5.8898Y-4.7618
X5.8898Y-4.7815
X5.8898Y-4.8012
X5.8898Y-4.8209
X5.8898Y-4.8406
X5.8898Y-4.8602
X5.8898Y-4.8799
X5.8898Y-4.8996
X5.8898Y-4.9193
X5.9094Y-4.7421
X5.9094Y-4.7618
X5.9094Y-4.7815
X5.9094Y-4.8012
X5.9094Y-4.8209
X5.9094Y-4.8406
X5.9094Y-4.8602
X5.9094Y-4.8799
X5.9094Y-4.8996
X5.9094Y-4.9193
X5.9291Y-4.7421
X5.9291Y-4.7618
X5.9291Y-4.7815
X5.9291Y-4.8012
X5.9291Y-4.8209
X5.9291Y-4.8406
X5.9291Y-4.8602
X5.9291Y-4.8799
X5.9291Y-4.8996
X5.9291Y-4.9193
X5.9488Y-4.7421
X5.9488Y-4.7618
X5.9488Y-4.7815
X5.9488Y-4.8012
X5.9488Y-4.8209
X5.9488Y-4.8406
X5.9488Y-4.8602
X5.9488Y-4.8799
X5.9488Y-4.8996
X5.9488Y-4.9193
X5.9685Y-4.7421
X5.9685Y-4.7618
X5.9685Y-4.7815
X5.9685Y-4.8012
X5.9685Y-4.8209
X5.9685Y-4.8406
X5.9685Y-4.8602
X5.9685Y-4.8799
X5.9685Y-4.8996
X5.9685Y-4.9193
X5.9882Y-4.7421
X5.9882Y-4.7618
X5.9882Y-4.7815
X5.9882Y-4.8012
X5.9882Y-4.8209
X5.9882Y-4.8406
X5.9882Y-4.8602
X5.9882Y-4.8799
X5.9882Y-4.8996
X5.9882Y-4.9193
X6.0079Y-4.7421
X6.0079Y-4.7618
X6.0079Y-4.7815
X6.0079Y-4.8012
X6.0079Y-4.8209
X6.0079Y-4.8406
X6.0079Y-4.8602
X6.0079Y-4.8799
X6.0079Y-4.8996
X6.0079Y-4.9193
X6.0276Y-4.7421
X6.0276Y-4.7618
X6.0276Y-4.7815
X6.0276Y-4.8012
X6.0276Y-4.8209
X6.0276Y-4.8406
X6.0276Y-4.8602
X6.0276Y-4.8799
X6.0276Y-4.8996
X6.0276Y-4.9193
X6.8583Y-4.5571
X6.8583Y-4.5768
X6.8583Y-4.5965
X6.8583Y-4.628
X6.8583Y-4.6476
X6.8583Y-4.6673
X6.878Y-4.5571
X6.878Y-4.5768
X6.878Y-4.5965
X6.878Y-4.628
X6.878Y-4.6476
X6.878Y-4.6673
X6.8976Y-4.5571
X6.8976Y-4.5768
X6.8976Y-4.5965
X6.8976Y-4.628
X6.8976Y-4.6476
X6.8976Y-4.6673
X6.9134Y-4.6122
X6.9291Y-4.5571
X6.9291Y-4.5768
X6.9291Y-4.5965
X6.9291Y-4.628
X6.9291Y-4.6476
X6.9291Y-4.6673
X6.9488Y-4.5571
X6.9488Y-4.5768
X6.9488Y-4.5965
X6.9488Y-4.628
X6.9488Y-4.6476
X6.9488Y-4.6673
X6.9685Y-4.5571
X6.9685Y-4.5768
X6.9685Y-4.5965
X6.9685Y-4.628
X6.9685Y-4.6476
X6.9685Y-4.6673
T2
X4.8799Y-3.5709
X4.8799Y-3.622
X4.9311Y-3.5709
X4.9311Y-3.622
X4.9823Y-3.5709
X4.9823Y-3.622
X5.0335Y-3.5709
X5.0335Y-3.622
X6.7697Y-3.6998
X6.7697Y-3.751
X6.7697Y-3.8022
X6.7697Y-3.8533
X6.8209Y-3.6998
X6.8209Y-3.751
X6.8209Y-3.8022
X6.8209Y-3.8533
T3
X4.2047Y-3.7795
X4.2047Y-3.9961
X4.4429Y-3.7598
X4.4429Y-3.878
X4.4429Y-3.9961
X4.6811Y-4.2756
X4.7323Y-4.2402
X4.7756Y-4.2008
X4.8819Y-4.6299
X4.8839Y-4.0138
X5.0591Y-3.7854
X5.0807Y-3.2854
X5.0807Y-3.3445
X5.0846Y-4.3307
X5.1161Y-4.2835
X5.1161Y-4.378
X5.1378Y-3.4075
X5.1457Y-3.2165
X5.1476Y-4.3307
X5.1693Y-3.1496
X5.1713Y-4.2835
X5.1791Y-4.378
X5.1949Y-4.622
X5.2028Y-4.1417
X5.2264Y-4.2835
X5.2343Y-4.378
X5.2343Y-4.622
X5.2402Y-3.122
X5.2579Y-4.3307
X5.2894Y-4.2835
X5.2894Y-4.378
X5.3209Y-3.124
X5.3209Y-4.3307
X5.3957Y-3.1319
X5.3957Y-3.2815
X5.4252Y-3.4882
X5.4709Y-3.598
X5.5039Y-3.3858
X5.5098Y-5.1319
X5.6634Y-4.5531
X5.6831Y-4.8878
X5.6831Y-4.9823
X5.7362Y-4.7087
X5.7421Y-4.8957
X5.748Y-4.6339
X5.748Y-4.9961
X5.7756Y-4.6693
X5.8209Y-5.0059
X6.122Y-4.5079
X6.124Y-4.3799
X6.3031Y-5.0236
X6.3917Y-4.5728
X6.3917Y-4.6043
X6.3917Y-4.6358
X6.4705Y-4.4547
X6.4764Y-4.1614
X6.4902Y-5.1535
X6.4961Y-4.3819
X6.5571Y-4.6988
X6.5571Y-4.7343
X6.5571Y-4.7697
X6.5571Y-4.8012
X6.5571Y-4.8366
X6.561Y-3.876
X6.6024Y-3.7087
X6.6319Y-4.9783
X6.6417Y-3.7283
X6.6496Y-4.4626
X6.6535Y-4.1614
X6.6713Y-4.6122
X6.6752Y-4.6555
X6.7441Y-4.9961
X6.8976Y-4.3661
X6.9331Y-4.7874
X6.9724Y-4.3661
X7.002Y-4.8012
X7.0157Y-4.4685
X7.061Y-4.6358
X7.0886Y-3.4429
X7.0886Y-4.0728
X7.128Y-3.4429
X7.128Y-4.0728
X7.1299Y-4.6035
X7.1614Y-4.4843
X7.1614Y-4.5394
X7.189Y-4.7205
X7.315Y-4.5669
X7.3514Y-4.7352
X7.3858Y-4.7047
T4
X4.1663Y-2.872
X4.1663Y-5.0374
X4.2035Y-2.7823
X4.2035Y-2.9618
X4.2035Y-4.9476
X4.2035Y-5.1272
X4.2933Y-2.7451
X4.2933Y-2.999
X4.2933Y-4.9104
X4.2933Y-5.1644
X4.3831Y-2.7823
X4.3831Y-2.9618
X4.3831Y-4.9476
X4.3831Y-5.1272
X4.4203Y-2.872
X4.4203Y-5.0374
X7.3159Y-2.872
X7.3159Y-5.0374
X7.3531Y-2.7823
X7.3531Y-2.9618
X7.3531Y-4.9476
X7.3531Y-5.1272
X7.4429Y-2.7451
X7.4429Y-2.999
X7.4429Y-4.9104
X7.4429Y-5.1644
X7.5327Y-2.7823
X7.5327Y-2.9618
X7.5327Y-4.9476
X7.5327Y-5.1272
X7.5699Y-2.872
X7.5699Y-5.0374
T6
X4.185Y-3.2264
X4.185Y-3.3264
X4.185Y-3.4264
X4.374Y-3.7303
X4.374Y-3.8303
X4.374Y-3.9303
X4.5787Y-2.8114
X4.5787Y-2.9114
X4.5787Y-3.0114
X4.628Y-4.4209
X4.628Y-4.5209
X4.628Y-4.6209
X4.628Y-4.7209
X4.628Y-4.8209
X4.8346Y-2.8114
X4.8346Y-2.9114
X4.8346Y-3.0114
X5.1102Y-2.8114
X5.1102Y-2.9114
X5.1102Y-3.0114
X5.3661Y-2.8114
X5.3661Y-2.9114
X5.3661Y-3.0114
X5.8248Y-3.7776
X5.9248Y-3.7776
X6.0248Y-3.7776
X6.1248Y-3.7776
X6.2248Y-3.7776
X6.3248Y-3.7776
X6.4248Y-3.7776
X6.8524Y-2.8311
X6.8524Y-2.9311
X6.8524Y-3.0311
X7.1083Y-2.8311
X7.1083Y-2.9311
X7.1083Y-3.0311
T7
X7.259Y-3.4946
X7.259Y-3.6026
X7.259Y-3.7106
X7.259Y-3.8186
X7.259Y-3.9266
X7.371Y-3.5486
X7.371Y-3.6566
X7.371Y-3.7646
X7.371Y-3.8726
T8
X7.315Y-3.2186
X7.315Y-4.2026
T9
X4.2933Y-2.872
X4.2933Y-5.0374
X7.4429Y-2.872
X7.4429Y-5.0374
T4
G00X7.5689Y-4.4498
M15
G01X7.5965Y-4.4498
M16
G05
G00X7.5689Y-4.7785
M15
G01X7.5965Y-4.7785
M16
G05
T5
G00X7.4606Y-4.5266
M15
G01X7.4685Y-4.5266
M16
G05
G00X7.4606Y-4.7018
M15
G01X7.4685Y-4.7018
M16
G05
T0
M30
