%TF.GenerationSoftware,KiCad,Pcbnew,5.1.10-1.fc33*%
%TF.CreationDate,2021-05-26T11:17:30-04:00*%
%TF.ProjectId,UnderglowPCB,556e6465-7267-46c6-9f77-5043422e6b69,1.3.2*%
%TF.SameCoordinates,Original*%
%TF.FileFunction,Legend,Top*%
%TF.FilePolarity,Positive*%
%FSLAX46Y46*%
G04 Gerber Fmt 4.6, Leading zero omitted, Abs format (unit mm)*
G04 Created by KiCad (PCBNEW 5.1.10-1.fc33) date 2021-05-26 11:17:30*
%MOMM*%
%LPD*%
G01*
G04 APERTURE LIST*
%ADD10C,0.200000*%
%ADD11C,0.120000*%
%ADD12C,0.150000*%
%ADD13C,0.203200*%
%ADD14C,0.092900*%
G04 APERTURE END LIST*
D10*
X140007142Y-72953571D02*
X140292857Y-72953571D01*
X140435714Y-73025000D01*
X140578571Y-73167857D01*
X140650000Y-73453571D01*
X140650000Y-73953571D01*
X140578571Y-74239285D01*
X140435714Y-74382142D01*
X140292857Y-74453571D01*
X140007142Y-74453571D01*
X139864285Y-74382142D01*
X139721428Y-74239285D01*
X139650000Y-73953571D01*
X139650000Y-73453571D01*
X139721428Y-73167857D01*
X139864285Y-73025000D01*
X140007142Y-72953571D01*
X141292857Y-73453571D02*
X141292857Y-74953571D01*
X141292857Y-73525000D02*
X141435714Y-73453571D01*
X141721428Y-73453571D01*
X141864285Y-73525000D01*
X141935714Y-73596428D01*
X142007142Y-73739285D01*
X142007142Y-74167857D01*
X141935714Y-74310714D01*
X141864285Y-74382142D01*
X141721428Y-74453571D01*
X141435714Y-74453571D01*
X141292857Y-74382142D01*
X143221428Y-74382142D02*
X143078571Y-74453571D01*
X142792857Y-74453571D01*
X142650000Y-74382142D01*
X142578571Y-74239285D01*
X142578571Y-73667857D01*
X142650000Y-73525000D01*
X142792857Y-73453571D01*
X143078571Y-73453571D01*
X143221428Y-73525000D01*
X143292857Y-73667857D01*
X143292857Y-73810714D01*
X142578571Y-73953571D01*
X143935714Y-73453571D02*
X143935714Y-74453571D01*
X143935714Y-73596428D02*
X144007142Y-73525000D01*
X144150000Y-73453571D01*
X144364285Y-73453571D01*
X144507142Y-73525000D01*
X144578571Y-73667857D01*
X144578571Y-74453571D01*
X146435714Y-72953571D02*
X146435714Y-74167857D01*
X146507142Y-74310714D01*
X146578571Y-74382142D01*
X146721428Y-74453571D01*
X147007142Y-74453571D01*
X147150000Y-74382142D01*
X147221428Y-74310714D01*
X147292857Y-74167857D01*
X147292857Y-72953571D01*
X148007142Y-73453571D02*
X148007142Y-74453571D01*
X148007142Y-73596428D02*
X148078571Y-73525000D01*
X148221428Y-73453571D01*
X148435714Y-73453571D01*
X148578571Y-73525000D01*
X148650000Y-73667857D01*
X148650000Y-74453571D01*
X150007142Y-74453571D02*
X150007142Y-72953571D01*
X150007142Y-74382142D02*
X149864285Y-74453571D01*
X149578571Y-74453571D01*
X149435714Y-74382142D01*
X149364285Y-74310714D01*
X149292857Y-74167857D01*
X149292857Y-73739285D01*
X149364285Y-73596428D01*
X149435714Y-73525000D01*
X149578571Y-73453571D01*
X149864285Y-73453571D01*
X150007142Y-73525000D01*
X151292857Y-74382142D02*
X151150000Y-74453571D01*
X150864285Y-74453571D01*
X150721428Y-74382142D01*
X150650000Y-74239285D01*
X150650000Y-73667857D01*
X150721428Y-73525000D01*
X150864285Y-73453571D01*
X151150000Y-73453571D01*
X151292857Y-73525000D01*
X151364285Y-73667857D01*
X151364285Y-73810714D01*
X150650000Y-73953571D01*
X152007142Y-74453571D02*
X152007142Y-73453571D01*
X152007142Y-73739285D02*
X152078571Y-73596428D01*
X152150000Y-73525000D01*
X152292857Y-73453571D01*
X152435714Y-73453571D01*
X153578571Y-73453571D02*
X153578571Y-74667857D01*
X153507142Y-74810714D01*
X153435714Y-74882142D01*
X153292857Y-74953571D01*
X153078571Y-74953571D01*
X152935714Y-74882142D01*
X153578571Y-74382142D02*
X153435714Y-74453571D01*
X153150000Y-74453571D01*
X153007142Y-74382142D01*
X152935714Y-74310714D01*
X152864285Y-74167857D01*
X152864285Y-73739285D01*
X152935714Y-73596428D01*
X153007142Y-73525000D01*
X153150000Y-73453571D01*
X153435714Y-73453571D01*
X153578571Y-73525000D01*
X154507142Y-74453571D02*
X154364285Y-74382142D01*
X154292857Y-74239285D01*
X154292857Y-72953571D01*
X155292857Y-74453571D02*
X155150000Y-74382142D01*
X155078571Y-74310714D01*
X155007142Y-74167857D01*
X155007142Y-73739285D01*
X155078571Y-73596428D01*
X155150000Y-73525000D01*
X155292857Y-73453571D01*
X155507142Y-73453571D01*
X155650000Y-73525000D01*
X155721428Y-73596428D01*
X155792857Y-73739285D01*
X155792857Y-74167857D01*
X155721428Y-74310714D01*
X155650000Y-74382142D01*
X155507142Y-74453571D01*
X155292857Y-74453571D01*
X156292857Y-73453571D02*
X156578571Y-74453571D01*
X156864285Y-73739285D01*
X157150000Y-74453571D01*
X157435714Y-73453571D01*
X160007142Y-74310714D02*
X159935714Y-74382142D01*
X159721428Y-74453571D01*
X159578571Y-74453571D01*
X159364285Y-74382142D01*
X159221428Y-74239285D01*
X159150000Y-74096428D01*
X159078571Y-73810714D01*
X159078571Y-73596428D01*
X159150000Y-73310714D01*
X159221428Y-73167857D01*
X159364285Y-73025000D01*
X159578571Y-72953571D01*
X159721428Y-72953571D01*
X159935714Y-73025000D01*
X160007142Y-73096428D01*
X160864285Y-74453571D02*
X160721428Y-74382142D01*
X160650000Y-74310714D01*
X160578571Y-74167857D01*
X160578571Y-73739285D01*
X160650000Y-73596428D01*
X160721428Y-73525000D01*
X160864285Y-73453571D01*
X161078571Y-73453571D01*
X161221428Y-73525000D01*
X161292857Y-73596428D01*
X161364285Y-73739285D01*
X161364285Y-74167857D01*
X161292857Y-74310714D01*
X161221428Y-74382142D01*
X161078571Y-74453571D01*
X160864285Y-74453571D01*
X162007142Y-73453571D02*
X162007142Y-74453571D01*
X162007142Y-73596428D02*
X162078571Y-73525000D01*
X162221428Y-73453571D01*
X162435714Y-73453571D01*
X162578571Y-73525000D01*
X162650000Y-73667857D01*
X162650000Y-74453571D01*
X163150000Y-73453571D02*
X163721428Y-73453571D01*
X163364285Y-72953571D02*
X163364285Y-74239285D01*
X163435714Y-74382142D01*
X163578571Y-74453571D01*
X163721428Y-74453571D01*
X164221428Y-74453571D02*
X164221428Y-73453571D01*
X164221428Y-73739285D02*
X164292857Y-73596428D01*
X164364285Y-73525000D01*
X164507142Y-73453571D01*
X164650000Y-73453571D01*
X165364285Y-74453571D02*
X165221428Y-74382142D01*
X165150000Y-74310714D01*
X165078571Y-74167857D01*
X165078571Y-73739285D01*
X165150000Y-73596428D01*
X165221428Y-73525000D01*
X165364285Y-73453571D01*
X165578571Y-73453571D01*
X165721428Y-73525000D01*
X165792857Y-73596428D01*
X165864285Y-73739285D01*
X165864285Y-74167857D01*
X165792857Y-74310714D01*
X165721428Y-74382142D01*
X165578571Y-74453571D01*
X165364285Y-74453571D01*
X166721428Y-74453571D02*
X166578571Y-74382142D01*
X166507142Y-74239285D01*
X166507142Y-72953571D01*
X167507142Y-74453571D02*
X167364285Y-74382142D01*
X167292857Y-74239285D01*
X167292857Y-72953571D01*
X168650000Y-74382142D02*
X168507142Y-74453571D01*
X168221428Y-74453571D01*
X168078571Y-74382142D01*
X168007142Y-74239285D01*
X168007142Y-73667857D01*
X168078571Y-73525000D01*
X168221428Y-73453571D01*
X168507142Y-73453571D01*
X168650000Y-73525000D01*
X168721428Y-73667857D01*
X168721428Y-73810714D01*
X168007142Y-73953571D01*
X169364285Y-74453571D02*
X169364285Y-73453571D01*
X169364285Y-73739285D02*
X169435714Y-73596428D01*
X169507142Y-73525000D01*
X169650000Y-73453571D01*
X169792857Y-73453571D01*
X149614285Y-75403571D02*
X150114285Y-76903571D01*
X150614285Y-75403571D01*
X151685714Y-76832142D02*
X151542857Y-76903571D01*
X151257142Y-76903571D01*
X151114285Y-76832142D01*
X151042857Y-76689285D01*
X151042857Y-76117857D01*
X151114285Y-75975000D01*
X151257142Y-75903571D01*
X151542857Y-75903571D01*
X151685714Y-75975000D01*
X151757142Y-76117857D01*
X151757142Y-76260714D01*
X151042857Y-76403571D01*
X152400000Y-76903571D02*
X152400000Y-75903571D01*
X152400000Y-76189285D02*
X152471428Y-76046428D01*
X152542857Y-75975000D01*
X152685714Y-75903571D01*
X152828571Y-75903571D01*
X155257142Y-76903571D02*
X154400000Y-76903571D01*
X154828571Y-76903571D02*
X154828571Y-75403571D01*
X154685714Y-75617857D01*
X154542857Y-75760714D01*
X154400000Y-75832142D01*
X155900000Y-76760714D02*
X155971428Y-76832142D01*
X155900000Y-76903571D01*
X155828571Y-76832142D01*
X155900000Y-76760714D01*
X155900000Y-76903571D01*
X156471428Y-75403571D02*
X157400000Y-75403571D01*
X156900000Y-75975000D01*
X157114285Y-75975000D01*
X157257142Y-76046428D01*
X157328571Y-76117857D01*
X157400000Y-76260714D01*
X157400000Y-76617857D01*
X157328571Y-76760714D01*
X157257142Y-76832142D01*
X157114285Y-76903571D01*
X156685714Y-76903571D01*
X156542857Y-76832142D01*
X156471428Y-76760714D01*
X158042857Y-76760714D02*
X158114285Y-76832142D01*
X158042857Y-76903571D01*
X157971428Y-76832142D01*
X158042857Y-76760714D01*
X158042857Y-76903571D01*
X158685714Y-75546428D02*
X158757142Y-75475000D01*
X158900000Y-75403571D01*
X159257142Y-75403571D01*
X159400000Y-75475000D01*
X159471428Y-75546428D01*
X159542857Y-75689285D01*
X159542857Y-75832142D01*
X159471428Y-76046428D01*
X158614285Y-76903571D01*
X159542857Y-76903571D01*
D11*
X134650000Y-87450000D02*
G75*
G03*
X134650000Y-87450000I-250000J0D01*
G01*
X178350000Y-119400000D02*
G75*
G03*
X178350000Y-119400000I-250000J0D01*
G01*
D12*
X186230952Y-121328571D02*
X185469047Y-121328571D01*
X185850000Y-120947619D02*
X185850000Y-121709523D01*
X111169047Y-86721428D02*
X111930952Y-86721428D01*
X111550000Y-87102380D02*
X111550000Y-86340476D01*
X111671428Y-79180952D02*
X111671428Y-78419047D01*
X112052380Y-78800000D02*
X111290476Y-78800000D01*
D11*
X129300000Y-88100000D02*
G75*
G03*
X129300000Y-88100000I-250000J0D01*
G01*
D12*
X164669047Y-112321428D02*
X165430952Y-112321428D01*
X165050000Y-112702380D02*
X165050000Y-111940476D01*
X169769047Y-112421428D02*
X170530952Y-112421428D01*
X170150000Y-112802380D02*
X170150000Y-112040476D01*
D11*
X169900000Y-92600000D02*
G75*
G03*
X169900000Y-92600000I-250000J0D01*
G01*
D12*
X169121428Y-105250000D02*
X169121428Y-104488095D01*
X169502380Y-104869047D02*
X168740476Y-104869047D01*
X168502380Y-104107142D02*
X168502380Y-103488095D01*
X168883333Y-103821428D01*
X168883333Y-103678571D01*
X168930952Y-103583333D01*
X168978571Y-103535714D01*
X169073809Y-103488095D01*
X169311904Y-103488095D01*
X169407142Y-103535714D01*
X169454761Y-103583333D01*
X169502380Y-103678571D01*
X169502380Y-103964285D01*
X169454761Y-104059523D01*
X169407142Y-104107142D01*
X169407142Y-103059523D02*
X169454761Y-103011904D01*
X169502380Y-103059523D01*
X169454761Y-103107142D01*
X169407142Y-103059523D01*
X169502380Y-103059523D01*
X168502380Y-102678571D02*
X168502380Y-102059523D01*
X168883333Y-102392857D01*
X168883333Y-102250000D01*
X168930952Y-102154761D01*
X168978571Y-102107142D01*
X169073809Y-102059523D01*
X169311904Y-102059523D01*
X169407142Y-102107142D01*
X169454761Y-102154761D01*
X169502380Y-102250000D01*
X169502380Y-102535714D01*
X169454761Y-102630952D01*
X169407142Y-102678571D01*
X168502380Y-101773809D02*
X169502380Y-101440476D01*
X168502380Y-101107142D01*
X163921428Y-105435714D02*
X163921428Y-104673809D01*
X164302380Y-105054761D02*
X163540476Y-105054761D01*
X163302380Y-103721428D02*
X163302380Y-104197619D01*
X163778571Y-104245238D01*
X163730952Y-104197619D01*
X163683333Y-104102380D01*
X163683333Y-103864285D01*
X163730952Y-103769047D01*
X163778571Y-103721428D01*
X163873809Y-103673809D01*
X164111904Y-103673809D01*
X164207142Y-103721428D01*
X164254761Y-103769047D01*
X164302380Y-103864285D01*
X164302380Y-104102380D01*
X164254761Y-104197619D01*
X164207142Y-104245238D01*
X163302380Y-103388095D02*
X164302380Y-103054761D01*
X163302380Y-102721428D01*
D11*
%TO.C,U1*%
X158970000Y-112850000D02*
X158970000Y-112070000D01*
X158970000Y-112070000D02*
X157970000Y-112070000D01*
X140730000Y-112850000D02*
X140730000Y-112070000D01*
X140730000Y-112070000D02*
X141730000Y-112070000D01*
X158970000Y-137815000D02*
X140730000Y-137815000D01*
X140730000Y-137815000D02*
X140730000Y-131395000D01*
X158970000Y-137815000D02*
X158970000Y-131395000D01*
X158970000Y-131395000D02*
X159350000Y-131395000D01*
%TO.C,D3*%
X129200000Y-96320000D02*
X129200000Y-91980000D01*
X131800000Y-96320000D02*
X131800000Y-91980000D01*
X129200000Y-96320000D02*
X131800000Y-96320000D01*
X131800000Y-91980000D02*
X129200000Y-91980000D01*
%TO.C,C1*%
X164410000Y-128688748D02*
X164410000Y-130111252D01*
X161690000Y-128688748D02*
X161690000Y-130111252D01*
%TO.C,C12*%
X137560000Y-81209420D02*
X137560000Y-81490580D01*
X136540000Y-81209420D02*
X136540000Y-81490580D01*
%TO.C,C11*%
X137290000Y-90740580D02*
X137290000Y-90459420D01*
X138310000Y-90740580D02*
X138310000Y-90459420D01*
%TO.C,U4*%
X135200000Y-85000000D02*
X135200000Y-87500000D01*
X139400000Y-85000000D02*
X139400000Y-87000000D01*
%TO.C,J11*%
X118880000Y-123780000D02*
X117550000Y-123780000D01*
X118880000Y-122450000D02*
X118880000Y-123780000D01*
X118880000Y-121180000D02*
X116220000Y-121180000D01*
X116220000Y-121180000D02*
X116220000Y-110960000D01*
X118880000Y-121180000D02*
X118880000Y-110960000D01*
X118880000Y-110960000D02*
X116220000Y-110960000D01*
%TO.C,J12*%
X164520000Y-97280000D02*
X164520000Y-94620000D01*
X149220000Y-97280000D02*
X164520000Y-97280000D01*
X149220000Y-94620000D02*
X164520000Y-94620000D01*
X149220000Y-97280000D02*
X149220000Y-94620000D01*
X147950000Y-97280000D02*
X146620000Y-97280000D01*
X146620000Y-97280000D02*
X146620000Y-95950000D01*
D12*
%TO.C,U6*%
X170525000Y-93400000D02*
X169125000Y-93400000D01*
X170525000Y-98500000D02*
X174675000Y-98500000D01*
X170525000Y-93350000D02*
X174675000Y-93350000D01*
X170525000Y-98500000D02*
X170525000Y-98355000D01*
X174675000Y-98500000D02*
X174675000Y-98355000D01*
X174675000Y-93350000D02*
X174675000Y-93495000D01*
X170525000Y-93350000D02*
X170525000Y-93400000D01*
D11*
%TO.C,J8*%
X172720000Y-78320000D02*
X175380000Y-78320000D01*
X172720000Y-73180000D02*
X172720000Y-78320000D01*
X175380000Y-73180000D02*
X175380000Y-78320000D01*
X172720000Y-73180000D02*
X175380000Y-73180000D01*
X172720000Y-71910000D02*
X172720000Y-70580000D01*
X172720000Y-70580000D02*
X174050000Y-70580000D01*
%TO.C,U8*%
X173715000Y-119760000D02*
X172990000Y-119760000D01*
X172990000Y-119760000D02*
X172990000Y-119035000D01*
X177485000Y-114540000D02*
X178210000Y-114540000D01*
X178210000Y-114540000D02*
X178210000Y-115265000D01*
X173715000Y-114540000D02*
X172990000Y-114540000D01*
X172990000Y-114540000D02*
X172990000Y-115265000D01*
X177485000Y-119760000D02*
X178210000Y-119760000D01*
%TO.C,D1*%
X116225000Y-79800000D02*
X116225000Y-79450000D01*
X116225000Y-79450000D02*
X117725000Y-79450000D01*
X116225000Y-84450000D02*
X116225000Y-81250000D01*
X117725000Y-86250000D02*
X116225000Y-86250000D01*
X116225000Y-86250000D02*
X116225000Y-85850000D01*
%TO.C,C9*%
X163790000Y-115090580D02*
X163790000Y-114809420D01*
X164810000Y-115090580D02*
X164810000Y-114809420D01*
%TO.C,D6*%
X183100000Y-119050000D02*
X183100000Y-120750000D01*
X183100000Y-120750000D02*
X185650000Y-120750000D01*
X183100000Y-119050000D02*
X185650000Y-119050000D01*
%TO.C,C17*%
X180109420Y-114840000D02*
X180390580Y-114840000D01*
X180109420Y-115860000D02*
X180390580Y-115860000D01*
%TO.C,R7*%
X179187742Y-112822500D02*
X179662258Y-112822500D01*
X179187742Y-111777500D02*
X179662258Y-111777500D01*
%TO.C,U7*%
X184900000Y-118510000D02*
X187350000Y-118510000D01*
X186700000Y-115290000D02*
X184900000Y-115290000D01*
%TO.C,R8*%
X175672500Y-112262742D02*
X175672500Y-112737258D01*
X174627500Y-112262742D02*
X174627500Y-112737258D01*
%TO.C,J3*%
X193800000Y-121070000D02*
X194050000Y-121070000D01*
X193800000Y-113330000D02*
X194050000Y-113330000D01*
X189330000Y-114200000D02*
X189330000Y-113330000D01*
X189330000Y-121070000D02*
X191400000Y-121070000D01*
X189330000Y-113330000D02*
X191400000Y-113330000D01*
X189330000Y-121070000D02*
X189330000Y-120200000D01*
X189100000Y-115900000D02*
X188800000Y-116200000D01*
X189100000Y-115900000D02*
X188800000Y-115600000D01*
X188800000Y-116200000D02*
X188800000Y-115600000D01*
%TO.C,C14*%
X183040580Y-116390000D02*
X182759420Y-116390000D01*
X183040580Y-117410000D02*
X182759420Y-117410000D01*
%TO.C,C16*%
X180109420Y-114360000D02*
X180390580Y-114360000D01*
X180109420Y-113340000D02*
X180390580Y-113340000D01*
%TO.C,C15*%
X176640000Y-112640580D02*
X176640000Y-112359420D01*
X177660000Y-112640580D02*
X177660000Y-112359420D01*
%TO.C,F1*%
X110697936Y-89360000D02*
X111902064Y-89360000D01*
X110697936Y-87540000D02*
X111902064Y-87540000D01*
%TO.C,U3*%
X169960000Y-116850000D02*
X169960000Y-122860000D01*
X163140000Y-119100000D02*
X163140000Y-122860000D01*
X169960000Y-122860000D02*
X168700000Y-122860000D01*
X163140000Y-122860000D02*
X164400000Y-122860000D01*
%TO.C,C18*%
X107740580Y-97760000D02*
X107459420Y-97760000D01*
X107740580Y-96740000D02*
X107459420Y-96740000D01*
%TO.C,C19*%
X107740580Y-99740000D02*
X107459420Y-99740000D01*
X107740580Y-100760000D02*
X107459420Y-100760000D01*
%TO.C,C20*%
X107740580Y-95260000D02*
X107459420Y-95260000D01*
X107740580Y-94240000D02*
X107459420Y-94240000D01*
%TO.C,C13*%
X167240000Y-96040580D02*
X167240000Y-95759420D01*
X168260000Y-96040580D02*
X168260000Y-95759420D01*
%TO.C,R9*%
X114362742Y-97272500D02*
X114837258Y-97272500D01*
X114362742Y-96227500D02*
X114837258Y-96227500D01*
%TO.C,R10*%
X114837258Y-98772500D02*
X114362742Y-98772500D01*
X114837258Y-97727500D02*
X114362742Y-97727500D01*
%TO.C,R11*%
X114362742Y-100272500D02*
X114837258Y-100272500D01*
X114362742Y-99227500D02*
X114837258Y-99227500D01*
%TO.C,R12*%
X114837258Y-101772500D02*
X114362742Y-101772500D01*
X114837258Y-100727500D02*
X114362742Y-100727500D01*
%TO.C,R13*%
X114362742Y-94272500D02*
X114837258Y-94272500D01*
X114362742Y-93227500D02*
X114837258Y-93227500D01*
%TO.C,R14*%
X114837258Y-95772500D02*
X114362742Y-95772500D01*
X114837258Y-94727500D02*
X114362742Y-94727500D01*
%TO.C,R4*%
X175912742Y-125872500D02*
X176387258Y-125872500D01*
X175912742Y-124827500D02*
X176387258Y-124827500D01*
%TO.C,R5*%
X176387258Y-124072500D02*
X175912742Y-124072500D01*
X176387258Y-123027500D02*
X175912742Y-123027500D01*
%TO.C,R6*%
X177922500Y-95112742D02*
X177922500Y-95587258D01*
X176877500Y-95112742D02*
X176877500Y-95587258D01*
%TO.C,Q1*%
X171170000Y-125310000D02*
X172100000Y-125310000D01*
X174330000Y-125310000D02*
X173400000Y-125310000D01*
X174330000Y-125310000D02*
X174330000Y-123150000D01*
X171170000Y-125310000D02*
X171170000Y-123850000D01*
%TO.C,Q2*%
X177970000Y-125310000D02*
X177970000Y-123850000D01*
X181130000Y-125310000D02*
X181130000Y-123150000D01*
X181130000Y-125310000D02*
X180200000Y-125310000D01*
X177970000Y-125310000D02*
X178900000Y-125310000D01*
%TO.C,J9*%
X179220000Y-70580000D02*
X180550000Y-70580000D01*
X179220000Y-71910000D02*
X179220000Y-70580000D01*
X179220000Y-73180000D02*
X181880000Y-73180000D01*
X181880000Y-73180000D02*
X181880000Y-78320000D01*
X179220000Y-73180000D02*
X179220000Y-78320000D01*
X179220000Y-78320000D02*
X181880000Y-78320000D01*
%TO.C,J10*%
X109770000Y-93420000D02*
X111100000Y-93420000D01*
X109770000Y-94750000D02*
X109770000Y-93420000D01*
X109770000Y-96020000D02*
X112430000Y-96020000D01*
X112430000Y-96020000D02*
X112430000Y-101160000D01*
X109770000Y-96020000D02*
X109770000Y-101160000D01*
X109770000Y-101160000D02*
X112430000Y-101160000D01*
%TO.C,J4*%
X114970000Y-77820000D02*
X117630000Y-77820000D01*
X114970000Y-72680000D02*
X114970000Y-77820000D01*
X117630000Y-72680000D02*
X117630000Y-77820000D01*
X114970000Y-72680000D02*
X117630000Y-72680000D01*
X114970000Y-71410000D02*
X114970000Y-70080000D01*
X114970000Y-70080000D02*
X116300000Y-70080000D01*
%TO.C,J5*%
X121470000Y-70080000D02*
X122800000Y-70080000D01*
X121470000Y-71410000D02*
X121470000Y-70080000D01*
X121470000Y-72680000D02*
X124130000Y-72680000D01*
X124130000Y-72680000D02*
X124130000Y-77820000D01*
X121470000Y-72680000D02*
X121470000Y-77820000D01*
X121470000Y-77820000D02*
X124130000Y-77820000D01*
%TO.C,J6*%
X128470000Y-77820000D02*
X131130000Y-77820000D01*
X128470000Y-72680000D02*
X128470000Y-77820000D01*
X131130000Y-72680000D02*
X131130000Y-77820000D01*
X128470000Y-72680000D02*
X131130000Y-72680000D01*
X128470000Y-71410000D02*
X128470000Y-70080000D01*
X128470000Y-70080000D02*
X129800000Y-70080000D01*
%TO.C,J7*%
X134970000Y-77820000D02*
X137630000Y-77820000D01*
X134970000Y-72680000D02*
X134970000Y-77820000D01*
X137630000Y-72680000D02*
X137630000Y-77820000D01*
X134970000Y-72680000D02*
X137630000Y-72680000D01*
X134970000Y-71410000D02*
X134970000Y-70080000D01*
X134970000Y-70080000D02*
X136300000Y-70080000D01*
%TO.C,J1*%
X104970000Y-88360000D02*
X107630000Y-88360000D01*
X104970000Y-83220000D02*
X104970000Y-88360000D01*
X107630000Y-83220000D02*
X107630000Y-88360000D01*
X104970000Y-83220000D02*
X107630000Y-83220000D01*
X104970000Y-81950000D02*
X104970000Y-80620000D01*
X104970000Y-80620000D02*
X106300000Y-80620000D01*
%TO.C,C10*%
X169410000Y-115115580D02*
X169410000Y-114834420D01*
X168390000Y-115115580D02*
X168390000Y-114834420D01*
%TO.C,C2*%
X160810000Y-129542164D02*
X160810000Y-129757836D01*
X160090000Y-129542164D02*
X160090000Y-129757836D01*
%TO.C,D7*%
X168265000Y-109065000D02*
X168265000Y-111350000D01*
X169735000Y-109065000D02*
X168265000Y-109065000D01*
X169735000Y-111350000D02*
X169735000Y-109065000D01*
%TO.C,D8*%
X164635000Y-111350000D02*
X164635000Y-109065000D01*
X164635000Y-109065000D02*
X163165000Y-109065000D01*
X163165000Y-109065000D02*
X163165000Y-111350000D01*
%TO.C,R15*%
X168477500Y-107787258D02*
X168477500Y-107312742D01*
X169522500Y-107787258D02*
X169522500Y-107312742D01*
%TO.C,R16*%
X164422500Y-107787258D02*
X164422500Y-107312742D01*
X163377500Y-107787258D02*
X163377500Y-107312742D01*
%TO.C,C3*%
X127159420Y-82840000D02*
X127440580Y-82840000D01*
X127159420Y-83860000D02*
X127440580Y-83860000D01*
%TO.C,C4*%
X127159420Y-85460000D02*
X127440580Y-85460000D01*
X127159420Y-84440000D02*
X127440580Y-84440000D01*
%TO.C,C5*%
X125759420Y-96460000D02*
X126040580Y-96460000D01*
X125759420Y-95440000D02*
X126040580Y-95440000D01*
%TO.C,C6*%
X128359420Y-86040000D02*
X128640580Y-86040000D01*
X128359420Y-87060000D02*
X128640580Y-87060000D01*
%TO.C,C7*%
X135310000Y-113888748D02*
X135310000Y-115311252D01*
X132590000Y-113888748D02*
X132590000Y-115311252D01*
%TO.C,C8*%
X129190000Y-113888748D02*
X129190000Y-115311252D01*
X131910000Y-113888748D02*
X131910000Y-115311252D01*
%TO.C,D2*%
X108300000Y-80450000D02*
X111300000Y-80450000D01*
X108300000Y-86450000D02*
X111200000Y-86450000D01*
X111300000Y-86450000D02*
X111300000Y-80450000D01*
X108300000Y-86450000D02*
X108300000Y-80450000D01*
%TO.C,D4*%
X178550000Y-102450000D02*
X178550000Y-96450000D01*
X182550000Y-102450000D02*
X182550000Y-96450000D01*
X178550000Y-102450000D02*
X178550000Y-103450000D01*
X178550000Y-103450000D02*
X182550000Y-103450000D01*
X182550000Y-103450000D02*
X182550000Y-102450000D01*
X182550000Y-96450000D02*
X182550000Y-95650000D01*
X182550000Y-95650000D02*
X178550000Y-95650000D01*
X178550000Y-95650000D02*
X178550000Y-96450000D01*
%TO.C,D5*%
X182550000Y-95250000D02*
X182550000Y-94450000D01*
X178550000Y-95250000D02*
X182550000Y-95250000D01*
X178550000Y-94450000D02*
X178550000Y-95250000D01*
X178550000Y-87450000D02*
X178550000Y-88450000D01*
X182550000Y-87450000D02*
X178550000Y-87450000D01*
X182550000Y-88450000D02*
X182550000Y-87450000D01*
X178550000Y-88450000D02*
X178550000Y-94450000D01*
X182550000Y-88450000D02*
X182550000Y-94450000D01*
%TO.C,L1*%
X138550000Y-111450000D02*
X125550000Y-111450000D01*
X138550000Y-98450000D02*
X125550000Y-98450000D01*
X125550000Y-98450000D02*
X125550000Y-111450000D01*
X138550000Y-98450000D02*
X138550000Y-111450000D01*
%TO.C,R1*%
X122822500Y-89287742D02*
X122822500Y-89762258D01*
X121777500Y-89287742D02*
X121777500Y-89762258D01*
%TO.C,R2*%
X124622500Y-100187258D02*
X124622500Y-99712742D01*
X123577500Y-100187258D02*
X123577500Y-99712742D01*
%TO.C,R3*%
X124662742Y-98072500D02*
X125137258Y-98072500D01*
X124662742Y-97027500D02*
X125137258Y-97027500D01*
D12*
%TO.C,U2*%
X128425000Y-89275000D02*
X128425000Y-87875000D01*
X123325000Y-89275000D02*
X123325000Y-93425000D01*
X128475000Y-89275000D02*
X128475000Y-93425000D01*
X123325000Y-89275000D02*
X123470000Y-89275000D01*
X123325000Y-93425000D02*
X123470000Y-93425000D01*
X128475000Y-93425000D02*
X128330000Y-93425000D01*
X128475000Y-89275000D02*
X128425000Y-89275000D01*
D13*
%TO.C,J2*%
X183000000Y-78850000D02*
X195300000Y-78850000D01*
X183000000Y-109650000D02*
X195300000Y-109650000D01*
X195300000Y-78850000D02*
X195300000Y-109650000D01*
X183000000Y-78850000D02*
X183000000Y-109650000D01*
X199973200Y-79899000D02*
X199973200Y-83963000D01*
X199338200Y-84598000D02*
X195325000Y-84598000D01*
X199338200Y-79264000D02*
X195325000Y-79264000D01*
X199973200Y-104537000D02*
X199973200Y-108601000D01*
X199338200Y-109236000D02*
X195325000Y-109236000D01*
X195325000Y-103902000D02*
X199338200Y-103902000D01*
X199338200Y-84598000D02*
G75*
G03*
X199973200Y-83963000I0J635000D01*
G01*
X199338200Y-79264000D02*
G75*
G02*
X199973200Y-79899000I0J-635000D01*
G01*
X199338200Y-109236000D02*
G75*
G03*
X199973200Y-108601000I0J635000D01*
G01*
X199973200Y-104537000D02*
G75*
G03*
X199338200Y-103902000I-635000J0D01*
G01*
%TO.C,U1*%
D12*
X159912380Y-114281904D02*
X160721904Y-114281904D01*
X160817142Y-114234285D01*
X160864761Y-114186666D01*
X160912380Y-114091428D01*
X160912380Y-113900952D01*
X160864761Y-113805714D01*
X160817142Y-113758095D01*
X160721904Y-113710476D01*
X159912380Y-113710476D01*
X160912380Y-112710476D02*
X160912380Y-113281904D01*
X160912380Y-112996190D02*
X159912380Y-112996190D01*
X160055238Y-113091428D01*
X160150476Y-113186666D01*
X160198095Y-113281904D01*
%TO.C,D3*%
X133352380Y-94888095D02*
X132352380Y-94888095D01*
X132352380Y-94650000D01*
X132400000Y-94507142D01*
X132495238Y-94411904D01*
X132590476Y-94364285D01*
X132780952Y-94316666D01*
X132923809Y-94316666D01*
X133114285Y-94364285D01*
X133209523Y-94411904D01*
X133304761Y-94507142D01*
X133352380Y-94650000D01*
X133352380Y-94888095D01*
X132352380Y-93983333D02*
X132352380Y-93364285D01*
X132733333Y-93697619D01*
X132733333Y-93554761D01*
X132780952Y-93459523D01*
X132828571Y-93411904D01*
X132923809Y-93364285D01*
X133161904Y-93364285D01*
X133257142Y-93411904D01*
X133304761Y-93459523D01*
X133352380Y-93554761D01*
X133352380Y-93840476D01*
X133304761Y-93935714D01*
X133257142Y-93983333D01*
%TO.C,C1*%
X165707142Y-129566666D02*
X165754761Y-129614285D01*
X165802380Y-129757142D01*
X165802380Y-129852380D01*
X165754761Y-129995238D01*
X165659523Y-130090476D01*
X165564285Y-130138095D01*
X165373809Y-130185714D01*
X165230952Y-130185714D01*
X165040476Y-130138095D01*
X164945238Y-130090476D01*
X164850000Y-129995238D01*
X164802380Y-129852380D01*
X164802380Y-129757142D01*
X164850000Y-129614285D01*
X164897619Y-129566666D01*
X165802380Y-128614285D02*
X165802380Y-129185714D01*
X165802380Y-128900000D02*
X164802380Y-128900000D01*
X164945238Y-128995238D01*
X165040476Y-129090476D01*
X165088095Y-129185714D01*
%TO.C,C12*%
X138907142Y-81892857D02*
X138954761Y-81940476D01*
X139002380Y-82083333D01*
X139002380Y-82178571D01*
X138954761Y-82321428D01*
X138859523Y-82416666D01*
X138764285Y-82464285D01*
X138573809Y-82511904D01*
X138430952Y-82511904D01*
X138240476Y-82464285D01*
X138145238Y-82416666D01*
X138050000Y-82321428D01*
X138002380Y-82178571D01*
X138002380Y-82083333D01*
X138050000Y-81940476D01*
X138097619Y-81892857D01*
X139002380Y-80940476D02*
X139002380Y-81511904D01*
X139002380Y-81226190D02*
X138002380Y-81226190D01*
X138145238Y-81321428D01*
X138240476Y-81416666D01*
X138288095Y-81511904D01*
X138097619Y-80559523D02*
X138050000Y-80511904D01*
X138002380Y-80416666D01*
X138002380Y-80178571D01*
X138050000Y-80083333D01*
X138097619Y-80035714D01*
X138192857Y-79988095D01*
X138288095Y-79988095D01*
X138430952Y-80035714D01*
X139002380Y-80607142D01*
X139002380Y-79988095D01*
%TO.C,C11*%
X136657142Y-90442857D02*
X136704761Y-90490476D01*
X136752380Y-90633333D01*
X136752380Y-90728571D01*
X136704761Y-90871428D01*
X136609523Y-90966666D01*
X136514285Y-91014285D01*
X136323809Y-91061904D01*
X136180952Y-91061904D01*
X135990476Y-91014285D01*
X135895238Y-90966666D01*
X135800000Y-90871428D01*
X135752380Y-90728571D01*
X135752380Y-90633333D01*
X135800000Y-90490476D01*
X135847619Y-90442857D01*
X136752380Y-89490476D02*
X136752380Y-90061904D01*
X136752380Y-89776190D02*
X135752380Y-89776190D01*
X135895238Y-89871428D01*
X135990476Y-89966666D01*
X136038095Y-90061904D01*
X136752380Y-88538095D02*
X136752380Y-89109523D01*
X136752380Y-88823809D02*
X135752380Y-88823809D01*
X135895238Y-88919047D01*
X135990476Y-89014285D01*
X136038095Y-89109523D01*
%TO.C,U4*%
X133652380Y-86761904D02*
X134461904Y-86761904D01*
X134557142Y-86714285D01*
X134604761Y-86666666D01*
X134652380Y-86571428D01*
X134652380Y-86380952D01*
X134604761Y-86285714D01*
X134557142Y-86238095D01*
X134461904Y-86190476D01*
X133652380Y-86190476D01*
X133985714Y-85285714D02*
X134652380Y-85285714D01*
X133604761Y-85523809D02*
X134319047Y-85761904D01*
X134319047Y-85142857D01*
%TO.C,J11*%
X116740476Y-124232380D02*
X116740476Y-124946666D01*
X116692857Y-125089523D01*
X116597619Y-125184761D01*
X116454761Y-125232380D01*
X116359523Y-125232380D01*
X117740476Y-125232380D02*
X117169047Y-125232380D01*
X117454761Y-125232380D02*
X117454761Y-124232380D01*
X117359523Y-124375238D01*
X117264285Y-124470476D01*
X117169047Y-124518095D01*
X118692857Y-125232380D02*
X118121428Y-125232380D01*
X118407142Y-125232380D02*
X118407142Y-124232380D01*
X118311904Y-124375238D01*
X118216666Y-124470476D01*
X118121428Y-124518095D01*
%TO.C,J12*%
X154740476Y-98402380D02*
X154740476Y-99116666D01*
X154692857Y-99259523D01*
X154597619Y-99354761D01*
X154454761Y-99402380D01*
X154359523Y-99402380D01*
X155740476Y-99402380D02*
X155169047Y-99402380D01*
X155454761Y-99402380D02*
X155454761Y-98402380D01*
X155359523Y-98545238D01*
X155264285Y-98640476D01*
X155169047Y-98688095D01*
X156121428Y-98497619D02*
X156169047Y-98450000D01*
X156264285Y-98402380D01*
X156502380Y-98402380D01*
X156597619Y-98450000D01*
X156645238Y-98497619D01*
X156692857Y-98592857D01*
X156692857Y-98688095D01*
X156645238Y-98830952D01*
X156073809Y-99402380D01*
X156692857Y-99402380D01*
%TO.C,U6*%
X171838095Y-91877380D02*
X171838095Y-92686904D01*
X171885714Y-92782142D01*
X171933333Y-92829761D01*
X172028571Y-92877380D01*
X172219047Y-92877380D01*
X172314285Y-92829761D01*
X172361904Y-92782142D01*
X172409523Y-92686904D01*
X172409523Y-91877380D01*
X173314285Y-91877380D02*
X173123809Y-91877380D01*
X173028571Y-91925000D01*
X172980952Y-91972619D01*
X172885714Y-92115476D01*
X172838095Y-92305952D01*
X172838095Y-92686904D01*
X172885714Y-92782142D01*
X172933333Y-92829761D01*
X173028571Y-92877380D01*
X173219047Y-92877380D01*
X173314285Y-92829761D01*
X173361904Y-92782142D01*
X173409523Y-92686904D01*
X173409523Y-92448809D01*
X173361904Y-92353571D01*
X173314285Y-92305952D01*
X173219047Y-92258333D01*
X173028571Y-92258333D01*
X172933333Y-92305952D01*
X172885714Y-92353571D01*
X172838095Y-92448809D01*
%TO.C,J8*%
X173716666Y-69032380D02*
X173716666Y-69746666D01*
X173669047Y-69889523D01*
X173573809Y-69984761D01*
X173430952Y-70032380D01*
X173335714Y-70032380D01*
X174335714Y-69460952D02*
X174240476Y-69413333D01*
X174192857Y-69365714D01*
X174145238Y-69270476D01*
X174145238Y-69222857D01*
X174192857Y-69127619D01*
X174240476Y-69080000D01*
X174335714Y-69032380D01*
X174526190Y-69032380D01*
X174621428Y-69080000D01*
X174669047Y-69127619D01*
X174716666Y-69222857D01*
X174716666Y-69270476D01*
X174669047Y-69365714D01*
X174621428Y-69413333D01*
X174526190Y-69460952D01*
X174335714Y-69460952D01*
X174240476Y-69508571D01*
X174192857Y-69556190D01*
X174145238Y-69651428D01*
X174145238Y-69841904D01*
X174192857Y-69937142D01*
X174240476Y-69984761D01*
X174335714Y-70032380D01*
X174526190Y-70032380D01*
X174621428Y-69984761D01*
X174669047Y-69937142D01*
X174716666Y-69841904D01*
X174716666Y-69651428D01*
X174669047Y-69556190D01*
X174621428Y-69508571D01*
X174526190Y-69460952D01*
%TO.C,U8*%
X178838095Y-119352380D02*
X178838095Y-120161904D01*
X178885714Y-120257142D01*
X178933333Y-120304761D01*
X179028571Y-120352380D01*
X179219047Y-120352380D01*
X179314285Y-120304761D01*
X179361904Y-120257142D01*
X179409523Y-120161904D01*
X179409523Y-119352380D01*
X180028571Y-119780952D02*
X179933333Y-119733333D01*
X179885714Y-119685714D01*
X179838095Y-119590476D01*
X179838095Y-119542857D01*
X179885714Y-119447619D01*
X179933333Y-119400000D01*
X180028571Y-119352380D01*
X180219047Y-119352380D01*
X180314285Y-119400000D01*
X180361904Y-119447619D01*
X180409523Y-119542857D01*
X180409523Y-119590476D01*
X180361904Y-119685714D01*
X180314285Y-119733333D01*
X180219047Y-119780952D01*
X180028571Y-119780952D01*
X179933333Y-119828571D01*
X179885714Y-119876190D01*
X179838095Y-119971428D01*
X179838095Y-120161904D01*
X179885714Y-120257142D01*
X179933333Y-120304761D01*
X180028571Y-120352380D01*
X180219047Y-120352380D01*
X180314285Y-120304761D01*
X180361904Y-120257142D01*
X180409523Y-120161904D01*
X180409523Y-119971428D01*
X180361904Y-119876190D01*
X180314285Y-119828571D01*
X180219047Y-119780952D01*
%TO.C,D1*%
X112411904Y-78402380D02*
X112411904Y-77402380D01*
X112650000Y-77402380D01*
X112792857Y-77450000D01*
X112888095Y-77545238D01*
X112935714Y-77640476D01*
X112983333Y-77830952D01*
X112983333Y-77973809D01*
X112935714Y-78164285D01*
X112888095Y-78259523D01*
X112792857Y-78354761D01*
X112650000Y-78402380D01*
X112411904Y-78402380D01*
X113935714Y-78402380D02*
X113364285Y-78402380D01*
X113650000Y-78402380D02*
X113650000Y-77402380D01*
X113554761Y-77545238D01*
X113459523Y-77640476D01*
X113364285Y-77688095D01*
%TO.C,C9*%
X163157142Y-115116666D02*
X163204761Y-115164285D01*
X163252380Y-115307142D01*
X163252380Y-115402380D01*
X163204761Y-115545238D01*
X163109523Y-115640476D01*
X163014285Y-115688095D01*
X162823809Y-115735714D01*
X162680952Y-115735714D01*
X162490476Y-115688095D01*
X162395238Y-115640476D01*
X162300000Y-115545238D01*
X162252380Y-115402380D01*
X162252380Y-115307142D01*
X162300000Y-115164285D01*
X162347619Y-115116666D01*
X163252380Y-114640476D02*
X163252380Y-114450000D01*
X163204761Y-114354761D01*
X163157142Y-114307142D01*
X163014285Y-114211904D01*
X162823809Y-114164285D01*
X162442857Y-114164285D01*
X162347619Y-114211904D01*
X162300000Y-114259523D01*
X162252380Y-114354761D01*
X162252380Y-114545238D01*
X162300000Y-114640476D01*
X162347619Y-114688095D01*
X162442857Y-114735714D01*
X162680952Y-114735714D01*
X162776190Y-114688095D01*
X162823809Y-114640476D01*
X162871428Y-114545238D01*
X162871428Y-114354761D01*
X162823809Y-114259523D01*
X162776190Y-114211904D01*
X162680952Y-114164285D01*
%TO.C,D6*%
X183861904Y-122352380D02*
X183861904Y-121352380D01*
X184100000Y-121352380D01*
X184242857Y-121400000D01*
X184338095Y-121495238D01*
X184385714Y-121590476D01*
X184433333Y-121780952D01*
X184433333Y-121923809D01*
X184385714Y-122114285D01*
X184338095Y-122209523D01*
X184242857Y-122304761D01*
X184100000Y-122352380D01*
X183861904Y-122352380D01*
X185290476Y-121352380D02*
X185100000Y-121352380D01*
X185004761Y-121400000D01*
X184957142Y-121447619D01*
X184861904Y-121590476D01*
X184814285Y-121780952D01*
X184814285Y-122161904D01*
X184861904Y-122257142D01*
X184909523Y-122304761D01*
X185004761Y-122352380D01*
X185195238Y-122352380D01*
X185290476Y-122304761D01*
X185338095Y-122257142D01*
X185385714Y-122161904D01*
X185385714Y-121923809D01*
X185338095Y-121828571D01*
X185290476Y-121780952D01*
X185195238Y-121733333D01*
X185004761Y-121733333D01*
X184909523Y-121780952D01*
X184861904Y-121828571D01*
X184814285Y-121923809D01*
%TO.C,C17*%
X179607142Y-117357142D02*
X179559523Y-117404761D01*
X179416666Y-117452380D01*
X179321428Y-117452380D01*
X179178571Y-117404761D01*
X179083333Y-117309523D01*
X179035714Y-117214285D01*
X178988095Y-117023809D01*
X178988095Y-116880952D01*
X179035714Y-116690476D01*
X179083333Y-116595238D01*
X179178571Y-116500000D01*
X179321428Y-116452380D01*
X179416666Y-116452380D01*
X179559523Y-116500000D01*
X179607142Y-116547619D01*
X180559523Y-117452380D02*
X179988095Y-117452380D01*
X180273809Y-117452380D02*
X180273809Y-116452380D01*
X180178571Y-116595238D01*
X180083333Y-116690476D01*
X179988095Y-116738095D01*
X180892857Y-116452380D02*
X181559523Y-116452380D01*
X181130952Y-117452380D01*
%TO.C,R7*%
X179258333Y-111322380D02*
X178925000Y-110846190D01*
X178686904Y-111322380D02*
X178686904Y-110322380D01*
X179067857Y-110322380D01*
X179163095Y-110370000D01*
X179210714Y-110417619D01*
X179258333Y-110512857D01*
X179258333Y-110655714D01*
X179210714Y-110750952D01*
X179163095Y-110798571D01*
X179067857Y-110846190D01*
X178686904Y-110846190D01*
X179591666Y-110322380D02*
X180258333Y-110322380D01*
X179829761Y-111322380D01*
%TO.C,U7*%
X185088095Y-113902380D02*
X185088095Y-114711904D01*
X185135714Y-114807142D01*
X185183333Y-114854761D01*
X185278571Y-114902380D01*
X185469047Y-114902380D01*
X185564285Y-114854761D01*
X185611904Y-114807142D01*
X185659523Y-114711904D01*
X185659523Y-113902380D01*
X186040476Y-113902380D02*
X186707142Y-113902380D01*
X186278571Y-114902380D01*
%TO.C,R8*%
X177602380Y-109516666D02*
X177126190Y-109850000D01*
X177602380Y-110088095D02*
X176602380Y-110088095D01*
X176602380Y-109707142D01*
X176650000Y-109611904D01*
X176697619Y-109564285D01*
X176792857Y-109516666D01*
X176935714Y-109516666D01*
X177030952Y-109564285D01*
X177078571Y-109611904D01*
X177126190Y-109707142D01*
X177126190Y-110088095D01*
X177030952Y-108945238D02*
X176983333Y-109040476D01*
X176935714Y-109088095D01*
X176840476Y-109135714D01*
X176792857Y-109135714D01*
X176697619Y-109088095D01*
X176650000Y-109040476D01*
X176602380Y-108945238D01*
X176602380Y-108754761D01*
X176650000Y-108659523D01*
X176697619Y-108611904D01*
X176792857Y-108564285D01*
X176840476Y-108564285D01*
X176935714Y-108611904D01*
X176983333Y-108659523D01*
X177030952Y-108754761D01*
X177030952Y-108945238D01*
X177078571Y-109040476D01*
X177126190Y-109088095D01*
X177221428Y-109135714D01*
X177411904Y-109135714D01*
X177507142Y-109088095D01*
X177554761Y-109040476D01*
X177602380Y-108945238D01*
X177602380Y-108754761D01*
X177554761Y-108659523D01*
X177507142Y-108611904D01*
X177411904Y-108564285D01*
X177221428Y-108564285D01*
X177126190Y-108611904D01*
X177078571Y-108659523D01*
X177030952Y-108754761D01*
%TO.C,J3*%
X181552380Y-83733333D02*
X182266666Y-83733333D01*
X182409523Y-83780952D01*
X182504761Y-83876190D01*
X182552380Y-84019047D01*
X182552380Y-84114285D01*
X181552380Y-83352380D02*
X181552380Y-82733333D01*
X181933333Y-83066666D01*
X181933333Y-82923809D01*
X181980952Y-82828571D01*
X182028571Y-82780952D01*
X182123809Y-82733333D01*
X182361904Y-82733333D01*
X182457142Y-82780952D01*
X182504761Y-82828571D01*
X182552380Y-82923809D01*
X182552380Y-83209523D01*
X182504761Y-83304761D01*
X182457142Y-83352380D01*
%TO.C,C14*%
X181407142Y-118707142D02*
X181359523Y-118754761D01*
X181216666Y-118802380D01*
X181121428Y-118802380D01*
X180978571Y-118754761D01*
X180883333Y-118659523D01*
X180835714Y-118564285D01*
X180788095Y-118373809D01*
X180788095Y-118230952D01*
X180835714Y-118040476D01*
X180883333Y-117945238D01*
X180978571Y-117850000D01*
X181121428Y-117802380D01*
X181216666Y-117802380D01*
X181359523Y-117850000D01*
X181407142Y-117897619D01*
X182359523Y-118802380D02*
X181788095Y-118802380D01*
X182073809Y-118802380D02*
X182073809Y-117802380D01*
X181978571Y-117945238D01*
X181883333Y-118040476D01*
X181788095Y-118088095D01*
X183216666Y-118135714D02*
X183216666Y-118802380D01*
X182978571Y-117754761D02*
X182740476Y-118469047D01*
X183359523Y-118469047D01*
%TO.C,C16*%
X182307142Y-113007142D02*
X182259523Y-113054761D01*
X182116666Y-113102380D01*
X182021428Y-113102380D01*
X181878571Y-113054761D01*
X181783333Y-112959523D01*
X181735714Y-112864285D01*
X181688095Y-112673809D01*
X181688095Y-112530952D01*
X181735714Y-112340476D01*
X181783333Y-112245238D01*
X181878571Y-112150000D01*
X182021428Y-112102380D01*
X182116666Y-112102380D01*
X182259523Y-112150000D01*
X182307142Y-112197619D01*
X183259523Y-113102380D02*
X182688095Y-113102380D01*
X182973809Y-113102380D02*
X182973809Y-112102380D01*
X182878571Y-112245238D01*
X182783333Y-112340476D01*
X182688095Y-112388095D01*
X184116666Y-112102380D02*
X183926190Y-112102380D01*
X183830952Y-112150000D01*
X183783333Y-112197619D01*
X183688095Y-112340476D01*
X183640476Y-112530952D01*
X183640476Y-112911904D01*
X183688095Y-113007142D01*
X183735714Y-113054761D01*
X183830952Y-113102380D01*
X184021428Y-113102380D01*
X184116666Y-113054761D01*
X184164285Y-113007142D01*
X184211904Y-112911904D01*
X184211904Y-112673809D01*
X184164285Y-112578571D01*
X184116666Y-112530952D01*
X184021428Y-112483333D01*
X183830952Y-112483333D01*
X183735714Y-112530952D01*
X183688095Y-112578571D01*
X183640476Y-112673809D01*
%TO.C,C15*%
X173807142Y-112692857D02*
X173854761Y-112740476D01*
X173902380Y-112883333D01*
X173902380Y-112978571D01*
X173854761Y-113121428D01*
X173759523Y-113216666D01*
X173664285Y-113264285D01*
X173473809Y-113311904D01*
X173330952Y-113311904D01*
X173140476Y-113264285D01*
X173045238Y-113216666D01*
X172950000Y-113121428D01*
X172902380Y-112978571D01*
X172902380Y-112883333D01*
X172950000Y-112740476D01*
X172997619Y-112692857D01*
X173902380Y-111740476D02*
X173902380Y-112311904D01*
X173902380Y-112026190D02*
X172902380Y-112026190D01*
X173045238Y-112121428D01*
X173140476Y-112216666D01*
X173188095Y-112311904D01*
X172902380Y-110835714D02*
X172902380Y-111311904D01*
X173378571Y-111359523D01*
X173330952Y-111311904D01*
X173283333Y-111216666D01*
X173283333Y-110978571D01*
X173330952Y-110883333D01*
X173378571Y-110835714D01*
X173473809Y-110788095D01*
X173711904Y-110788095D01*
X173807142Y-110835714D01*
X173854761Y-110883333D01*
X173902380Y-110978571D01*
X173902380Y-111216666D01*
X173854761Y-111311904D01*
X173807142Y-111359523D01*
%TO.C,F1*%
X110966666Y-90378571D02*
X110633333Y-90378571D01*
X110633333Y-90902380D02*
X110633333Y-89902380D01*
X111109523Y-89902380D01*
X112014285Y-90902380D02*
X111442857Y-90902380D01*
X111728571Y-90902380D02*
X111728571Y-89902380D01*
X111633333Y-90045238D01*
X111538095Y-90140476D01*
X111442857Y-90188095D01*
%TO.C,U3*%
X170502380Y-121711904D02*
X171311904Y-121711904D01*
X171407142Y-121664285D01*
X171454761Y-121616666D01*
X171502380Y-121521428D01*
X171502380Y-121330952D01*
X171454761Y-121235714D01*
X171407142Y-121188095D01*
X171311904Y-121140476D01*
X170502380Y-121140476D01*
X170502380Y-120759523D02*
X170502380Y-120140476D01*
X170883333Y-120473809D01*
X170883333Y-120330952D01*
X170930952Y-120235714D01*
X170978571Y-120188095D01*
X171073809Y-120140476D01*
X171311904Y-120140476D01*
X171407142Y-120188095D01*
X171454761Y-120235714D01*
X171502380Y-120330952D01*
X171502380Y-120616666D01*
X171454761Y-120711904D01*
X171407142Y-120759523D01*
%TO.C,C18*%
X106957142Y-99037142D02*
X106909523Y-99084761D01*
X106766666Y-99132380D01*
X106671428Y-99132380D01*
X106528571Y-99084761D01*
X106433333Y-98989523D01*
X106385714Y-98894285D01*
X106338095Y-98703809D01*
X106338095Y-98560952D01*
X106385714Y-98370476D01*
X106433333Y-98275238D01*
X106528571Y-98180000D01*
X106671428Y-98132380D01*
X106766666Y-98132380D01*
X106909523Y-98180000D01*
X106957142Y-98227619D01*
X107909523Y-99132380D02*
X107338095Y-99132380D01*
X107623809Y-99132380D02*
X107623809Y-98132380D01*
X107528571Y-98275238D01*
X107433333Y-98370476D01*
X107338095Y-98418095D01*
X108480952Y-98560952D02*
X108385714Y-98513333D01*
X108338095Y-98465714D01*
X108290476Y-98370476D01*
X108290476Y-98322857D01*
X108338095Y-98227619D01*
X108385714Y-98180000D01*
X108480952Y-98132380D01*
X108671428Y-98132380D01*
X108766666Y-98180000D01*
X108814285Y-98227619D01*
X108861904Y-98322857D01*
X108861904Y-98370476D01*
X108814285Y-98465714D01*
X108766666Y-98513333D01*
X108671428Y-98560952D01*
X108480952Y-98560952D01*
X108385714Y-98608571D01*
X108338095Y-98656190D01*
X108290476Y-98751428D01*
X108290476Y-98941904D01*
X108338095Y-99037142D01*
X108385714Y-99084761D01*
X108480952Y-99132380D01*
X108671428Y-99132380D01*
X108766666Y-99084761D01*
X108814285Y-99037142D01*
X108861904Y-98941904D01*
X108861904Y-98751428D01*
X108814285Y-98656190D01*
X108766666Y-98608571D01*
X108671428Y-98560952D01*
%TO.C,C19*%
X107057142Y-102957142D02*
X107009523Y-103004761D01*
X106866666Y-103052380D01*
X106771428Y-103052380D01*
X106628571Y-103004761D01*
X106533333Y-102909523D01*
X106485714Y-102814285D01*
X106438095Y-102623809D01*
X106438095Y-102480952D01*
X106485714Y-102290476D01*
X106533333Y-102195238D01*
X106628571Y-102100000D01*
X106771428Y-102052380D01*
X106866666Y-102052380D01*
X107009523Y-102100000D01*
X107057142Y-102147619D01*
X108009523Y-103052380D02*
X107438095Y-103052380D01*
X107723809Y-103052380D02*
X107723809Y-102052380D01*
X107628571Y-102195238D01*
X107533333Y-102290476D01*
X107438095Y-102338095D01*
X108485714Y-103052380D02*
X108676190Y-103052380D01*
X108771428Y-103004761D01*
X108819047Y-102957142D01*
X108914285Y-102814285D01*
X108961904Y-102623809D01*
X108961904Y-102242857D01*
X108914285Y-102147619D01*
X108866666Y-102100000D01*
X108771428Y-102052380D01*
X108580952Y-102052380D01*
X108485714Y-102100000D01*
X108438095Y-102147619D01*
X108390476Y-102242857D01*
X108390476Y-102480952D01*
X108438095Y-102576190D01*
X108485714Y-102623809D01*
X108580952Y-102671428D01*
X108771428Y-102671428D01*
X108866666Y-102623809D01*
X108914285Y-102576190D01*
X108961904Y-102480952D01*
%TO.C,C20*%
X106957142Y-93607142D02*
X106909523Y-93654761D01*
X106766666Y-93702380D01*
X106671428Y-93702380D01*
X106528571Y-93654761D01*
X106433333Y-93559523D01*
X106385714Y-93464285D01*
X106338095Y-93273809D01*
X106338095Y-93130952D01*
X106385714Y-92940476D01*
X106433333Y-92845238D01*
X106528571Y-92750000D01*
X106671428Y-92702380D01*
X106766666Y-92702380D01*
X106909523Y-92750000D01*
X106957142Y-92797619D01*
X107338095Y-92797619D02*
X107385714Y-92750000D01*
X107480952Y-92702380D01*
X107719047Y-92702380D01*
X107814285Y-92750000D01*
X107861904Y-92797619D01*
X107909523Y-92892857D01*
X107909523Y-92988095D01*
X107861904Y-93130952D01*
X107290476Y-93702380D01*
X107909523Y-93702380D01*
X108528571Y-92702380D02*
X108623809Y-92702380D01*
X108719047Y-92750000D01*
X108766666Y-92797619D01*
X108814285Y-92892857D01*
X108861904Y-93083333D01*
X108861904Y-93321428D01*
X108814285Y-93511904D01*
X108766666Y-93607142D01*
X108719047Y-93654761D01*
X108623809Y-93702380D01*
X108528571Y-93702380D01*
X108433333Y-93654761D01*
X108385714Y-93607142D01*
X108338095Y-93511904D01*
X108290476Y-93321428D01*
X108290476Y-93083333D01*
X108338095Y-92892857D01*
X108385714Y-92797619D01*
X108433333Y-92750000D01*
X108528571Y-92702380D01*
%TO.C,C13*%
X166677142Y-96542857D02*
X166724761Y-96590476D01*
X166772380Y-96733333D01*
X166772380Y-96828571D01*
X166724761Y-96971428D01*
X166629523Y-97066666D01*
X166534285Y-97114285D01*
X166343809Y-97161904D01*
X166200952Y-97161904D01*
X166010476Y-97114285D01*
X165915238Y-97066666D01*
X165820000Y-96971428D01*
X165772380Y-96828571D01*
X165772380Y-96733333D01*
X165820000Y-96590476D01*
X165867619Y-96542857D01*
X166772380Y-95590476D02*
X166772380Y-96161904D01*
X166772380Y-95876190D02*
X165772380Y-95876190D01*
X165915238Y-95971428D01*
X166010476Y-96066666D01*
X166058095Y-96161904D01*
X165772380Y-95257142D02*
X165772380Y-94638095D01*
X166153333Y-94971428D01*
X166153333Y-94828571D01*
X166200952Y-94733333D01*
X166248571Y-94685714D01*
X166343809Y-94638095D01*
X166581904Y-94638095D01*
X166677142Y-94685714D01*
X166724761Y-94733333D01*
X166772380Y-94828571D01*
X166772380Y-95114285D01*
X166724761Y-95209523D01*
X166677142Y-95257142D01*
%TO.C,R9*%
X116933333Y-97202380D02*
X116600000Y-96726190D01*
X116361904Y-97202380D02*
X116361904Y-96202380D01*
X116742857Y-96202380D01*
X116838095Y-96250000D01*
X116885714Y-96297619D01*
X116933333Y-96392857D01*
X116933333Y-96535714D01*
X116885714Y-96630952D01*
X116838095Y-96678571D01*
X116742857Y-96726190D01*
X116361904Y-96726190D01*
X117409523Y-97202380D02*
X117600000Y-97202380D01*
X117695238Y-97154761D01*
X117742857Y-97107142D01*
X117838095Y-96964285D01*
X117885714Y-96773809D01*
X117885714Y-96392857D01*
X117838095Y-96297619D01*
X117790476Y-96250000D01*
X117695238Y-96202380D01*
X117504761Y-96202380D01*
X117409523Y-96250000D01*
X117361904Y-96297619D01*
X117314285Y-96392857D01*
X117314285Y-96630952D01*
X117361904Y-96726190D01*
X117409523Y-96773809D01*
X117504761Y-96821428D01*
X117695238Y-96821428D01*
X117790476Y-96773809D01*
X117838095Y-96726190D01*
X117885714Y-96630952D01*
%TO.C,R10*%
X116907142Y-98702380D02*
X116573809Y-98226190D01*
X116335714Y-98702380D02*
X116335714Y-97702380D01*
X116716666Y-97702380D01*
X116811904Y-97750000D01*
X116859523Y-97797619D01*
X116907142Y-97892857D01*
X116907142Y-98035714D01*
X116859523Y-98130952D01*
X116811904Y-98178571D01*
X116716666Y-98226190D01*
X116335714Y-98226190D01*
X117859523Y-98702380D02*
X117288095Y-98702380D01*
X117573809Y-98702380D02*
X117573809Y-97702380D01*
X117478571Y-97845238D01*
X117383333Y-97940476D01*
X117288095Y-97988095D01*
X118478571Y-97702380D02*
X118573809Y-97702380D01*
X118669047Y-97750000D01*
X118716666Y-97797619D01*
X118764285Y-97892857D01*
X118811904Y-98083333D01*
X118811904Y-98321428D01*
X118764285Y-98511904D01*
X118716666Y-98607142D01*
X118669047Y-98654761D01*
X118573809Y-98702380D01*
X118478571Y-98702380D01*
X118383333Y-98654761D01*
X118335714Y-98607142D01*
X118288095Y-98511904D01*
X118240476Y-98321428D01*
X118240476Y-98083333D01*
X118288095Y-97892857D01*
X118335714Y-97797619D01*
X118383333Y-97750000D01*
X118478571Y-97702380D01*
%TO.C,R11*%
X116907142Y-100202380D02*
X116573809Y-99726190D01*
X116335714Y-100202380D02*
X116335714Y-99202380D01*
X116716666Y-99202380D01*
X116811904Y-99250000D01*
X116859523Y-99297619D01*
X116907142Y-99392857D01*
X116907142Y-99535714D01*
X116859523Y-99630952D01*
X116811904Y-99678571D01*
X116716666Y-99726190D01*
X116335714Y-99726190D01*
X117859523Y-100202380D02*
X117288095Y-100202380D01*
X117573809Y-100202380D02*
X117573809Y-99202380D01*
X117478571Y-99345238D01*
X117383333Y-99440476D01*
X117288095Y-99488095D01*
X118811904Y-100202380D02*
X118240476Y-100202380D01*
X118526190Y-100202380D02*
X118526190Y-99202380D01*
X118430952Y-99345238D01*
X118335714Y-99440476D01*
X118240476Y-99488095D01*
%TO.C,R12*%
X116907142Y-101702380D02*
X116573809Y-101226190D01*
X116335714Y-101702380D02*
X116335714Y-100702380D01*
X116716666Y-100702380D01*
X116811904Y-100750000D01*
X116859523Y-100797619D01*
X116907142Y-100892857D01*
X116907142Y-101035714D01*
X116859523Y-101130952D01*
X116811904Y-101178571D01*
X116716666Y-101226190D01*
X116335714Y-101226190D01*
X117859523Y-101702380D02*
X117288095Y-101702380D01*
X117573809Y-101702380D02*
X117573809Y-100702380D01*
X117478571Y-100845238D01*
X117383333Y-100940476D01*
X117288095Y-100988095D01*
X118240476Y-100797619D02*
X118288095Y-100750000D01*
X118383333Y-100702380D01*
X118621428Y-100702380D01*
X118716666Y-100750000D01*
X118764285Y-100797619D01*
X118811904Y-100892857D01*
X118811904Y-100988095D01*
X118764285Y-101130952D01*
X118192857Y-101702380D01*
X118811904Y-101702380D01*
%TO.C,R13*%
X116907142Y-94202380D02*
X116573809Y-93726190D01*
X116335714Y-94202380D02*
X116335714Y-93202380D01*
X116716666Y-93202380D01*
X116811904Y-93250000D01*
X116859523Y-93297619D01*
X116907142Y-93392857D01*
X116907142Y-93535714D01*
X116859523Y-93630952D01*
X116811904Y-93678571D01*
X116716666Y-93726190D01*
X116335714Y-93726190D01*
X117859523Y-94202380D02*
X117288095Y-94202380D01*
X117573809Y-94202380D02*
X117573809Y-93202380D01*
X117478571Y-93345238D01*
X117383333Y-93440476D01*
X117288095Y-93488095D01*
X118192857Y-93202380D02*
X118811904Y-93202380D01*
X118478571Y-93583333D01*
X118621428Y-93583333D01*
X118716666Y-93630952D01*
X118764285Y-93678571D01*
X118811904Y-93773809D01*
X118811904Y-94011904D01*
X118764285Y-94107142D01*
X118716666Y-94154761D01*
X118621428Y-94202380D01*
X118335714Y-94202380D01*
X118240476Y-94154761D01*
X118192857Y-94107142D01*
%TO.C,R14*%
X116907142Y-95702380D02*
X116573809Y-95226190D01*
X116335714Y-95702380D02*
X116335714Y-94702380D01*
X116716666Y-94702380D01*
X116811904Y-94750000D01*
X116859523Y-94797619D01*
X116907142Y-94892857D01*
X116907142Y-95035714D01*
X116859523Y-95130952D01*
X116811904Y-95178571D01*
X116716666Y-95226190D01*
X116335714Y-95226190D01*
X117859523Y-95702380D02*
X117288095Y-95702380D01*
X117573809Y-95702380D02*
X117573809Y-94702380D01*
X117478571Y-94845238D01*
X117383333Y-94940476D01*
X117288095Y-94988095D01*
X118716666Y-95035714D02*
X118716666Y-95702380D01*
X118478571Y-94654761D02*
X118240476Y-95369047D01*
X118859523Y-95369047D01*
%TO.C,R4*%
X176158333Y-127202380D02*
X175825000Y-126726190D01*
X175586904Y-127202380D02*
X175586904Y-126202380D01*
X175967857Y-126202380D01*
X176063095Y-126250000D01*
X176110714Y-126297619D01*
X176158333Y-126392857D01*
X176158333Y-126535714D01*
X176110714Y-126630952D01*
X176063095Y-126678571D01*
X175967857Y-126726190D01*
X175586904Y-126726190D01*
X177015476Y-126535714D02*
X177015476Y-127202380D01*
X176777380Y-126154761D02*
X176539285Y-126869047D01*
X177158333Y-126869047D01*
%TO.C,R5*%
X175883333Y-122402380D02*
X175550000Y-121926190D01*
X175311904Y-122402380D02*
X175311904Y-121402380D01*
X175692857Y-121402380D01*
X175788095Y-121450000D01*
X175835714Y-121497619D01*
X175883333Y-121592857D01*
X175883333Y-121735714D01*
X175835714Y-121830952D01*
X175788095Y-121878571D01*
X175692857Y-121926190D01*
X175311904Y-121926190D01*
X176788095Y-121402380D02*
X176311904Y-121402380D01*
X176264285Y-121878571D01*
X176311904Y-121830952D01*
X176407142Y-121783333D01*
X176645238Y-121783333D01*
X176740476Y-121830952D01*
X176788095Y-121878571D01*
X176835714Y-121973809D01*
X176835714Y-122211904D01*
X176788095Y-122307142D01*
X176740476Y-122354761D01*
X176645238Y-122402380D01*
X176407142Y-122402380D01*
X176311904Y-122354761D01*
X176264285Y-122307142D01*
%TO.C,R6*%
X177952380Y-98166666D02*
X177476190Y-98500000D01*
X177952380Y-98738095D02*
X176952380Y-98738095D01*
X176952380Y-98357142D01*
X177000000Y-98261904D01*
X177047619Y-98214285D01*
X177142857Y-98166666D01*
X177285714Y-98166666D01*
X177380952Y-98214285D01*
X177428571Y-98261904D01*
X177476190Y-98357142D01*
X177476190Y-98738095D01*
X176952380Y-97309523D02*
X176952380Y-97500000D01*
X177000000Y-97595238D01*
X177047619Y-97642857D01*
X177190476Y-97738095D01*
X177380952Y-97785714D01*
X177761904Y-97785714D01*
X177857142Y-97738095D01*
X177904761Y-97690476D01*
X177952380Y-97595238D01*
X177952380Y-97404761D01*
X177904761Y-97309523D01*
X177857142Y-97261904D01*
X177761904Y-97214285D01*
X177523809Y-97214285D01*
X177428571Y-97261904D01*
X177380952Y-97309523D01*
X177333333Y-97404761D01*
X177333333Y-97595238D01*
X177380952Y-97690476D01*
X177428571Y-97738095D01*
X177523809Y-97785714D01*
%TO.C,Q1*%
X173797619Y-121645238D02*
X173750000Y-121740476D01*
X173654761Y-121835714D01*
X173511904Y-121978571D01*
X173464285Y-122073809D01*
X173464285Y-122169047D01*
X173702380Y-122121428D02*
X173654761Y-122216666D01*
X173559523Y-122311904D01*
X173369047Y-122359523D01*
X173035714Y-122359523D01*
X172845238Y-122311904D01*
X172750000Y-122216666D01*
X172702380Y-122121428D01*
X172702380Y-121930952D01*
X172750000Y-121835714D01*
X172845238Y-121740476D01*
X173035714Y-121692857D01*
X173369047Y-121692857D01*
X173559523Y-121740476D01*
X173654761Y-121835714D01*
X173702380Y-121930952D01*
X173702380Y-122121428D01*
X173702380Y-120740476D02*
X173702380Y-121311904D01*
X173702380Y-121026190D02*
X172702380Y-121026190D01*
X172845238Y-121121428D01*
X172940476Y-121216666D01*
X172988095Y-121311904D01*
%TO.C,Q2*%
X180097619Y-121645238D02*
X180050000Y-121740476D01*
X179954761Y-121835714D01*
X179811904Y-121978571D01*
X179764285Y-122073809D01*
X179764285Y-122169047D01*
X180002380Y-122121428D02*
X179954761Y-122216666D01*
X179859523Y-122311904D01*
X179669047Y-122359523D01*
X179335714Y-122359523D01*
X179145238Y-122311904D01*
X179050000Y-122216666D01*
X179002380Y-122121428D01*
X179002380Y-121930952D01*
X179050000Y-121835714D01*
X179145238Y-121740476D01*
X179335714Y-121692857D01*
X179669047Y-121692857D01*
X179859523Y-121740476D01*
X179954761Y-121835714D01*
X180002380Y-121930952D01*
X180002380Y-122121428D01*
X179097619Y-121311904D02*
X179050000Y-121264285D01*
X179002380Y-121169047D01*
X179002380Y-120930952D01*
X179050000Y-120835714D01*
X179097619Y-120788095D01*
X179192857Y-120740476D01*
X179288095Y-120740476D01*
X179430952Y-120788095D01*
X180002380Y-121359523D01*
X180002380Y-120740476D01*
%TO.C,J9*%
X180216666Y-68902380D02*
X180216666Y-69616666D01*
X180169047Y-69759523D01*
X180073809Y-69854761D01*
X179930952Y-69902380D01*
X179835714Y-69902380D01*
X180740476Y-69902380D02*
X180930952Y-69902380D01*
X181026190Y-69854761D01*
X181073809Y-69807142D01*
X181169047Y-69664285D01*
X181216666Y-69473809D01*
X181216666Y-69092857D01*
X181169047Y-68997619D01*
X181121428Y-68950000D01*
X181026190Y-68902380D01*
X180835714Y-68902380D01*
X180740476Y-68950000D01*
X180692857Y-68997619D01*
X180645238Y-69092857D01*
X180645238Y-69330952D01*
X180692857Y-69426190D01*
X180740476Y-69473809D01*
X180835714Y-69521428D01*
X181026190Y-69521428D01*
X181121428Y-69473809D01*
X181169047Y-69426190D01*
X181216666Y-69330952D01*
%TO.C,J10*%
X110290476Y-91872380D02*
X110290476Y-92586666D01*
X110242857Y-92729523D01*
X110147619Y-92824761D01*
X110004761Y-92872380D01*
X109909523Y-92872380D01*
X111290476Y-92872380D02*
X110719047Y-92872380D01*
X111004761Y-92872380D02*
X111004761Y-91872380D01*
X110909523Y-92015238D01*
X110814285Y-92110476D01*
X110719047Y-92158095D01*
X111909523Y-91872380D02*
X112004761Y-91872380D01*
X112100000Y-91920000D01*
X112147619Y-91967619D01*
X112195238Y-92062857D01*
X112242857Y-92253333D01*
X112242857Y-92491428D01*
X112195238Y-92681904D01*
X112147619Y-92777142D01*
X112100000Y-92824761D01*
X112004761Y-92872380D01*
X111909523Y-92872380D01*
X111814285Y-92824761D01*
X111766666Y-92777142D01*
X111719047Y-92681904D01*
X111671428Y-92491428D01*
X111671428Y-92253333D01*
X111719047Y-92062857D01*
X111766666Y-91967619D01*
X111814285Y-91920000D01*
X111909523Y-91872380D01*
%TO.C,J4*%
X115966666Y-68402380D02*
X115966666Y-69116666D01*
X115919047Y-69259523D01*
X115823809Y-69354761D01*
X115680952Y-69402380D01*
X115585714Y-69402380D01*
X116871428Y-68735714D02*
X116871428Y-69402380D01*
X116633333Y-68354761D02*
X116395238Y-69069047D01*
X117014285Y-69069047D01*
%TO.C,J5*%
X122466666Y-68402380D02*
X122466666Y-69116666D01*
X122419047Y-69259523D01*
X122323809Y-69354761D01*
X122180952Y-69402380D01*
X122085714Y-69402380D01*
X123419047Y-68402380D02*
X122942857Y-68402380D01*
X122895238Y-68878571D01*
X122942857Y-68830952D01*
X123038095Y-68783333D01*
X123276190Y-68783333D01*
X123371428Y-68830952D01*
X123419047Y-68878571D01*
X123466666Y-68973809D01*
X123466666Y-69211904D01*
X123419047Y-69307142D01*
X123371428Y-69354761D01*
X123276190Y-69402380D01*
X123038095Y-69402380D01*
X122942857Y-69354761D01*
X122895238Y-69307142D01*
%TO.C,J6*%
X129466666Y-68402380D02*
X129466666Y-69116666D01*
X129419047Y-69259523D01*
X129323809Y-69354761D01*
X129180952Y-69402380D01*
X129085714Y-69402380D01*
X130371428Y-68402380D02*
X130180952Y-68402380D01*
X130085714Y-68450000D01*
X130038095Y-68497619D01*
X129942857Y-68640476D01*
X129895238Y-68830952D01*
X129895238Y-69211904D01*
X129942857Y-69307142D01*
X129990476Y-69354761D01*
X130085714Y-69402380D01*
X130276190Y-69402380D01*
X130371428Y-69354761D01*
X130419047Y-69307142D01*
X130466666Y-69211904D01*
X130466666Y-68973809D01*
X130419047Y-68878571D01*
X130371428Y-68830952D01*
X130276190Y-68783333D01*
X130085714Y-68783333D01*
X129990476Y-68830952D01*
X129942857Y-68878571D01*
X129895238Y-68973809D01*
%TO.C,J7*%
X135966666Y-68402380D02*
X135966666Y-69116666D01*
X135919047Y-69259523D01*
X135823809Y-69354761D01*
X135680952Y-69402380D01*
X135585714Y-69402380D01*
X136347619Y-68402380D02*
X137014285Y-68402380D01*
X136585714Y-69402380D01*
%TO.C,J1*%
X105966666Y-79072380D02*
X105966666Y-79786666D01*
X105919047Y-79929523D01*
X105823809Y-80024761D01*
X105680952Y-80072380D01*
X105585714Y-80072380D01*
X106966666Y-80072380D02*
X106395238Y-80072380D01*
X106680952Y-80072380D02*
X106680952Y-79072380D01*
X106585714Y-79215238D01*
X106490476Y-79310476D01*
X106395238Y-79358095D01*
%TO.C,C10*%
X167657142Y-115592857D02*
X167704761Y-115640476D01*
X167752380Y-115783333D01*
X167752380Y-115878571D01*
X167704761Y-116021428D01*
X167609523Y-116116666D01*
X167514285Y-116164285D01*
X167323809Y-116211904D01*
X167180952Y-116211904D01*
X166990476Y-116164285D01*
X166895238Y-116116666D01*
X166800000Y-116021428D01*
X166752380Y-115878571D01*
X166752380Y-115783333D01*
X166800000Y-115640476D01*
X166847619Y-115592857D01*
X167752380Y-114640476D02*
X167752380Y-115211904D01*
X167752380Y-114926190D02*
X166752380Y-114926190D01*
X166895238Y-115021428D01*
X166990476Y-115116666D01*
X167038095Y-115211904D01*
X166752380Y-114021428D02*
X166752380Y-113926190D01*
X166800000Y-113830952D01*
X166847619Y-113783333D01*
X166942857Y-113735714D01*
X167133333Y-113688095D01*
X167371428Y-113688095D01*
X167561904Y-113735714D01*
X167657142Y-113783333D01*
X167704761Y-113830952D01*
X167752380Y-113926190D01*
X167752380Y-114021428D01*
X167704761Y-114116666D01*
X167657142Y-114164285D01*
X167561904Y-114211904D01*
X167371428Y-114259523D01*
X167133333Y-114259523D01*
X166942857Y-114211904D01*
X166847619Y-114164285D01*
X166800000Y-114116666D01*
X166752380Y-114021428D01*
%TO.C,C2*%
X160283333Y-131807142D02*
X160235714Y-131854761D01*
X160092857Y-131902380D01*
X159997619Y-131902380D01*
X159854761Y-131854761D01*
X159759523Y-131759523D01*
X159711904Y-131664285D01*
X159664285Y-131473809D01*
X159664285Y-131330952D01*
X159711904Y-131140476D01*
X159759523Y-131045238D01*
X159854761Y-130950000D01*
X159997619Y-130902380D01*
X160092857Y-130902380D01*
X160235714Y-130950000D01*
X160283333Y-130997619D01*
X160664285Y-130997619D02*
X160711904Y-130950000D01*
X160807142Y-130902380D01*
X161045238Y-130902380D01*
X161140476Y-130950000D01*
X161188095Y-130997619D01*
X161235714Y-131092857D01*
X161235714Y-131188095D01*
X161188095Y-131330952D01*
X160616666Y-131902380D01*
X161235714Y-131902380D01*
%TO.C,D7*%
X167902380Y-111288095D02*
X166902380Y-111288095D01*
X166902380Y-111050000D01*
X166950000Y-110907142D01*
X167045238Y-110811904D01*
X167140476Y-110764285D01*
X167330952Y-110716666D01*
X167473809Y-110716666D01*
X167664285Y-110764285D01*
X167759523Y-110811904D01*
X167854761Y-110907142D01*
X167902380Y-111050000D01*
X167902380Y-111288095D01*
X166902380Y-110383333D02*
X166902380Y-109716666D01*
X167902380Y-110145238D01*
%TO.C,D8*%
X162902380Y-111288095D02*
X161902380Y-111288095D01*
X161902380Y-111050000D01*
X161950000Y-110907142D01*
X162045238Y-110811904D01*
X162140476Y-110764285D01*
X162330952Y-110716666D01*
X162473809Y-110716666D01*
X162664285Y-110764285D01*
X162759523Y-110811904D01*
X162854761Y-110907142D01*
X162902380Y-111050000D01*
X162902380Y-111288095D01*
X162330952Y-110145238D02*
X162283333Y-110240476D01*
X162235714Y-110288095D01*
X162140476Y-110335714D01*
X162092857Y-110335714D01*
X161997619Y-110288095D01*
X161950000Y-110240476D01*
X161902380Y-110145238D01*
X161902380Y-109954761D01*
X161950000Y-109859523D01*
X161997619Y-109811904D01*
X162092857Y-109764285D01*
X162140476Y-109764285D01*
X162235714Y-109811904D01*
X162283333Y-109859523D01*
X162330952Y-109954761D01*
X162330952Y-110145238D01*
X162378571Y-110240476D01*
X162426190Y-110288095D01*
X162521428Y-110335714D01*
X162711904Y-110335714D01*
X162807142Y-110288095D01*
X162854761Y-110240476D01*
X162902380Y-110145238D01*
X162902380Y-109954761D01*
X162854761Y-109859523D01*
X162807142Y-109811904D01*
X162711904Y-109764285D01*
X162521428Y-109764285D01*
X162426190Y-109811904D01*
X162378571Y-109859523D01*
X162330952Y-109954761D01*
%TO.C,R15*%
X171102380Y-108292857D02*
X170626190Y-108626190D01*
X171102380Y-108864285D02*
X170102380Y-108864285D01*
X170102380Y-108483333D01*
X170150000Y-108388095D01*
X170197619Y-108340476D01*
X170292857Y-108292857D01*
X170435714Y-108292857D01*
X170530952Y-108340476D01*
X170578571Y-108388095D01*
X170626190Y-108483333D01*
X170626190Y-108864285D01*
X171102380Y-107340476D02*
X171102380Y-107911904D01*
X171102380Y-107626190D02*
X170102380Y-107626190D01*
X170245238Y-107721428D01*
X170340476Y-107816666D01*
X170388095Y-107911904D01*
X170102380Y-106435714D02*
X170102380Y-106911904D01*
X170578571Y-106959523D01*
X170530952Y-106911904D01*
X170483333Y-106816666D01*
X170483333Y-106578571D01*
X170530952Y-106483333D01*
X170578571Y-106435714D01*
X170673809Y-106388095D01*
X170911904Y-106388095D01*
X171007142Y-106435714D01*
X171054761Y-106483333D01*
X171102380Y-106578571D01*
X171102380Y-106816666D01*
X171054761Y-106911904D01*
X171007142Y-106959523D01*
%TO.C,R16*%
X166102380Y-108192857D02*
X165626190Y-108526190D01*
X166102380Y-108764285D02*
X165102380Y-108764285D01*
X165102380Y-108383333D01*
X165150000Y-108288095D01*
X165197619Y-108240476D01*
X165292857Y-108192857D01*
X165435714Y-108192857D01*
X165530952Y-108240476D01*
X165578571Y-108288095D01*
X165626190Y-108383333D01*
X165626190Y-108764285D01*
X166102380Y-107240476D02*
X166102380Y-107811904D01*
X166102380Y-107526190D02*
X165102380Y-107526190D01*
X165245238Y-107621428D01*
X165340476Y-107716666D01*
X165388095Y-107811904D01*
X165102380Y-106383333D02*
X165102380Y-106573809D01*
X165150000Y-106669047D01*
X165197619Y-106716666D01*
X165340476Y-106811904D01*
X165530952Y-106859523D01*
X165911904Y-106859523D01*
X166007142Y-106811904D01*
X166054761Y-106764285D01*
X166102380Y-106669047D01*
X166102380Y-106478571D01*
X166054761Y-106383333D01*
X166007142Y-106335714D01*
X165911904Y-106288095D01*
X165673809Y-106288095D01*
X165578571Y-106335714D01*
X165530952Y-106383333D01*
X165483333Y-106478571D01*
X165483333Y-106669047D01*
X165530952Y-106764285D01*
X165578571Y-106811904D01*
X165673809Y-106859523D01*
%TO.C,C3*%
X129733333Y-83707142D02*
X129685714Y-83754761D01*
X129542857Y-83802380D01*
X129447619Y-83802380D01*
X129304761Y-83754761D01*
X129209523Y-83659523D01*
X129161904Y-83564285D01*
X129114285Y-83373809D01*
X129114285Y-83230952D01*
X129161904Y-83040476D01*
X129209523Y-82945238D01*
X129304761Y-82850000D01*
X129447619Y-82802380D01*
X129542857Y-82802380D01*
X129685714Y-82850000D01*
X129733333Y-82897619D01*
X130066666Y-82802380D02*
X130685714Y-82802380D01*
X130352380Y-83183333D01*
X130495238Y-83183333D01*
X130590476Y-83230952D01*
X130638095Y-83278571D01*
X130685714Y-83373809D01*
X130685714Y-83611904D01*
X130638095Y-83707142D01*
X130590476Y-83754761D01*
X130495238Y-83802380D01*
X130209523Y-83802380D01*
X130114285Y-83754761D01*
X130066666Y-83707142D01*
%TO.C,C4*%
X129733333Y-85307142D02*
X129685714Y-85354761D01*
X129542857Y-85402380D01*
X129447619Y-85402380D01*
X129304761Y-85354761D01*
X129209523Y-85259523D01*
X129161904Y-85164285D01*
X129114285Y-84973809D01*
X129114285Y-84830952D01*
X129161904Y-84640476D01*
X129209523Y-84545238D01*
X129304761Y-84450000D01*
X129447619Y-84402380D01*
X129542857Y-84402380D01*
X129685714Y-84450000D01*
X129733333Y-84497619D01*
X130590476Y-84735714D02*
X130590476Y-85402380D01*
X130352380Y-84354761D02*
X130114285Y-85069047D01*
X130733333Y-85069047D01*
%TO.C,C5*%
X122633333Y-96307142D02*
X122585714Y-96354761D01*
X122442857Y-96402380D01*
X122347619Y-96402380D01*
X122204761Y-96354761D01*
X122109523Y-96259523D01*
X122061904Y-96164285D01*
X122014285Y-95973809D01*
X122014285Y-95830952D01*
X122061904Y-95640476D01*
X122109523Y-95545238D01*
X122204761Y-95450000D01*
X122347619Y-95402380D01*
X122442857Y-95402380D01*
X122585714Y-95450000D01*
X122633333Y-95497619D01*
X123538095Y-95402380D02*
X123061904Y-95402380D01*
X123014285Y-95878571D01*
X123061904Y-95830952D01*
X123157142Y-95783333D01*
X123395238Y-95783333D01*
X123490476Y-95830952D01*
X123538095Y-95878571D01*
X123585714Y-95973809D01*
X123585714Y-96211904D01*
X123538095Y-96307142D01*
X123490476Y-96354761D01*
X123395238Y-96402380D01*
X123157142Y-96402380D01*
X123061904Y-96354761D01*
X123014285Y-96307142D01*
%TO.C,C6*%
X131733333Y-86957142D02*
X131685714Y-87004761D01*
X131542857Y-87052380D01*
X131447619Y-87052380D01*
X131304761Y-87004761D01*
X131209523Y-86909523D01*
X131161904Y-86814285D01*
X131114285Y-86623809D01*
X131114285Y-86480952D01*
X131161904Y-86290476D01*
X131209523Y-86195238D01*
X131304761Y-86100000D01*
X131447619Y-86052380D01*
X131542857Y-86052380D01*
X131685714Y-86100000D01*
X131733333Y-86147619D01*
X132590476Y-86052380D02*
X132400000Y-86052380D01*
X132304761Y-86100000D01*
X132257142Y-86147619D01*
X132161904Y-86290476D01*
X132114285Y-86480952D01*
X132114285Y-86861904D01*
X132161904Y-86957142D01*
X132209523Y-87004761D01*
X132304761Y-87052380D01*
X132495238Y-87052380D01*
X132590476Y-87004761D01*
X132638095Y-86957142D01*
X132685714Y-86861904D01*
X132685714Y-86623809D01*
X132638095Y-86528571D01*
X132590476Y-86480952D01*
X132495238Y-86433333D01*
X132304761Y-86433333D01*
X132209523Y-86480952D01*
X132161904Y-86528571D01*
X132114285Y-86623809D01*
%TO.C,C7*%
X136657142Y-115616666D02*
X136704761Y-115664285D01*
X136752380Y-115807142D01*
X136752380Y-115902380D01*
X136704761Y-116045238D01*
X136609523Y-116140476D01*
X136514285Y-116188095D01*
X136323809Y-116235714D01*
X136180952Y-116235714D01*
X135990476Y-116188095D01*
X135895238Y-116140476D01*
X135800000Y-116045238D01*
X135752380Y-115902380D01*
X135752380Y-115807142D01*
X135800000Y-115664285D01*
X135847619Y-115616666D01*
X135752380Y-115283333D02*
X135752380Y-114616666D01*
X136752380Y-115045238D01*
%TO.C,C8*%
X128407142Y-115616666D02*
X128454761Y-115664285D01*
X128502380Y-115807142D01*
X128502380Y-115902380D01*
X128454761Y-116045238D01*
X128359523Y-116140476D01*
X128264285Y-116188095D01*
X128073809Y-116235714D01*
X127930952Y-116235714D01*
X127740476Y-116188095D01*
X127645238Y-116140476D01*
X127550000Y-116045238D01*
X127502380Y-115902380D01*
X127502380Y-115807142D01*
X127550000Y-115664285D01*
X127597619Y-115616666D01*
X127930952Y-115045238D02*
X127883333Y-115140476D01*
X127835714Y-115188095D01*
X127740476Y-115235714D01*
X127692857Y-115235714D01*
X127597619Y-115188095D01*
X127550000Y-115140476D01*
X127502380Y-115045238D01*
X127502380Y-114854761D01*
X127550000Y-114759523D01*
X127597619Y-114711904D01*
X127692857Y-114664285D01*
X127740476Y-114664285D01*
X127835714Y-114711904D01*
X127883333Y-114759523D01*
X127930952Y-114854761D01*
X127930952Y-115045238D01*
X127978571Y-115140476D01*
X128026190Y-115188095D01*
X128121428Y-115235714D01*
X128311904Y-115235714D01*
X128407142Y-115188095D01*
X128454761Y-115140476D01*
X128502380Y-115045238D01*
X128502380Y-114854761D01*
X128454761Y-114759523D01*
X128407142Y-114711904D01*
X128311904Y-114664285D01*
X128121428Y-114664285D01*
X128026190Y-114711904D01*
X127978571Y-114759523D01*
X127930952Y-114854761D01*
%TO.C,D2*%
X110252380Y-80188095D02*
X109252380Y-80188095D01*
X109252380Y-79950000D01*
X109300000Y-79807142D01*
X109395238Y-79711904D01*
X109490476Y-79664285D01*
X109680952Y-79616666D01*
X109823809Y-79616666D01*
X110014285Y-79664285D01*
X110109523Y-79711904D01*
X110204761Y-79807142D01*
X110252380Y-79950000D01*
X110252380Y-80188095D01*
X109347619Y-79235714D02*
X109300000Y-79188095D01*
X109252380Y-79092857D01*
X109252380Y-78854761D01*
X109300000Y-78759523D01*
X109347619Y-78711904D01*
X109442857Y-78664285D01*
X109538095Y-78664285D01*
X109680952Y-78711904D01*
X110252380Y-79283333D01*
X110252380Y-78664285D01*
%TO.C,D4*%
X178352380Y-101488095D02*
X177352380Y-101488095D01*
X177352380Y-101250000D01*
X177400000Y-101107142D01*
X177495238Y-101011904D01*
X177590476Y-100964285D01*
X177780952Y-100916666D01*
X177923809Y-100916666D01*
X178114285Y-100964285D01*
X178209523Y-101011904D01*
X178304761Y-101107142D01*
X178352380Y-101250000D01*
X178352380Y-101488095D01*
X177685714Y-100059523D02*
X178352380Y-100059523D01*
X177304761Y-100297619D02*
X178019047Y-100535714D01*
X178019047Y-99916666D01*
%TO.C,D5*%
X178502380Y-92038095D02*
X177502380Y-92038095D01*
X177502380Y-91800000D01*
X177550000Y-91657142D01*
X177645238Y-91561904D01*
X177740476Y-91514285D01*
X177930952Y-91466666D01*
X178073809Y-91466666D01*
X178264285Y-91514285D01*
X178359523Y-91561904D01*
X178454761Y-91657142D01*
X178502380Y-91800000D01*
X178502380Y-92038095D01*
X177502380Y-90561904D02*
X177502380Y-91038095D01*
X177978571Y-91085714D01*
X177930952Y-91038095D01*
X177883333Y-90942857D01*
X177883333Y-90704761D01*
X177930952Y-90609523D01*
X177978571Y-90561904D01*
X178073809Y-90514285D01*
X178311904Y-90514285D01*
X178407142Y-90561904D01*
X178454761Y-90609523D01*
X178502380Y-90704761D01*
X178502380Y-90942857D01*
X178454761Y-91038095D01*
X178407142Y-91085714D01*
%TO.C,L1*%
X124902380Y-105116666D02*
X124902380Y-105592857D01*
X123902380Y-105592857D01*
X124902380Y-104259523D02*
X124902380Y-104830952D01*
X124902380Y-104545238D02*
X123902380Y-104545238D01*
X124045238Y-104640476D01*
X124140476Y-104735714D01*
X124188095Y-104830952D01*
%TO.C,R1*%
X121252380Y-89691666D02*
X120776190Y-90025000D01*
X121252380Y-90263095D02*
X120252380Y-90263095D01*
X120252380Y-89882142D01*
X120300000Y-89786904D01*
X120347619Y-89739285D01*
X120442857Y-89691666D01*
X120585714Y-89691666D01*
X120680952Y-89739285D01*
X120728571Y-89786904D01*
X120776190Y-89882142D01*
X120776190Y-90263095D01*
X121252380Y-88739285D02*
X121252380Y-89310714D01*
X121252380Y-89025000D02*
X120252380Y-89025000D01*
X120395238Y-89120238D01*
X120490476Y-89215476D01*
X120538095Y-89310714D01*
%TO.C,R2*%
X123122380Y-100116666D02*
X122646190Y-100450000D01*
X123122380Y-100688095D02*
X122122380Y-100688095D01*
X122122380Y-100307142D01*
X122170000Y-100211904D01*
X122217619Y-100164285D01*
X122312857Y-100116666D01*
X122455714Y-100116666D01*
X122550952Y-100164285D01*
X122598571Y-100211904D01*
X122646190Y-100307142D01*
X122646190Y-100688095D01*
X122217619Y-99735714D02*
X122170000Y-99688095D01*
X122122380Y-99592857D01*
X122122380Y-99354761D01*
X122170000Y-99259523D01*
X122217619Y-99211904D01*
X122312857Y-99164285D01*
X122408095Y-99164285D01*
X122550952Y-99211904D01*
X123122380Y-99783333D01*
X123122380Y-99164285D01*
%TO.C,R3*%
X122133333Y-97902380D02*
X121800000Y-97426190D01*
X121561904Y-97902380D02*
X121561904Y-96902380D01*
X121942857Y-96902380D01*
X122038095Y-96950000D01*
X122085714Y-96997619D01*
X122133333Y-97092857D01*
X122133333Y-97235714D01*
X122085714Y-97330952D01*
X122038095Y-97378571D01*
X121942857Y-97426190D01*
X121561904Y-97426190D01*
X122466666Y-96902380D02*
X123085714Y-96902380D01*
X122752380Y-97283333D01*
X122895238Y-97283333D01*
X122990476Y-97330952D01*
X123038095Y-97378571D01*
X123085714Y-97473809D01*
X123085714Y-97711904D01*
X123038095Y-97807142D01*
X122990476Y-97854761D01*
X122895238Y-97902380D01*
X122609523Y-97902380D01*
X122514285Y-97854761D01*
X122466666Y-97807142D01*
%TO.C,U2*%
X128902380Y-90761904D02*
X129711904Y-90761904D01*
X129807142Y-90714285D01*
X129854761Y-90666666D01*
X129902380Y-90571428D01*
X129902380Y-90380952D01*
X129854761Y-90285714D01*
X129807142Y-90238095D01*
X129711904Y-90190476D01*
X128902380Y-90190476D01*
X128997619Y-89761904D02*
X128950000Y-89714285D01*
X128902380Y-89619047D01*
X128902380Y-89380952D01*
X128950000Y-89285714D01*
X128997619Y-89238095D01*
X129092857Y-89190476D01*
X129188095Y-89190476D01*
X129330952Y-89238095D01*
X129902380Y-89809523D01*
X129902380Y-89190476D01*
%TO.C,J2*%
D14*
X187252768Y-112309783D02*
X187252768Y-112913033D01*
X187212551Y-113033683D01*
X187132118Y-113114116D01*
X187011468Y-113154333D01*
X186931035Y-113154333D01*
X187614718Y-112390216D02*
X187654935Y-112350000D01*
X187735368Y-112309783D01*
X187936451Y-112309783D01*
X188016885Y-112350000D01*
X188057101Y-112390216D01*
X188097318Y-112470650D01*
X188097318Y-112551083D01*
X188057101Y-112671733D01*
X187574501Y-113154333D01*
X188097318Y-113154333D01*
%TD*%
M02*
