G04 #@! TF.GenerationSoftware,KiCad,Pcbnew,5.1.10-1.fc33*
G04 #@! TF.CreationDate,2021-05-26T13:10:01-04:00*
G04 #@! TF.ProjectId,UnderglowPCB,556e6465-7267-46c6-9f77-5043422e6b69,1.3.2*
G04 #@! TF.SameCoordinates,Original*
G04 #@! TF.FileFunction,Soldermask,Bot*
G04 #@! TF.FilePolarity,Negative*
%FSLAX46Y46*%
G04 Gerber Fmt 4.6, Leading zero omitted, Abs format (unit mm)*
G04 Created by KiCad (PCBNEW 5.1.10-1.fc33) date 2021-05-26 13:10:01*
%MOMM*%
%LPD*%
G01*
G04 APERTURE LIST*
%ADD10C,0.500000*%
%ADD11O,1.700000X1.700000*%
%ADD12R,1.700000X1.700000*%
%ADD13O,1.250000X1.050000*%
%ADD14O,1.900000X1.000000*%
%ADD15C,0.900000*%
%ADD16C,8.600000*%
%ADD17C,1.879600*%
%ADD18C,5.181600*%
G04 APERTURE END LIST*
D10*
G04 #@! TO.C,U1*
X153100000Y-124950000D03*
X152600000Y-124950000D03*
X152100000Y-124950000D03*
X151600000Y-124950000D03*
X151100000Y-124950000D03*
X150600000Y-124950000D03*
X150100000Y-124950000D03*
X149600000Y-124950000D03*
X149100000Y-124950000D03*
X148600000Y-124950000D03*
X151100000Y-124450000D03*
X149600000Y-124450000D03*
X150600000Y-124450000D03*
X148600000Y-124450000D03*
X149100000Y-124450000D03*
X152100000Y-124450000D03*
X152600000Y-124450000D03*
X153100000Y-124450000D03*
X150100000Y-124450000D03*
X151600000Y-124450000D03*
X151100000Y-123950000D03*
X149600000Y-123950000D03*
X150600000Y-123950000D03*
X148600000Y-123950000D03*
X149100000Y-123950000D03*
X152100000Y-123950000D03*
X152600000Y-123950000D03*
X153100000Y-123950000D03*
X150100000Y-123950000D03*
X151600000Y-123950000D03*
X151100000Y-123450000D03*
X149600000Y-123450000D03*
X150600000Y-123450000D03*
X148600000Y-123450000D03*
X149100000Y-123450000D03*
X152100000Y-123450000D03*
X152600000Y-123450000D03*
X153100000Y-123450000D03*
X150100000Y-123450000D03*
X151600000Y-123450000D03*
X151100000Y-122950000D03*
X149600000Y-122950000D03*
X150600000Y-122950000D03*
X148600000Y-122950000D03*
X149100000Y-122950000D03*
X152100000Y-122950000D03*
X152600000Y-122950000D03*
X153100000Y-122950000D03*
X150100000Y-122950000D03*
X151600000Y-122950000D03*
X151100000Y-122450000D03*
X149600000Y-122450000D03*
X150600000Y-122450000D03*
X148600000Y-122450000D03*
X149100000Y-122450000D03*
X152100000Y-122450000D03*
X152600000Y-122450000D03*
X153100000Y-122450000D03*
X150100000Y-122450000D03*
X151600000Y-122450000D03*
X151100000Y-121950000D03*
X149600000Y-121950000D03*
X150600000Y-121950000D03*
X148600000Y-121950000D03*
X149100000Y-121950000D03*
X152100000Y-121950000D03*
X152600000Y-121950000D03*
X153100000Y-121950000D03*
X150100000Y-121950000D03*
X151600000Y-121950000D03*
X151100000Y-121450000D03*
X149600000Y-121450000D03*
X150600000Y-121450000D03*
X148600000Y-121450000D03*
X149100000Y-121450000D03*
X152100000Y-121450000D03*
X152600000Y-121450000D03*
X153100000Y-121450000D03*
X150100000Y-121450000D03*
X151600000Y-121450000D03*
X151100000Y-120950000D03*
X149600000Y-120950000D03*
X150600000Y-120950000D03*
X148600000Y-120950000D03*
X149100000Y-120950000D03*
X152100000Y-120950000D03*
X152600000Y-120950000D03*
X153100000Y-120950000D03*
X150100000Y-120950000D03*
X151600000Y-120950000D03*
X151100000Y-120450000D03*
X149600000Y-120450000D03*
X150600000Y-120450000D03*
X148600000Y-120450000D03*
X149100000Y-120450000D03*
X152100000Y-120450000D03*
X152600000Y-120450000D03*
X153100000Y-120450000D03*
X150100000Y-120450000D03*
X151600000Y-120450000D03*
G04 #@! TD*
D11*
G04 #@! TO.C,J11*
X117550000Y-112290000D03*
X117550000Y-114830000D03*
X117550000Y-117370000D03*
X117550000Y-119910000D03*
D12*
X117550000Y-122450000D03*
G04 #@! TD*
G04 #@! TO.C,J12*
X147950000Y-95950000D03*
D11*
X150490000Y-95950000D03*
X153030000Y-95950000D03*
X155570000Y-95950000D03*
X158110000Y-95950000D03*
X160650000Y-95950000D03*
X163190000Y-95950000D03*
G04 #@! TD*
G04 #@! TO.C,J8*
X174050000Y-76990000D03*
X174050000Y-74450000D03*
D12*
X174050000Y-71910000D03*
G04 #@! TD*
D10*
G04 #@! TO.C,U8*
X177000000Y-118550000D03*
X176500000Y-118550000D03*
X176000000Y-118550000D03*
X174200000Y-118550000D03*
X174700000Y-118550000D03*
X175200000Y-118550000D03*
X177000000Y-118050000D03*
X177000000Y-117550000D03*
X177000000Y-115750000D03*
X174200000Y-115750000D03*
X174200000Y-116250000D03*
X174200000Y-116750000D03*
X174200000Y-118050000D03*
X174200000Y-117550000D03*
X174700000Y-115750000D03*
X175200000Y-115750000D03*
X176500000Y-115750000D03*
X176000000Y-115750000D03*
X177000000Y-116250000D03*
X177000000Y-116750000D03*
X176500000Y-116250000D03*
X176500000Y-116750000D03*
X176000000Y-116750000D03*
X176000000Y-116250000D03*
X175200000Y-116250000D03*
X174700000Y-116250000D03*
X174700000Y-116750000D03*
X175200000Y-116750000D03*
X174700000Y-118050000D03*
X174700000Y-117550000D03*
X175200000Y-117550000D03*
X175200000Y-118050000D03*
X176500000Y-118050000D03*
X176000000Y-118050000D03*
X176000000Y-117550000D03*
X176500000Y-117550000D03*
X175600000Y-117150000D03*
G04 #@! TD*
D13*
G04 #@! TO.C,J3*
X189600000Y-119425000D03*
X189600000Y-114975000D03*
D14*
X192600000Y-121375000D03*
X192600000Y-113025000D03*
G04 #@! TD*
D15*
G04 #@! TO.C,H1*
X111330419Y-125669581D03*
X109050000Y-124725000D03*
X106769581Y-125669581D03*
X105825000Y-127950000D03*
X106769581Y-130230419D03*
X109050000Y-131175000D03*
X111330419Y-130230419D03*
X112275000Y-127950000D03*
D16*
X109050000Y-127950000D03*
G04 #@! TD*
G04 #@! TO.C,H2*
X189050000Y-72950000D03*
D15*
X185825000Y-72950000D03*
X186769581Y-70669581D03*
X189050000Y-69725000D03*
X191330419Y-70669581D03*
X192275000Y-72950000D03*
X191330419Y-75230419D03*
X189050000Y-76175000D03*
X186769581Y-75230419D03*
G04 #@! TD*
G04 #@! TO.C,H3*
X191330419Y-125669581D03*
X189050000Y-124725000D03*
X186769581Y-125669581D03*
X185825000Y-127950000D03*
X186769581Y-130230419D03*
X189050000Y-131175000D03*
X191330419Y-130230419D03*
X192275000Y-127950000D03*
D16*
X189050000Y-127950000D03*
G04 #@! TD*
G04 #@! TO.C,H4*
X109050000Y-72950000D03*
D15*
X112275000Y-72950000D03*
X111330419Y-75230419D03*
X109050000Y-76175000D03*
X106769581Y-75230419D03*
X105825000Y-72950000D03*
X106769581Y-70669581D03*
X109050000Y-69725000D03*
X111330419Y-70669581D03*
G04 #@! TD*
D11*
G04 #@! TO.C,J9*
X180550000Y-76990000D03*
X180550000Y-74450000D03*
D12*
X180550000Y-71910000D03*
G04 #@! TD*
D11*
G04 #@! TO.C,J10*
X111100000Y-99830000D03*
X111100000Y-97290000D03*
D12*
X111100000Y-94750000D03*
G04 #@! TD*
G04 #@! TO.C,J4*
X116300000Y-71410000D03*
D11*
X116300000Y-73950000D03*
X116300000Y-76490000D03*
G04 #@! TD*
G04 #@! TO.C,J5*
X122800000Y-76490000D03*
X122800000Y-73950000D03*
D12*
X122800000Y-71410000D03*
G04 #@! TD*
G04 #@! TO.C,J6*
X129800000Y-71410000D03*
D11*
X129800000Y-73950000D03*
X129800000Y-76490000D03*
G04 #@! TD*
D12*
G04 #@! TO.C,J7*
X136300000Y-71410000D03*
D11*
X136300000Y-73950000D03*
X136300000Y-76490000D03*
G04 #@! TD*
D12*
G04 #@! TO.C,J1*
X106300000Y-81950000D03*
D11*
X106300000Y-84490000D03*
X106300000Y-87030000D03*
G04 #@! TD*
D17*
G04 #@! TO.C,J2*
X184377600Y-88763600D03*
X184377600Y-91506800D03*
X184377600Y-94250000D03*
X184377600Y-96993200D03*
G36*
G01*
X183488600Y-98796600D02*
X185266600Y-98796600D01*
G75*
G02*
X185317400Y-98847400I0J-50800D01*
G01*
X185317400Y-100625400D01*
G75*
G02*
X185266600Y-100676200I-50800J0D01*
G01*
X183488600Y-100676200D01*
G75*
G02*
X183437800Y-100625400I0J50800D01*
G01*
X183437800Y-98847400D01*
G75*
G02*
X183488600Y-98796600I50800J0D01*
G01*
G37*
X187222400Y-90135200D03*
X187222400Y-92878400D03*
X187222400Y-95621600D03*
X187222400Y-98364800D03*
D18*
X185800000Y-81753200D03*
X185800000Y-106746800D03*
G04 #@! TD*
M02*
