G04 #@! TF.GenerationSoftware,KiCad,Pcbnew,5.1.10-1.fc33*
G04 #@! TF.CreationDate,2021-05-26T13:10:01-04:00*
G04 #@! TF.ProjectId,UnderglowPCB,556e6465-7267-46c6-9f77-5043422e6b69,1.3.2*
G04 #@! TF.SameCoordinates,Original*
G04 #@! TF.FileFunction,Copper,L4,Bot*
G04 #@! TF.FilePolarity,Positive*
%FSLAX46Y46*%
G04 Gerber Fmt 4.6, Leading zero omitted, Abs format (unit mm)*
G04 Created by KiCad (PCBNEW 5.1.10-1.fc33) date 2021-05-26 13:10:01*
%MOMM*%
%LPD*%
G01*
G04 APERTURE LIST*
G04 #@! TA.AperFunction,ComponentPad*
%ADD10C,0.500000*%
G04 #@! TD*
G04 #@! TA.AperFunction,ComponentPad*
%ADD11O,1.700000X1.700000*%
G04 #@! TD*
G04 #@! TA.AperFunction,ComponentPad*
%ADD12R,1.700000X1.700000*%
G04 #@! TD*
G04 #@! TA.AperFunction,ComponentPad*
%ADD13C,0.600000*%
G04 #@! TD*
G04 #@! TA.AperFunction,SMDPad,CuDef*
%ADD14R,2.950000X4.900000*%
G04 #@! TD*
G04 #@! TA.AperFunction,ComponentPad*
%ADD15O,1.250000X1.050000*%
G04 #@! TD*
G04 #@! TA.AperFunction,ComponentPad*
%ADD16O,1.900000X1.000000*%
G04 #@! TD*
G04 #@! TA.AperFunction,ComponentPad*
%ADD17C,0.900000*%
G04 #@! TD*
G04 #@! TA.AperFunction,ComponentPad*
%ADD18C,8.600000*%
G04 #@! TD*
G04 #@! TA.AperFunction,SMDPad,CuDef*
%ADD19R,4.900000X2.950000*%
G04 #@! TD*
G04 #@! TA.AperFunction,ComponentPad*
%ADD20C,1.778000*%
G04 #@! TD*
G04 #@! TA.AperFunction,ComponentPad*
%ADD21R,1.778000X1.778000*%
G04 #@! TD*
G04 #@! TA.AperFunction,ComponentPad*
%ADD22C,5.080000*%
G04 #@! TD*
G04 #@! TA.AperFunction,ViaPad*
%ADD23C,0.800000*%
G04 #@! TD*
G04 #@! TA.AperFunction,Conductor*
%ADD24C,0.250000*%
G04 #@! TD*
G04 #@! TA.AperFunction,Conductor*
%ADD25C,2.000000*%
G04 #@! TD*
G04 #@! TA.AperFunction,Conductor*
%ADD26C,1.000000*%
G04 #@! TD*
G04 #@! TA.AperFunction,Conductor*
%ADD27C,0.500000*%
G04 #@! TD*
G04 #@! TA.AperFunction,Conductor*
%ADD28C,0.200000*%
G04 #@! TD*
G04 APERTURE END LIST*
D10*
G04 #@! TO.P,U1,39*
G04 #@! TO.N,GND*
X153100000Y-124950000D03*
X152600000Y-124950000D03*
X152100000Y-124950000D03*
X151600000Y-124950000D03*
X151100000Y-124950000D03*
X150600000Y-124950000D03*
X150100000Y-124950000D03*
X149600000Y-124950000D03*
X149100000Y-124950000D03*
X148600000Y-124950000D03*
X151100000Y-124450000D03*
X149600000Y-124450000D03*
X150600000Y-124450000D03*
X148600000Y-124450000D03*
X149100000Y-124450000D03*
X152100000Y-124450000D03*
X152600000Y-124450000D03*
X153100000Y-124450000D03*
X150100000Y-124450000D03*
X151600000Y-124450000D03*
X151100000Y-123950000D03*
X149600000Y-123950000D03*
X150600000Y-123950000D03*
X148600000Y-123950000D03*
X149100000Y-123950000D03*
X152100000Y-123950000D03*
X152600000Y-123950000D03*
X153100000Y-123950000D03*
X150100000Y-123950000D03*
X151600000Y-123950000D03*
X151100000Y-123450000D03*
X149600000Y-123450000D03*
X150600000Y-123450000D03*
X148600000Y-123450000D03*
X149100000Y-123450000D03*
X152100000Y-123450000D03*
X152600000Y-123450000D03*
X153100000Y-123450000D03*
X150100000Y-123450000D03*
X151600000Y-123450000D03*
X151100000Y-122950000D03*
X149600000Y-122950000D03*
X150600000Y-122950000D03*
X148600000Y-122950000D03*
X149100000Y-122950000D03*
X152100000Y-122950000D03*
X152600000Y-122950000D03*
X153100000Y-122950000D03*
X150100000Y-122950000D03*
X151600000Y-122950000D03*
X151100000Y-122450000D03*
X149600000Y-122450000D03*
X150600000Y-122450000D03*
X148600000Y-122450000D03*
X149100000Y-122450000D03*
X152100000Y-122450000D03*
X152600000Y-122450000D03*
X153100000Y-122450000D03*
X150100000Y-122450000D03*
X151600000Y-122450000D03*
X151100000Y-121950000D03*
X149600000Y-121950000D03*
X150600000Y-121950000D03*
X148600000Y-121950000D03*
X149100000Y-121950000D03*
X152100000Y-121950000D03*
X152600000Y-121950000D03*
X153100000Y-121950000D03*
X150100000Y-121950000D03*
X151600000Y-121950000D03*
X151100000Y-121450000D03*
X149600000Y-121450000D03*
X150600000Y-121450000D03*
X148600000Y-121450000D03*
X149100000Y-121450000D03*
X152100000Y-121450000D03*
X152600000Y-121450000D03*
X153100000Y-121450000D03*
X150100000Y-121450000D03*
X151600000Y-121450000D03*
X151100000Y-120950000D03*
X149600000Y-120950000D03*
X150600000Y-120950000D03*
X148600000Y-120950000D03*
X149100000Y-120950000D03*
X152100000Y-120950000D03*
X152600000Y-120950000D03*
X153100000Y-120950000D03*
X150100000Y-120950000D03*
X151600000Y-120950000D03*
X151100000Y-120450000D03*
X149600000Y-120450000D03*
X150600000Y-120450000D03*
X148600000Y-120450000D03*
X149100000Y-120450000D03*
X152100000Y-120450000D03*
X152600000Y-120450000D03*
X153100000Y-120450000D03*
X150100000Y-120450000D03*
X151600000Y-120450000D03*
G04 #@! TD*
D11*
G04 #@! TO.P,J11,5*
G04 #@! TO.N,JOYSTICK_B*
X117550000Y-112290000D03*
G04 #@! TO.P,J11,4*
G04 #@! TO.N,JOYSTICK_Y*
X117550000Y-114830000D03*
G04 #@! TO.P,J11,3*
G04 #@! TO.N,JOYSTICK_X*
X117550000Y-117370000D03*
G04 #@! TO.P,J11,2*
G04 #@! TO.N,+3V3*
X117550000Y-119910000D03*
D12*
G04 #@! TO.P,J11,1*
G04 #@! TO.N,GND*
X117550000Y-122450000D03*
G04 #@! TD*
G04 #@! TO.P,J12,1*
G04 #@! TO.N,GND*
X147950000Y-95950000D03*
D11*
G04 #@! TO.P,J12,2*
G04 #@! TO.N,+5V*
X150490000Y-95950000D03*
G04 #@! TO.P,J12,3*
G04 #@! TO.N,SPICLK*
X153030000Y-95950000D03*
G04 #@! TO.P,J12,4*
G04 #@! TO.N,MOSI*
X155570000Y-95950000D03*
G04 #@! TO.P,J12,5*
G04 #@! TO.N,OLED_RESET*
X158110000Y-95950000D03*
G04 #@! TO.P,J12,6*
G04 #@! TO.N,OLED_DC*
X160650000Y-95950000D03*
G04 #@! TO.P,J12,7*
G04 #@! TO.N,OLED_CS*
X163190000Y-95950000D03*
G04 #@! TD*
D13*
G04 #@! TO.P,U6,9*
G04 #@! TO.N,N/C*
X173250000Y-97875000D03*
X173250000Y-96575000D03*
X171950000Y-96575000D03*
X171950000Y-97875000D03*
X173250000Y-93975000D03*
X173250000Y-95275000D03*
X171950000Y-95275000D03*
X171950000Y-93975000D03*
D14*
X172600000Y-95925000D03*
G04 #@! TD*
D11*
G04 #@! TO.P,J8,3*
G04 #@! TO.N,+5V*
X174050000Y-76990000D03*
G04 #@! TO.P,J8,2*
G04 #@! TO.N,5V_LED_SPARE_1*
X174050000Y-74450000D03*
D12*
G04 #@! TO.P,J8,1*
G04 #@! TO.N,GND*
X174050000Y-71910000D03*
G04 #@! TD*
D10*
G04 #@! TO.P,U8,29*
G04 #@! TO.N,GND*
X177000000Y-118550000D03*
X176500000Y-118550000D03*
X176000000Y-118550000D03*
X174200000Y-118550000D03*
X174700000Y-118550000D03*
X175200000Y-118550000D03*
X177000000Y-118050000D03*
X177000000Y-117550000D03*
X177000000Y-115750000D03*
X174200000Y-115750000D03*
X174200000Y-116250000D03*
X174200000Y-116750000D03*
X174200000Y-118050000D03*
X174200000Y-117550000D03*
X174700000Y-115750000D03*
X175200000Y-115750000D03*
X176500000Y-115750000D03*
X176000000Y-115750000D03*
X177000000Y-116250000D03*
X177000000Y-116750000D03*
X176500000Y-116250000D03*
X176500000Y-116750000D03*
X176000000Y-116750000D03*
X176000000Y-116250000D03*
X175200000Y-116250000D03*
X174700000Y-116250000D03*
X174700000Y-116750000D03*
X175200000Y-116750000D03*
X174700000Y-118050000D03*
X174700000Y-117550000D03*
X175200000Y-117550000D03*
X175200000Y-118050000D03*
X176500000Y-118050000D03*
X176000000Y-118050000D03*
X176000000Y-117550000D03*
X176500000Y-117550000D03*
X175600000Y-117150000D03*
G04 #@! TD*
D15*
G04 #@! TO.P,J3,6*
G04 #@! TO.N,Net-(J3-Pad6)*
X189600000Y-119425000D03*
X189600000Y-114975000D03*
D16*
X192600000Y-121375000D03*
X192600000Y-113025000D03*
G04 #@! TD*
D17*
G04 #@! TO.P,H1,1*
G04 #@! TO.N,GND*
X111330419Y-125669581D03*
X109050000Y-124725000D03*
X106769581Y-125669581D03*
X105825000Y-127950000D03*
X106769581Y-130230419D03*
X109050000Y-131175000D03*
X111330419Y-130230419D03*
X112275000Y-127950000D03*
D18*
X109050000Y-127950000D03*
G04 #@! TD*
G04 #@! TO.P,H2,1*
G04 #@! TO.N,GND*
X189050000Y-72950000D03*
D17*
X185825000Y-72950000D03*
X186769581Y-70669581D03*
X189050000Y-69725000D03*
X191330419Y-70669581D03*
X192275000Y-72950000D03*
X191330419Y-75230419D03*
X189050000Y-76175000D03*
X186769581Y-75230419D03*
G04 #@! TD*
G04 #@! TO.P,H3,1*
G04 #@! TO.N,GND*
X191330419Y-125669581D03*
X189050000Y-124725000D03*
X186769581Y-125669581D03*
X185825000Y-127950000D03*
X186769581Y-130230419D03*
X189050000Y-131175000D03*
X191330419Y-130230419D03*
X192275000Y-127950000D03*
D18*
X189050000Y-127950000D03*
G04 #@! TD*
G04 #@! TO.P,H4,1*
G04 #@! TO.N,GND*
X109050000Y-72950000D03*
D17*
X112275000Y-72950000D03*
X111330419Y-75230419D03*
X109050000Y-76175000D03*
X106769581Y-75230419D03*
X105825000Y-72950000D03*
X106769581Y-70669581D03*
X109050000Y-69725000D03*
X111330419Y-70669581D03*
G04 #@! TD*
D11*
G04 #@! TO.P,J9,3*
G04 #@! TO.N,+5V*
X180550000Y-76990000D03*
G04 #@! TO.P,J9,2*
G04 #@! TO.N,5V_LED_SPARE_2*
X180550000Y-74450000D03*
D12*
G04 #@! TO.P,J9,1*
G04 #@! TO.N,GND*
X180550000Y-71910000D03*
G04 #@! TD*
D11*
G04 #@! TO.P,J10,3*
G04 #@! TO.N,TURN_LEFT*
X111100000Y-99830000D03*
G04 #@! TO.P,J10,2*
G04 #@! TO.N,TURN_RIGHT*
X111100000Y-97290000D03*
D12*
G04 #@! TO.P,J10,1*
G04 #@! TO.N,BRAKE*
X111100000Y-94750000D03*
G04 #@! TD*
G04 #@! TO.P,J4,1*
G04 #@! TO.N,GND*
X116300000Y-71410000D03*
D11*
G04 #@! TO.P,J4,2*
G04 #@! TO.N,UNDRGLW_FRNT*
X116300000Y-73950000D03*
G04 #@! TO.P,J4,3*
G04 #@! TO.N,+12V*
X116300000Y-76490000D03*
G04 #@! TD*
G04 #@! TO.P,J5,3*
G04 #@! TO.N,+12V*
X122800000Y-76490000D03*
G04 #@! TO.P,J5,2*
G04 #@! TO.N,UNDRGLW_LEFT*
X122800000Y-73950000D03*
D12*
G04 #@! TO.P,J5,1*
G04 #@! TO.N,GND*
X122800000Y-71410000D03*
G04 #@! TD*
G04 #@! TO.P,J6,1*
G04 #@! TO.N,GND*
X129800000Y-71410000D03*
D11*
G04 #@! TO.P,J6,2*
G04 #@! TO.N,UNDRGLW_REAR*
X129800000Y-73950000D03*
G04 #@! TO.P,J6,3*
G04 #@! TO.N,+12V*
X129800000Y-76490000D03*
G04 #@! TD*
D12*
G04 #@! TO.P,J7,1*
G04 #@! TO.N,GND*
X136300000Y-71410000D03*
D11*
G04 #@! TO.P,J7,2*
G04 #@! TO.N,UNDRGLW_RGHT*
X136300000Y-73950000D03*
G04 #@! TO.P,J7,3*
G04 #@! TO.N,+12V*
X136300000Y-76490000D03*
G04 #@! TD*
D12*
G04 #@! TO.P,J1,1*
G04 #@! TO.N,GND*
X106300000Y-81950000D03*
D11*
G04 #@! TO.P,J1,2*
G04 #@! TO.N,AUX*
X106300000Y-84490000D03*
G04 #@! TO.P,J1,3*
G04 #@! TO.N,CAR_12V*
X106300000Y-87030000D03*
G04 #@! TD*
D19*
G04 #@! TO.P,U2,9*
G04 #@! TO.N,GND*
X125900000Y-91350000D03*
D13*
X127850000Y-90700000D03*
X126550000Y-90700000D03*
X126550000Y-92000000D03*
X127850000Y-92000000D03*
X123950000Y-90700000D03*
X125250000Y-90700000D03*
X125250000Y-92000000D03*
X123950000Y-92000000D03*
G04 #@! TD*
D20*
G04 #@! TO.P,J2,5*
G04 #@! TO.N,Net-(J2-Pad5)*
X184377600Y-88763600D03*
G04 #@! TO.P,J2,4*
G04 #@! TO.N,Net-(J2-Pad4)*
X184377600Y-91506800D03*
G04 #@! TO.P,J2,3*
G04 #@! TO.N,GND*
X184377600Y-94250000D03*
G04 #@! TO.P,J2,2*
G04 #@! TO.N,Net-(D4-Pad2)*
X184377600Y-96993200D03*
D21*
G04 #@! TO.P,J2,1*
G04 #@! TO.N,Net-(J2-Pad1)*
X184377600Y-99736400D03*
D20*
G04 #@! TO.P,J2,9*
G04 #@! TO.N,Net-(J2-Pad9)*
X187222400Y-90135200D03*
G04 #@! TO.P,J2,8*
G04 #@! TO.N,Net-(J2-Pad8)*
X187222400Y-92878400D03*
G04 #@! TO.P,J2,7*
G04 #@! TO.N,Net-(D5-Pad2)*
X187222400Y-95621600D03*
G04 #@! TO.P,J2,6*
G04 #@! TO.N,Net-(J2-Pad6)*
X187222400Y-98364800D03*
D22*
G04 #@! TO.P,J2,G1*
G04 #@! TO.N,N/C*
X185800000Y-81753200D03*
G04 #@! TO.P,J2,G2*
X185800000Y-106746800D03*
G04 #@! TD*
D23*
G04 #@! TO.N,GND*
X164850000Y-130900000D03*
X139950000Y-130350000D03*
X155550000Y-111250000D03*
X181100000Y-116930000D03*
X169450000Y-117150000D03*
X169550000Y-118250000D03*
X164350000Y-113150000D03*
X129050000Y-83450000D03*
X129050000Y-84950000D03*
X181050000Y-87450000D03*
X180050000Y-103450000D03*
X181050000Y-103450000D03*
X180050000Y-87450000D03*
X132950000Y-117400000D03*
X131950000Y-117400000D03*
X168900000Y-113350000D03*
X169000000Y-105700000D03*
X164500000Y-105700000D03*
X168700000Y-94700000D03*
X167700000Y-94200000D03*
X112850000Y-95500000D03*
X112850000Y-98500000D03*
X112850000Y-101500000D03*
X106800000Y-101500000D03*
X106800000Y-96000000D03*
X177100000Y-110900000D03*
X181900000Y-113900000D03*
X175200000Y-110900000D03*
X181900000Y-115300000D03*
X185800000Y-116000000D03*
X187600000Y-119500000D03*
X179350000Y-117750000D03*
X137050000Y-79550000D03*
X138960000Y-91390000D03*
X139800000Y-86000000D03*
G04 #@! TO.N,VBUS*
X186724990Y-120275010D03*
X178200000Y-113500000D03*
G04 #@! TO.N,+3V3*
X166550000Y-119350000D03*
X166550000Y-120250000D03*
X166550000Y-121150000D03*
X166550000Y-121950000D03*
X166550000Y-122850000D03*
X166650000Y-98450000D03*
X137800000Y-88600000D03*
X132150000Y-105200000D03*
G04 #@! TO.N,+5V*
X162350000Y-117750000D03*
X162350000Y-116950000D03*
X162350000Y-116150000D03*
X124050000Y-101950000D03*
X131350000Y-108800000D03*
X132750000Y-108800000D03*
X132950000Y-111200000D03*
X131550000Y-111200000D03*
X130750000Y-110000000D03*
X129950000Y-108800000D03*
X129950000Y-111200000D03*
X129150000Y-110000000D03*
X133550000Y-110000000D03*
X135150000Y-110000000D03*
X134350000Y-108800000D03*
X134350000Y-111200000D03*
X165000000Y-111300000D03*
X182600000Y-119900000D03*
X137050000Y-83350000D03*
G04 #@! TO.N,MOSI*
X147850000Y-127150000D03*
G04 #@! TO.N,SPICLK*
X143850000Y-115650000D03*
G04 #@! TO.N,JOYSTICK_X*
X144350000Y-124150000D03*
G04 #@! TO.N,JOYSTICK_Y*
X145850000Y-124350000D03*
G04 #@! TO.N,UNDRGLW_FRNT*
X130700000Y-81700000D03*
G04 #@! TO.N,UNDRGLW_LEFT*
X131300000Y-80000000D03*
G04 #@! TO.N,UNDRGLW_REAR*
X133100000Y-79300000D03*
G04 #@! TO.N,UNDRGLW_RGHT*
X135150000Y-79350000D03*
G04 #@! TO.N,EN*
X171300000Y-126900000D03*
X160100000Y-127600000D03*
G04 #@! TO.N,IO0*
X155500000Y-114500000D03*
X168450000Y-126450000D03*
G04 #@! TO.N,TURN_RIGHT_LOW*
X146700000Y-118600000D03*
X120200000Y-107700000D03*
G04 #@! TO.N,TURN_LEFT_LOW*
X145700000Y-119600000D03*
X118900000Y-108600000D03*
G04 #@! TO.N,BRAKE_LOW*
X146000000Y-117700000D03*
X121300000Y-106700000D03*
G04 #@! TO.N,RXD0*
X146000000Y-126900000D03*
X176100000Y-121600000D03*
G04 #@! TO.N,TXD0*
X177850000Y-121950000D03*
X144350000Y-126550000D03*
G04 #@! TO.N,Net-(C6-Pad2)*
X130500000Y-86550000D03*
X128500000Y-96150000D03*
G04 #@! TO.N,AUX*
X124000000Y-117600000D03*
G04 #@! TD*
D24*
G04 #@! TO.N,VBUS*
X180874999Y-116174999D02*
X178200000Y-113500000D01*
X186724990Y-120275010D02*
X182624979Y-116174999D01*
X182624979Y-116174999D02*
X180874999Y-116174999D01*
D25*
G04 #@! TO.N,+3V3*
X166550000Y-122850000D02*
X166550000Y-119350000D01*
D26*
X166650000Y-122750000D02*
X166550000Y-122850000D01*
X166650000Y-98450000D02*
X166650000Y-122750000D01*
X166650000Y-97263998D02*
X157486002Y-88100000D01*
X166650000Y-98450000D02*
X166650000Y-97263998D01*
X132150000Y-105200000D02*
X133500000Y-105200000D01*
X133500000Y-105200000D02*
X142250000Y-96450000D01*
X142250000Y-89700000D02*
X143850000Y-88100000D01*
X142250000Y-96450000D02*
X142250000Y-89700000D01*
X143850000Y-88100000D02*
X137300000Y-88100000D01*
X157486002Y-88100000D02*
X143850000Y-88100000D01*
D27*
G04 #@! TO.N,MOSI*
X147850000Y-120311998D02*
X147750000Y-120211998D01*
X147850000Y-127150000D02*
X147850000Y-120311998D01*
X147750000Y-103770000D02*
X155570000Y-95950000D01*
X147750000Y-120211998D02*
X147750000Y-103770000D01*
G04 #@! TO.N,SPICLK*
X143850000Y-105130000D02*
X153030000Y-95950000D01*
X143850000Y-115650000D02*
X143850000Y-105130000D01*
D24*
G04 #@! TO.N,JOYSTICK_X*
X124330000Y-124150000D02*
X117550000Y-117370000D01*
X144350000Y-124150000D02*
X124330000Y-124150000D01*
G04 #@! TO.N,JOYSTICK_Y*
X145850000Y-124350000D02*
X144950000Y-123450000D01*
X126170000Y-123450000D02*
X117550000Y-114830000D01*
X144950000Y-123450000D02*
X126170000Y-123450000D01*
D28*
G04 #@! TO.N,UNDRGLW_FRNT*
X124050000Y-81700000D02*
X116300000Y-73950000D01*
X130700000Y-81700000D02*
X124050000Y-81700000D01*
G04 #@! TO.N,UNDRGLW_LEFT*
X128850000Y-80000000D02*
X122800000Y-73950000D01*
X131300000Y-80000000D02*
X128850000Y-80000000D01*
G04 #@! TO.N,UNDRGLW_REAR*
X133100000Y-79300000D02*
X132100000Y-78300000D01*
X132100000Y-76250000D02*
X129800000Y-73950000D01*
X132100000Y-78300000D02*
X132100000Y-76250000D01*
G04 #@! TO.N,UNDRGLW_RGHT*
X135150000Y-75100000D02*
X136300000Y-73950000D01*
X135150000Y-79350000D02*
X135150000Y-75100000D01*
D24*
G04 #@! TO.N,EN*
X170600000Y-127600000D02*
X171300000Y-126900000D01*
X160100000Y-127600000D02*
X170600000Y-127600000D01*
G04 #@! TO.N,IO0*
X157950000Y-114450000D02*
X161050000Y-117550000D01*
X161050000Y-117550000D02*
X161050000Y-124950000D01*
X162550000Y-126450000D02*
X168450000Y-126450000D01*
X161050000Y-124950000D02*
X162550000Y-126450000D01*
X155550000Y-114450000D02*
X155500000Y-114500000D01*
X157950000Y-114450000D02*
X155550000Y-114450000D01*
D28*
G04 #@! TO.N,TURN_RIGHT_LOW*
X131100000Y-118600000D02*
X120200000Y-107700000D01*
X146700000Y-118600000D02*
X131100000Y-118600000D01*
G04 #@! TO.N,TURN_LEFT_LOW*
X129900000Y-119600000D02*
X118900000Y-108600000D01*
X145700000Y-119600000D02*
X129900000Y-119600000D01*
G04 #@! TO.N,BRAKE_LOW*
X131349999Y-116749999D02*
X121300000Y-106700000D01*
X145049999Y-116749999D02*
X131349999Y-116749999D01*
X146000000Y-117700000D02*
X145049999Y-116749999D01*
G04 #@! TO.N,RXD0*
X163500001Y-127200001D02*
X170037997Y-127200001D01*
X149012003Y-126949999D02*
X163249999Y-126949999D01*
X148162001Y-127800001D02*
X149012003Y-126949999D01*
X163249999Y-126949999D02*
X163500001Y-127200001D01*
X146900001Y-127800001D02*
X148162001Y-127800001D01*
X146000000Y-126900000D02*
X146900001Y-127800001D01*
X176100000Y-121600000D02*
X176100000Y-122300000D01*
X176100000Y-122300000D02*
X175900000Y-122500000D01*
X175900000Y-122500000D02*
X171300000Y-122500000D01*
X171300000Y-122500000D02*
X170500000Y-123300000D01*
X170500000Y-126737998D02*
X170037997Y-127200001D01*
X170500000Y-123300000D02*
X170500000Y-126737998D01*
D24*
G04 #@! TO.N,TXD0*
X146425011Y-128625011D02*
X144350000Y-126550000D01*
X171740674Y-128625011D02*
X146425011Y-128625011D01*
X177850000Y-122515685D02*
X171740674Y-128625011D01*
X177850000Y-121950000D02*
X177850000Y-122515685D01*
D28*
G04 #@! TO.N,Net-(J3-Pad6)*
X192600000Y-121375000D02*
X191550000Y-121375000D01*
X192600000Y-113025000D02*
X191550000Y-113025000D01*
X191550000Y-113025000D02*
X189600000Y-114975000D01*
X191550000Y-121375000D02*
X189600000Y-119425000D01*
X189600000Y-119425000D02*
X189600000Y-114975000D01*
D27*
G04 #@! TO.N,Net-(C6-Pad2)*
X130500000Y-94150000D02*
X128500000Y-96150000D01*
X130500000Y-86550000D02*
X130500000Y-94150000D01*
D28*
G04 #@! TO.N,AUX*
X104800000Y-85990000D02*
X106300000Y-84490000D01*
X104800000Y-102100000D02*
X104800000Y-85990000D01*
X107400000Y-104700000D02*
X104800000Y-102100000D01*
X111665685Y-104700000D02*
X107400000Y-104700000D01*
X124000000Y-117034315D02*
X111665685Y-104700000D01*
X124000000Y-117600000D02*
X124000000Y-117034315D01*
G04 #@! TD*
M02*
