G04 #@! TF.GenerationSoftware,KiCad,Pcbnew,5.1.10-1.fc33*
G04 #@! TF.CreationDate,2021-05-26T13:10:01-04:00*
G04 #@! TF.ProjectId,UnderglowPCB,556e6465-7267-46c6-9f77-5043422e6b69,1.3.2*
G04 #@! TF.SameCoordinates,Original*
G04 #@! TF.FileFunction,Paste,Top*
G04 #@! TF.FilePolarity,Positive*
%FSLAX46Y46*%
G04 Gerber Fmt 4.6, Leading zero omitted, Abs format (unit mm)*
G04 Created by KiCad (PCBNEW 5.1.10-1.fc33) date 2021-05-26 13:10:01*
%MOMM*%
%LPD*%
G01*
G04 APERTURE LIST*
%ADD10R,5.000000X5.000000*%
%ADD11R,2.000000X0.900000*%
%ADD12R,0.900000X2.000000*%
%ADD13R,1.524000X1.200000*%
%ADD14R,0.200000X1.100000*%
%ADD15R,0.200000X1.000000*%
%ADD16R,2.600000X3.100000*%
%ADD17R,1.550000X0.600000*%
%ADD18R,3.500000X2.000000*%
%ADD19R,3.300000X3.300000*%
%ADD20R,0.600000X0.450000*%
%ADD21R,1.060000X0.650000*%
%ADD22R,1.350000X0.400000*%
%ADD23R,1.900000X2.900000*%
%ADD24R,0.850000X0.300000*%
%ADD25R,1.500000X2.000000*%
%ADD26R,3.800000X2.000000*%
%ADD27R,0.800000X0.900000*%
%ADD28R,1.520000X1.200000*%
%ADD29R,2.260000X2.160000*%
%ADD30R,7.000000X4.000000*%
%ADD31R,0.600000X1.550000*%
%ADD32R,3.100000X2.600000*%
G04 APERTURE END LIST*
D10*
G04 #@! TO.C,U1*
X150850000Y-122705000D03*
D11*
X158350000Y-130205000D03*
X158350000Y-128935000D03*
X158350000Y-127665000D03*
X158350000Y-126395000D03*
X158350000Y-125125000D03*
X158350000Y-123855000D03*
X158350000Y-122585000D03*
X158350000Y-121315000D03*
X158350000Y-120045000D03*
X158350000Y-118775000D03*
X158350000Y-117505000D03*
X158350000Y-116235000D03*
X158350000Y-114965000D03*
X158350000Y-113695000D03*
D12*
X155565000Y-112695000D03*
X154295000Y-112695000D03*
X153025000Y-112695000D03*
X151755000Y-112695000D03*
X150485000Y-112695000D03*
X149215000Y-112695000D03*
X147945000Y-112695000D03*
X146675000Y-112695000D03*
X145405000Y-112695000D03*
X144135000Y-112695000D03*
D11*
X141350000Y-113695000D03*
X141350000Y-114965000D03*
X141350000Y-116235000D03*
X141350000Y-117505000D03*
X141350000Y-118775000D03*
X141350000Y-120045000D03*
X141350000Y-121315000D03*
X141350000Y-122585000D03*
X141350000Y-123855000D03*
X141350000Y-125125000D03*
X141350000Y-126395000D03*
X141350000Y-127665000D03*
X141350000Y-128935000D03*
X141350000Y-130205000D03*
G04 #@! TD*
D13*
G04 #@! TO.C,D3*
X130500000Y-92050000D03*
X130500000Y-96250000D03*
G04 #@! TD*
G04 #@! TO.C,C1*
G36*
G01*
X161949999Y-130300000D02*
X164150001Y-130300000D01*
G75*
G02*
X164400000Y-130549999I0J-249999D01*
G01*
X164400000Y-131200001D01*
G75*
G02*
X164150001Y-131450000I-249999J0D01*
G01*
X161949999Y-131450000D01*
G75*
G02*
X161700000Y-131200001I0J249999D01*
G01*
X161700000Y-130549999D01*
G75*
G02*
X161949999Y-130300000I249999J0D01*
G01*
G37*
G36*
G01*
X161949999Y-127350000D02*
X164150001Y-127350000D01*
G75*
G02*
X164400000Y-127599999I0J-249999D01*
G01*
X164400000Y-128250001D01*
G75*
G02*
X164150001Y-128500000I-249999J0D01*
G01*
X161949999Y-128500000D01*
G75*
G02*
X161700000Y-128250001I0J249999D01*
G01*
X161700000Y-127599999D01*
G75*
G02*
X161949999Y-127350000I249999J0D01*
G01*
G37*
G04 #@! TD*
G04 #@! TO.C,C12*
G36*
G01*
X136800000Y-80125000D02*
X137300000Y-80125000D01*
G75*
G02*
X137525000Y-80350000I0J-225000D01*
G01*
X137525000Y-80800000D01*
G75*
G02*
X137300000Y-81025000I-225000J0D01*
G01*
X136800000Y-81025000D01*
G75*
G02*
X136575000Y-80800000I0J225000D01*
G01*
X136575000Y-80350000D01*
G75*
G02*
X136800000Y-80125000I225000J0D01*
G01*
G37*
G36*
G01*
X136800000Y-81675000D02*
X137300000Y-81675000D01*
G75*
G02*
X137525000Y-81900000I0J-225000D01*
G01*
X137525000Y-82350000D01*
G75*
G02*
X137300000Y-82575000I-225000J0D01*
G01*
X136800000Y-82575000D01*
G75*
G02*
X136575000Y-82350000I0J225000D01*
G01*
X136575000Y-81900000D01*
G75*
G02*
X136800000Y-81675000I225000J0D01*
G01*
G37*
G04 #@! TD*
G04 #@! TO.C,C11*
G36*
G01*
X138050000Y-91825000D02*
X137550000Y-91825000D01*
G75*
G02*
X137325000Y-91600000I0J225000D01*
G01*
X137325000Y-91150000D01*
G75*
G02*
X137550000Y-90925000I225000J0D01*
G01*
X138050000Y-90925000D01*
G75*
G02*
X138275000Y-91150000I0J-225000D01*
G01*
X138275000Y-91600000D01*
G75*
G02*
X138050000Y-91825000I-225000J0D01*
G01*
G37*
G36*
G01*
X138050000Y-90275000D02*
X137550000Y-90275000D01*
G75*
G02*
X137325000Y-90050000I0J225000D01*
G01*
X137325000Y-89600000D01*
G75*
G02*
X137550000Y-89375000I225000J0D01*
G01*
X138050000Y-89375000D01*
G75*
G02*
X138275000Y-89600000I0J-225000D01*
G01*
X138275000Y-90050000D01*
G75*
G02*
X138050000Y-90275000I-225000J0D01*
G01*
G37*
G04 #@! TD*
D14*
G04 #@! TO.C,U4*
X135500000Y-86850000D03*
D15*
X135900000Y-86900000D03*
X136300000Y-86900000D03*
X136700000Y-86900000D03*
X137100000Y-86900000D03*
X137500000Y-86900000D03*
X137900000Y-86900000D03*
X138300000Y-86900000D03*
X138700000Y-86900000D03*
X139100000Y-86900000D03*
X139100000Y-85100000D03*
X138700000Y-85100000D03*
X138300000Y-85100000D03*
X137900000Y-85100000D03*
X137500000Y-85100000D03*
X137100000Y-85100000D03*
X136700000Y-85100000D03*
X136300000Y-85100000D03*
X135900000Y-85100000D03*
X135500000Y-85100000D03*
G04 #@! TD*
D16*
G04 #@! TO.C,U6*
X172600000Y-95925000D03*
D17*
X175300000Y-94020000D03*
X175300000Y-95290000D03*
X175300000Y-96560000D03*
X175300000Y-97830000D03*
X169900000Y-97830000D03*
X169900000Y-96560000D03*
X169900000Y-95290000D03*
X169900000Y-94020000D03*
G04 #@! TD*
G04 #@! TO.C,U8*
G36*
G01*
X178450000Y-118587500D02*
X178450000Y-118712500D01*
G75*
G02*
X178387500Y-118775000I-62500J0D01*
G01*
X177712500Y-118775000D01*
G75*
G02*
X177650000Y-118712500I0J62500D01*
G01*
X177650000Y-118587500D01*
G75*
G02*
X177712500Y-118525000I62500J0D01*
G01*
X178387500Y-118525000D01*
G75*
G02*
X178450000Y-118587500I0J-62500D01*
G01*
G37*
G36*
G01*
X178450000Y-118087500D02*
X178450000Y-118212500D01*
G75*
G02*
X178387500Y-118275000I-62500J0D01*
G01*
X177712500Y-118275000D01*
G75*
G02*
X177650000Y-118212500I0J62500D01*
G01*
X177650000Y-118087500D01*
G75*
G02*
X177712500Y-118025000I62500J0D01*
G01*
X178387500Y-118025000D01*
G75*
G02*
X178450000Y-118087500I0J-62500D01*
G01*
G37*
G36*
G01*
X178450000Y-117587500D02*
X178450000Y-117712500D01*
G75*
G02*
X178387500Y-117775000I-62500J0D01*
G01*
X177712500Y-117775000D01*
G75*
G02*
X177650000Y-117712500I0J62500D01*
G01*
X177650000Y-117587500D01*
G75*
G02*
X177712500Y-117525000I62500J0D01*
G01*
X178387500Y-117525000D01*
G75*
G02*
X178450000Y-117587500I0J-62500D01*
G01*
G37*
G36*
G01*
X178450000Y-117087500D02*
X178450000Y-117212500D01*
G75*
G02*
X178387500Y-117275000I-62500J0D01*
G01*
X177712500Y-117275000D01*
G75*
G02*
X177650000Y-117212500I0J62500D01*
G01*
X177650000Y-117087500D01*
G75*
G02*
X177712500Y-117025000I62500J0D01*
G01*
X178387500Y-117025000D01*
G75*
G02*
X178450000Y-117087500I0J-62500D01*
G01*
G37*
G36*
G01*
X178450000Y-116587500D02*
X178450000Y-116712500D01*
G75*
G02*
X178387500Y-116775000I-62500J0D01*
G01*
X177712500Y-116775000D01*
G75*
G02*
X177650000Y-116712500I0J62500D01*
G01*
X177650000Y-116587500D01*
G75*
G02*
X177712500Y-116525000I62500J0D01*
G01*
X178387500Y-116525000D01*
G75*
G02*
X178450000Y-116587500I0J-62500D01*
G01*
G37*
G36*
G01*
X178450000Y-116087500D02*
X178450000Y-116212500D01*
G75*
G02*
X178387500Y-116275000I-62500J0D01*
G01*
X177712500Y-116275000D01*
G75*
G02*
X177650000Y-116212500I0J62500D01*
G01*
X177650000Y-116087500D01*
G75*
G02*
X177712500Y-116025000I62500J0D01*
G01*
X178387500Y-116025000D01*
G75*
G02*
X178450000Y-116087500I0J-62500D01*
G01*
G37*
G36*
G01*
X178450000Y-115587500D02*
X178450000Y-115712500D01*
G75*
G02*
X178387500Y-115775000I-62500J0D01*
G01*
X177712500Y-115775000D01*
G75*
G02*
X177650000Y-115712500I0J62500D01*
G01*
X177650000Y-115587500D01*
G75*
G02*
X177712500Y-115525000I62500J0D01*
G01*
X178387500Y-115525000D01*
G75*
G02*
X178450000Y-115587500I0J-62500D01*
G01*
G37*
G36*
G01*
X177225000Y-114362500D02*
X177225000Y-115037500D01*
G75*
G02*
X177162500Y-115100000I-62500J0D01*
G01*
X177037500Y-115100000D01*
G75*
G02*
X176975000Y-115037500I0J62500D01*
G01*
X176975000Y-114362500D01*
G75*
G02*
X177037500Y-114300000I62500J0D01*
G01*
X177162500Y-114300000D01*
G75*
G02*
X177225000Y-114362500I0J-62500D01*
G01*
G37*
G36*
G01*
X176725000Y-114362500D02*
X176725000Y-115037500D01*
G75*
G02*
X176662500Y-115100000I-62500J0D01*
G01*
X176537500Y-115100000D01*
G75*
G02*
X176475000Y-115037500I0J62500D01*
G01*
X176475000Y-114362500D01*
G75*
G02*
X176537500Y-114300000I62500J0D01*
G01*
X176662500Y-114300000D01*
G75*
G02*
X176725000Y-114362500I0J-62500D01*
G01*
G37*
G36*
G01*
X176225000Y-114362500D02*
X176225000Y-115037500D01*
G75*
G02*
X176162500Y-115100000I-62500J0D01*
G01*
X176037500Y-115100000D01*
G75*
G02*
X175975000Y-115037500I0J62500D01*
G01*
X175975000Y-114362500D01*
G75*
G02*
X176037500Y-114300000I62500J0D01*
G01*
X176162500Y-114300000D01*
G75*
G02*
X176225000Y-114362500I0J-62500D01*
G01*
G37*
G36*
G01*
X175725000Y-114362500D02*
X175725000Y-115037500D01*
G75*
G02*
X175662500Y-115100000I-62500J0D01*
G01*
X175537500Y-115100000D01*
G75*
G02*
X175475000Y-115037500I0J62500D01*
G01*
X175475000Y-114362500D01*
G75*
G02*
X175537500Y-114300000I62500J0D01*
G01*
X175662500Y-114300000D01*
G75*
G02*
X175725000Y-114362500I0J-62500D01*
G01*
G37*
G36*
G01*
X175225000Y-114362500D02*
X175225000Y-115037500D01*
G75*
G02*
X175162500Y-115100000I-62500J0D01*
G01*
X175037500Y-115100000D01*
G75*
G02*
X174975000Y-115037500I0J62500D01*
G01*
X174975000Y-114362500D01*
G75*
G02*
X175037500Y-114300000I62500J0D01*
G01*
X175162500Y-114300000D01*
G75*
G02*
X175225000Y-114362500I0J-62500D01*
G01*
G37*
G36*
G01*
X174725000Y-114362500D02*
X174725000Y-115037500D01*
G75*
G02*
X174662500Y-115100000I-62500J0D01*
G01*
X174537500Y-115100000D01*
G75*
G02*
X174475000Y-115037500I0J62500D01*
G01*
X174475000Y-114362500D01*
G75*
G02*
X174537500Y-114300000I62500J0D01*
G01*
X174662500Y-114300000D01*
G75*
G02*
X174725000Y-114362500I0J-62500D01*
G01*
G37*
G36*
G01*
X174225000Y-114362500D02*
X174225000Y-115037500D01*
G75*
G02*
X174162500Y-115100000I-62500J0D01*
G01*
X174037500Y-115100000D01*
G75*
G02*
X173975000Y-115037500I0J62500D01*
G01*
X173975000Y-114362500D01*
G75*
G02*
X174037500Y-114300000I62500J0D01*
G01*
X174162500Y-114300000D01*
G75*
G02*
X174225000Y-114362500I0J-62500D01*
G01*
G37*
G36*
G01*
X173550000Y-115587500D02*
X173550000Y-115712500D01*
G75*
G02*
X173487500Y-115775000I-62500J0D01*
G01*
X172812500Y-115775000D01*
G75*
G02*
X172750000Y-115712500I0J62500D01*
G01*
X172750000Y-115587500D01*
G75*
G02*
X172812500Y-115525000I62500J0D01*
G01*
X173487500Y-115525000D01*
G75*
G02*
X173550000Y-115587500I0J-62500D01*
G01*
G37*
G36*
G01*
X173550000Y-116087500D02*
X173550000Y-116212500D01*
G75*
G02*
X173487500Y-116275000I-62500J0D01*
G01*
X172812500Y-116275000D01*
G75*
G02*
X172750000Y-116212500I0J62500D01*
G01*
X172750000Y-116087500D01*
G75*
G02*
X172812500Y-116025000I62500J0D01*
G01*
X173487500Y-116025000D01*
G75*
G02*
X173550000Y-116087500I0J-62500D01*
G01*
G37*
G36*
G01*
X173550000Y-116587500D02*
X173550000Y-116712500D01*
G75*
G02*
X173487500Y-116775000I-62500J0D01*
G01*
X172812500Y-116775000D01*
G75*
G02*
X172750000Y-116712500I0J62500D01*
G01*
X172750000Y-116587500D01*
G75*
G02*
X172812500Y-116525000I62500J0D01*
G01*
X173487500Y-116525000D01*
G75*
G02*
X173550000Y-116587500I0J-62500D01*
G01*
G37*
G36*
G01*
X173550000Y-117087500D02*
X173550000Y-117212500D01*
G75*
G02*
X173487500Y-117275000I-62500J0D01*
G01*
X172812500Y-117275000D01*
G75*
G02*
X172750000Y-117212500I0J62500D01*
G01*
X172750000Y-117087500D01*
G75*
G02*
X172812500Y-117025000I62500J0D01*
G01*
X173487500Y-117025000D01*
G75*
G02*
X173550000Y-117087500I0J-62500D01*
G01*
G37*
G36*
G01*
X173550000Y-117587500D02*
X173550000Y-117712500D01*
G75*
G02*
X173487500Y-117775000I-62500J0D01*
G01*
X172812500Y-117775000D01*
G75*
G02*
X172750000Y-117712500I0J62500D01*
G01*
X172750000Y-117587500D01*
G75*
G02*
X172812500Y-117525000I62500J0D01*
G01*
X173487500Y-117525000D01*
G75*
G02*
X173550000Y-117587500I0J-62500D01*
G01*
G37*
G36*
G01*
X173550000Y-118087500D02*
X173550000Y-118212500D01*
G75*
G02*
X173487500Y-118275000I-62500J0D01*
G01*
X172812500Y-118275000D01*
G75*
G02*
X172750000Y-118212500I0J62500D01*
G01*
X172750000Y-118087500D01*
G75*
G02*
X172812500Y-118025000I62500J0D01*
G01*
X173487500Y-118025000D01*
G75*
G02*
X173550000Y-118087500I0J-62500D01*
G01*
G37*
G36*
G01*
X173550000Y-118587500D02*
X173550000Y-118712500D01*
G75*
G02*
X173487500Y-118775000I-62500J0D01*
G01*
X172812500Y-118775000D01*
G75*
G02*
X172750000Y-118712500I0J62500D01*
G01*
X172750000Y-118587500D01*
G75*
G02*
X172812500Y-118525000I62500J0D01*
G01*
X173487500Y-118525000D01*
G75*
G02*
X173550000Y-118587500I0J-62500D01*
G01*
G37*
G36*
G01*
X174225000Y-119262500D02*
X174225000Y-119937500D01*
G75*
G02*
X174162500Y-120000000I-62500J0D01*
G01*
X174037500Y-120000000D01*
G75*
G02*
X173975000Y-119937500I0J62500D01*
G01*
X173975000Y-119262500D01*
G75*
G02*
X174037500Y-119200000I62500J0D01*
G01*
X174162500Y-119200000D01*
G75*
G02*
X174225000Y-119262500I0J-62500D01*
G01*
G37*
G36*
G01*
X174725000Y-119262500D02*
X174725000Y-119937500D01*
G75*
G02*
X174662500Y-120000000I-62500J0D01*
G01*
X174537500Y-120000000D01*
G75*
G02*
X174475000Y-119937500I0J62500D01*
G01*
X174475000Y-119262500D01*
G75*
G02*
X174537500Y-119200000I62500J0D01*
G01*
X174662500Y-119200000D01*
G75*
G02*
X174725000Y-119262500I0J-62500D01*
G01*
G37*
G36*
G01*
X175225000Y-119262500D02*
X175225000Y-119937500D01*
G75*
G02*
X175162500Y-120000000I-62500J0D01*
G01*
X175037500Y-120000000D01*
G75*
G02*
X174975000Y-119937500I0J62500D01*
G01*
X174975000Y-119262500D01*
G75*
G02*
X175037500Y-119200000I62500J0D01*
G01*
X175162500Y-119200000D01*
G75*
G02*
X175225000Y-119262500I0J-62500D01*
G01*
G37*
G36*
G01*
X175725000Y-119262500D02*
X175725000Y-119937500D01*
G75*
G02*
X175662500Y-120000000I-62500J0D01*
G01*
X175537500Y-120000000D01*
G75*
G02*
X175475000Y-119937500I0J62500D01*
G01*
X175475000Y-119262500D01*
G75*
G02*
X175537500Y-119200000I62500J0D01*
G01*
X175662500Y-119200000D01*
G75*
G02*
X175725000Y-119262500I0J-62500D01*
G01*
G37*
G36*
G01*
X176225000Y-119262500D02*
X176225000Y-119937500D01*
G75*
G02*
X176162500Y-120000000I-62500J0D01*
G01*
X176037500Y-120000000D01*
G75*
G02*
X175975000Y-119937500I0J62500D01*
G01*
X175975000Y-119262500D01*
G75*
G02*
X176037500Y-119200000I62500J0D01*
G01*
X176162500Y-119200000D01*
G75*
G02*
X176225000Y-119262500I0J-62500D01*
G01*
G37*
G36*
G01*
X176725000Y-119262500D02*
X176725000Y-119937500D01*
G75*
G02*
X176662500Y-120000000I-62500J0D01*
G01*
X176537500Y-120000000D01*
G75*
G02*
X176475000Y-119937500I0J62500D01*
G01*
X176475000Y-119262500D01*
G75*
G02*
X176537500Y-119200000I62500J0D01*
G01*
X176662500Y-119200000D01*
G75*
G02*
X176725000Y-119262500I0J-62500D01*
G01*
G37*
G36*
G01*
X177225000Y-119262500D02*
X177225000Y-119937500D01*
G75*
G02*
X177162500Y-120000000I-62500J0D01*
G01*
X177037500Y-120000000D01*
G75*
G02*
X176975000Y-119937500I0J62500D01*
G01*
X176975000Y-119262500D01*
G75*
G02*
X177037500Y-119200000I62500J0D01*
G01*
X177162500Y-119200000D01*
G75*
G02*
X177225000Y-119262500I0J-62500D01*
G01*
G37*
G36*
G01*
X177170000Y-118045000D02*
X177170000Y-118495000D01*
G75*
G02*
X176945000Y-118720000I-225000J0D01*
G01*
X176495000Y-118720000D01*
G75*
G02*
X176270000Y-118495000I0J225000D01*
G01*
X176270000Y-118045000D01*
G75*
G02*
X176495000Y-117820000I225000J0D01*
G01*
X176945000Y-117820000D01*
G75*
G02*
X177170000Y-118045000I0J-225000D01*
G01*
G37*
G36*
G01*
X177170000Y-116925000D02*
X177170000Y-117375000D01*
G75*
G02*
X176945000Y-117600000I-225000J0D01*
G01*
X176495000Y-117600000D01*
G75*
G02*
X176270000Y-117375000I0J225000D01*
G01*
X176270000Y-116925000D01*
G75*
G02*
X176495000Y-116700000I225000J0D01*
G01*
X176945000Y-116700000D01*
G75*
G02*
X177170000Y-116925000I0J-225000D01*
G01*
G37*
G36*
G01*
X177170000Y-115805000D02*
X177170000Y-116255000D01*
G75*
G02*
X176945000Y-116480000I-225000J0D01*
G01*
X176495000Y-116480000D01*
G75*
G02*
X176270000Y-116255000I0J225000D01*
G01*
X176270000Y-115805000D01*
G75*
G02*
X176495000Y-115580000I225000J0D01*
G01*
X176945000Y-115580000D01*
G75*
G02*
X177170000Y-115805000I0J-225000D01*
G01*
G37*
G36*
G01*
X176050000Y-118045000D02*
X176050000Y-118495000D01*
G75*
G02*
X175825000Y-118720000I-225000J0D01*
G01*
X175375000Y-118720000D01*
G75*
G02*
X175150000Y-118495000I0J225000D01*
G01*
X175150000Y-118045000D01*
G75*
G02*
X175375000Y-117820000I225000J0D01*
G01*
X175825000Y-117820000D01*
G75*
G02*
X176050000Y-118045000I0J-225000D01*
G01*
G37*
G36*
G01*
X176050000Y-116925000D02*
X176050000Y-117375000D01*
G75*
G02*
X175825000Y-117600000I-225000J0D01*
G01*
X175375000Y-117600000D01*
G75*
G02*
X175150000Y-117375000I0J225000D01*
G01*
X175150000Y-116925000D01*
G75*
G02*
X175375000Y-116700000I225000J0D01*
G01*
X175825000Y-116700000D01*
G75*
G02*
X176050000Y-116925000I0J-225000D01*
G01*
G37*
G36*
G01*
X176050000Y-115805000D02*
X176050000Y-116255000D01*
G75*
G02*
X175825000Y-116480000I-225000J0D01*
G01*
X175375000Y-116480000D01*
G75*
G02*
X175150000Y-116255000I0J225000D01*
G01*
X175150000Y-115805000D01*
G75*
G02*
X175375000Y-115580000I225000J0D01*
G01*
X175825000Y-115580000D01*
G75*
G02*
X176050000Y-115805000I0J-225000D01*
G01*
G37*
G36*
G01*
X174930000Y-118045000D02*
X174930000Y-118495000D01*
G75*
G02*
X174705000Y-118720000I-225000J0D01*
G01*
X174255000Y-118720000D01*
G75*
G02*
X174030000Y-118495000I0J225000D01*
G01*
X174030000Y-118045000D01*
G75*
G02*
X174255000Y-117820000I225000J0D01*
G01*
X174705000Y-117820000D01*
G75*
G02*
X174930000Y-118045000I0J-225000D01*
G01*
G37*
G36*
G01*
X174930000Y-116925000D02*
X174930000Y-117375000D01*
G75*
G02*
X174705000Y-117600000I-225000J0D01*
G01*
X174255000Y-117600000D01*
G75*
G02*
X174030000Y-117375000I0J225000D01*
G01*
X174030000Y-116925000D01*
G75*
G02*
X174255000Y-116700000I225000J0D01*
G01*
X174705000Y-116700000D01*
G75*
G02*
X174930000Y-116925000I0J-225000D01*
G01*
G37*
G36*
G01*
X174930000Y-115805000D02*
X174930000Y-116255000D01*
G75*
G02*
X174705000Y-116480000I-225000J0D01*
G01*
X174255000Y-116480000D01*
G75*
G02*
X174030000Y-116255000I0J225000D01*
G01*
X174030000Y-115805000D01*
G75*
G02*
X174255000Y-115580000I225000J0D01*
G01*
X174705000Y-115580000D01*
G75*
G02*
X174930000Y-115805000I0J-225000D01*
G01*
G37*
G04 #@! TD*
D18*
G04 #@! TO.C,D1*
X113925000Y-80550000D03*
X113925000Y-85130000D03*
D19*
X119550000Y-81050000D03*
X123100000Y-81050000D03*
X119550000Y-84650000D03*
X123100000Y-84650000D03*
G04 #@! TD*
G04 #@! TO.C,C9*
G36*
G01*
X164550000Y-114625000D02*
X164050000Y-114625000D01*
G75*
G02*
X163825000Y-114400000I0J225000D01*
G01*
X163825000Y-113950000D01*
G75*
G02*
X164050000Y-113725000I225000J0D01*
G01*
X164550000Y-113725000D01*
G75*
G02*
X164775000Y-113950000I0J-225000D01*
G01*
X164775000Y-114400000D01*
G75*
G02*
X164550000Y-114625000I-225000J0D01*
G01*
G37*
G36*
G01*
X164550000Y-116175000D02*
X164050000Y-116175000D01*
G75*
G02*
X163825000Y-115950000I0J225000D01*
G01*
X163825000Y-115500000D01*
G75*
G02*
X164050000Y-115275000I225000J0D01*
G01*
X164550000Y-115275000D01*
G75*
G02*
X164775000Y-115500000I0J-225000D01*
G01*
X164775000Y-115950000D01*
G75*
G02*
X164550000Y-116175000I-225000J0D01*
G01*
G37*
G04 #@! TD*
D20*
G04 #@! TO.C,D6*
X183550000Y-119900000D03*
X185650000Y-119900000D03*
G04 #@! TD*
G04 #@! TO.C,C17*
G36*
G01*
X179025000Y-115600000D02*
X179025000Y-115100000D01*
G75*
G02*
X179250000Y-114875000I225000J0D01*
G01*
X179700000Y-114875000D01*
G75*
G02*
X179925000Y-115100000I0J-225000D01*
G01*
X179925000Y-115600000D01*
G75*
G02*
X179700000Y-115825000I-225000J0D01*
G01*
X179250000Y-115825000D01*
G75*
G02*
X179025000Y-115600000I0J225000D01*
G01*
G37*
G36*
G01*
X180575000Y-115600000D02*
X180575000Y-115100000D01*
G75*
G02*
X180800000Y-114875000I225000J0D01*
G01*
X181250000Y-114875000D01*
G75*
G02*
X181475000Y-115100000I0J-225000D01*
G01*
X181475000Y-115600000D01*
G75*
G02*
X181250000Y-115825000I-225000J0D01*
G01*
X180800000Y-115825000D01*
G75*
G02*
X180575000Y-115600000I0J225000D01*
G01*
G37*
G04 #@! TD*
G04 #@! TO.C,R7*
G36*
G01*
X179850000Y-112575000D02*
X179850000Y-112025000D01*
G75*
G02*
X180050000Y-111825000I200000J0D01*
G01*
X180450000Y-111825000D01*
G75*
G02*
X180650000Y-112025000I0J-200000D01*
G01*
X180650000Y-112575000D01*
G75*
G02*
X180450000Y-112775000I-200000J0D01*
G01*
X180050000Y-112775000D01*
G75*
G02*
X179850000Y-112575000I0J200000D01*
G01*
G37*
G36*
G01*
X178200000Y-112575000D02*
X178200000Y-112025000D01*
G75*
G02*
X178400000Y-111825000I200000J0D01*
G01*
X178800000Y-111825000D01*
G75*
G02*
X179000000Y-112025000I0J-200000D01*
G01*
X179000000Y-112575000D01*
G75*
G02*
X178800000Y-112775000I-200000J0D01*
G01*
X178400000Y-112775000D01*
G75*
G02*
X178200000Y-112575000I0J200000D01*
G01*
G37*
G04 #@! TD*
D21*
G04 #@! TO.C,U7*
X184700000Y-116900000D03*
X184700000Y-117850000D03*
X184700000Y-115950000D03*
X186900000Y-115950000D03*
X186900000Y-116900000D03*
X186900000Y-117850000D03*
G04 #@! TD*
G04 #@! TO.C,R8*
G36*
G01*
X174875000Y-111275000D02*
X175425000Y-111275000D01*
G75*
G02*
X175625000Y-111475000I0J-200000D01*
G01*
X175625000Y-111875000D01*
G75*
G02*
X175425000Y-112075000I-200000J0D01*
G01*
X174875000Y-112075000D01*
G75*
G02*
X174675000Y-111875000I0J200000D01*
G01*
X174675000Y-111475000D01*
G75*
G02*
X174875000Y-111275000I200000J0D01*
G01*
G37*
G36*
G01*
X174875000Y-112925000D02*
X175425000Y-112925000D01*
G75*
G02*
X175625000Y-113125000I0J-200000D01*
G01*
X175625000Y-113525000D01*
G75*
G02*
X175425000Y-113725000I-200000J0D01*
G01*
X174875000Y-113725000D01*
G75*
G02*
X174675000Y-113525000I0J200000D01*
G01*
X174675000Y-113125000D01*
G75*
G02*
X174875000Y-112925000I200000J0D01*
G01*
G37*
G04 #@! TD*
D22*
G04 #@! TO.C,J3*
X189925000Y-118500000D03*
X189925000Y-117850000D03*
X189925000Y-117200000D03*
X189925000Y-115900000D03*
X189925000Y-116550000D03*
D23*
X192600000Y-117200000D03*
D24*
X192600000Y-113700000D03*
X192600000Y-120700000D03*
G04 #@! TD*
G04 #@! TO.C,C14*
G36*
G01*
X184125000Y-116650000D02*
X184125000Y-117150000D01*
G75*
G02*
X183900000Y-117375000I-225000J0D01*
G01*
X183450000Y-117375000D01*
G75*
G02*
X183225000Y-117150000I0J225000D01*
G01*
X183225000Y-116650000D01*
G75*
G02*
X183450000Y-116425000I225000J0D01*
G01*
X183900000Y-116425000D01*
G75*
G02*
X184125000Y-116650000I0J-225000D01*
G01*
G37*
G36*
G01*
X182575000Y-116650000D02*
X182575000Y-117150000D01*
G75*
G02*
X182350000Y-117375000I-225000J0D01*
G01*
X181900000Y-117375000D01*
G75*
G02*
X181675000Y-117150000I0J225000D01*
G01*
X181675000Y-116650000D01*
G75*
G02*
X181900000Y-116425000I225000J0D01*
G01*
X182350000Y-116425000D01*
G75*
G02*
X182575000Y-116650000I0J-225000D01*
G01*
G37*
G04 #@! TD*
G04 #@! TO.C,C16*
G36*
G01*
X180575000Y-114100000D02*
X180575000Y-113600000D01*
G75*
G02*
X180800000Y-113375000I225000J0D01*
G01*
X181250000Y-113375000D01*
G75*
G02*
X181475000Y-113600000I0J-225000D01*
G01*
X181475000Y-114100000D01*
G75*
G02*
X181250000Y-114325000I-225000J0D01*
G01*
X180800000Y-114325000D01*
G75*
G02*
X180575000Y-114100000I0J225000D01*
G01*
G37*
G36*
G01*
X179025000Y-114100000D02*
X179025000Y-113600000D01*
G75*
G02*
X179250000Y-113375000I225000J0D01*
G01*
X179700000Y-113375000D01*
G75*
G02*
X179925000Y-113600000I0J-225000D01*
G01*
X179925000Y-114100000D01*
G75*
G02*
X179700000Y-114325000I-225000J0D01*
G01*
X179250000Y-114325000D01*
G75*
G02*
X179025000Y-114100000I0J225000D01*
G01*
G37*
G04 #@! TD*
G04 #@! TO.C,C15*
G36*
G01*
X177400000Y-113725000D02*
X176900000Y-113725000D01*
G75*
G02*
X176675000Y-113500000I0J225000D01*
G01*
X176675000Y-113050000D01*
G75*
G02*
X176900000Y-112825000I225000J0D01*
G01*
X177400000Y-112825000D01*
G75*
G02*
X177625000Y-113050000I0J-225000D01*
G01*
X177625000Y-113500000D01*
G75*
G02*
X177400000Y-113725000I-225000J0D01*
G01*
G37*
G36*
G01*
X177400000Y-112175000D02*
X176900000Y-112175000D01*
G75*
G02*
X176675000Y-111950000I0J225000D01*
G01*
X176675000Y-111500000D01*
G75*
G02*
X176900000Y-111275000I225000J0D01*
G01*
X177400000Y-111275000D01*
G75*
G02*
X177625000Y-111500000I0J-225000D01*
G01*
X177625000Y-111950000D01*
G75*
G02*
X177400000Y-112175000I-225000J0D01*
G01*
G37*
G04 #@! TD*
G04 #@! TO.C,F1*
G36*
G01*
X112075000Y-89075000D02*
X112075000Y-87825000D01*
G75*
G02*
X112325000Y-87575000I250000J0D01*
G01*
X113075000Y-87575000D01*
G75*
G02*
X113325000Y-87825000I0J-250000D01*
G01*
X113325000Y-89075000D01*
G75*
G02*
X113075000Y-89325000I-250000J0D01*
G01*
X112325000Y-89325000D01*
G75*
G02*
X112075000Y-89075000I0J250000D01*
G01*
G37*
G36*
G01*
X109275000Y-89075000D02*
X109275000Y-87825000D01*
G75*
G02*
X109525000Y-87575000I250000J0D01*
G01*
X110275000Y-87575000D01*
G75*
G02*
X110525000Y-87825000I0J-250000D01*
G01*
X110525000Y-89075000D01*
G75*
G02*
X110275000Y-89325000I-250000J0D01*
G01*
X109525000Y-89325000D01*
G75*
G02*
X109275000Y-89075000I0J250000D01*
G01*
G37*
G04 #@! TD*
D25*
G04 #@! TO.C,U3*
X168850000Y-117800000D03*
X164250000Y-117800000D03*
X166550000Y-117800000D03*
D26*
X166550000Y-124100000D03*
G04 #@! TD*
G04 #@! TO.C,C18*
G36*
G01*
X108825000Y-97000000D02*
X108825000Y-97500000D01*
G75*
G02*
X108600000Y-97725000I-225000J0D01*
G01*
X108150000Y-97725000D01*
G75*
G02*
X107925000Y-97500000I0J225000D01*
G01*
X107925000Y-97000000D01*
G75*
G02*
X108150000Y-96775000I225000J0D01*
G01*
X108600000Y-96775000D01*
G75*
G02*
X108825000Y-97000000I0J-225000D01*
G01*
G37*
G36*
G01*
X107275000Y-97000000D02*
X107275000Y-97500000D01*
G75*
G02*
X107050000Y-97725000I-225000J0D01*
G01*
X106600000Y-97725000D01*
G75*
G02*
X106375000Y-97500000I0J225000D01*
G01*
X106375000Y-97000000D01*
G75*
G02*
X106600000Y-96775000I225000J0D01*
G01*
X107050000Y-96775000D01*
G75*
G02*
X107275000Y-97000000I0J-225000D01*
G01*
G37*
G04 #@! TD*
G04 #@! TO.C,C19*
G36*
G01*
X107275000Y-100000000D02*
X107275000Y-100500000D01*
G75*
G02*
X107050000Y-100725000I-225000J0D01*
G01*
X106600000Y-100725000D01*
G75*
G02*
X106375000Y-100500000I0J225000D01*
G01*
X106375000Y-100000000D01*
G75*
G02*
X106600000Y-99775000I225000J0D01*
G01*
X107050000Y-99775000D01*
G75*
G02*
X107275000Y-100000000I0J-225000D01*
G01*
G37*
G36*
G01*
X108825000Y-100000000D02*
X108825000Y-100500000D01*
G75*
G02*
X108600000Y-100725000I-225000J0D01*
G01*
X108150000Y-100725000D01*
G75*
G02*
X107925000Y-100500000I0J225000D01*
G01*
X107925000Y-100000000D01*
G75*
G02*
X108150000Y-99775000I225000J0D01*
G01*
X108600000Y-99775000D01*
G75*
G02*
X108825000Y-100000000I0J-225000D01*
G01*
G37*
G04 #@! TD*
G04 #@! TO.C,C20*
G36*
G01*
X108825000Y-94500000D02*
X108825000Y-95000000D01*
G75*
G02*
X108600000Y-95225000I-225000J0D01*
G01*
X108150000Y-95225000D01*
G75*
G02*
X107925000Y-95000000I0J225000D01*
G01*
X107925000Y-94500000D01*
G75*
G02*
X108150000Y-94275000I225000J0D01*
G01*
X108600000Y-94275000D01*
G75*
G02*
X108825000Y-94500000I0J-225000D01*
G01*
G37*
G36*
G01*
X107275000Y-94500000D02*
X107275000Y-95000000D01*
G75*
G02*
X107050000Y-95225000I-225000J0D01*
G01*
X106600000Y-95225000D01*
G75*
G02*
X106375000Y-95000000I0J225000D01*
G01*
X106375000Y-94500000D01*
G75*
G02*
X106600000Y-94275000I225000J0D01*
G01*
X107050000Y-94275000D01*
G75*
G02*
X107275000Y-94500000I0J-225000D01*
G01*
G37*
G04 #@! TD*
G04 #@! TO.C,C13*
G36*
G01*
X168000000Y-97125000D02*
X167500000Y-97125000D01*
G75*
G02*
X167275000Y-96900000I0J225000D01*
G01*
X167275000Y-96450000D01*
G75*
G02*
X167500000Y-96225000I225000J0D01*
G01*
X168000000Y-96225000D01*
G75*
G02*
X168225000Y-96450000I0J-225000D01*
G01*
X168225000Y-96900000D01*
G75*
G02*
X168000000Y-97125000I-225000J0D01*
G01*
G37*
G36*
G01*
X168000000Y-95575000D02*
X167500000Y-95575000D01*
G75*
G02*
X167275000Y-95350000I0J225000D01*
G01*
X167275000Y-94900000D01*
G75*
G02*
X167500000Y-94675000I225000J0D01*
G01*
X168000000Y-94675000D01*
G75*
G02*
X168225000Y-94900000I0J-225000D01*
G01*
X168225000Y-95350000D01*
G75*
G02*
X168000000Y-95575000I-225000J0D01*
G01*
G37*
G04 #@! TD*
G04 #@! TO.C,R9*
G36*
G01*
X115025000Y-97025000D02*
X115025000Y-96475000D01*
G75*
G02*
X115225000Y-96275000I200000J0D01*
G01*
X115625000Y-96275000D01*
G75*
G02*
X115825000Y-96475000I0J-200000D01*
G01*
X115825000Y-97025000D01*
G75*
G02*
X115625000Y-97225000I-200000J0D01*
G01*
X115225000Y-97225000D01*
G75*
G02*
X115025000Y-97025000I0J200000D01*
G01*
G37*
G36*
G01*
X113375000Y-97025000D02*
X113375000Y-96475000D01*
G75*
G02*
X113575000Y-96275000I200000J0D01*
G01*
X113975000Y-96275000D01*
G75*
G02*
X114175000Y-96475000I0J-200000D01*
G01*
X114175000Y-97025000D01*
G75*
G02*
X113975000Y-97225000I-200000J0D01*
G01*
X113575000Y-97225000D01*
G75*
G02*
X113375000Y-97025000I0J200000D01*
G01*
G37*
G04 #@! TD*
G04 #@! TO.C,R10*
G36*
G01*
X115825000Y-97975000D02*
X115825000Y-98525000D01*
G75*
G02*
X115625000Y-98725000I-200000J0D01*
G01*
X115225000Y-98725000D01*
G75*
G02*
X115025000Y-98525000I0J200000D01*
G01*
X115025000Y-97975000D01*
G75*
G02*
X115225000Y-97775000I200000J0D01*
G01*
X115625000Y-97775000D01*
G75*
G02*
X115825000Y-97975000I0J-200000D01*
G01*
G37*
G36*
G01*
X114175000Y-97975000D02*
X114175000Y-98525000D01*
G75*
G02*
X113975000Y-98725000I-200000J0D01*
G01*
X113575000Y-98725000D01*
G75*
G02*
X113375000Y-98525000I0J200000D01*
G01*
X113375000Y-97975000D01*
G75*
G02*
X113575000Y-97775000I200000J0D01*
G01*
X113975000Y-97775000D01*
G75*
G02*
X114175000Y-97975000I0J-200000D01*
G01*
G37*
G04 #@! TD*
G04 #@! TO.C,R11*
G36*
G01*
X115025000Y-100025000D02*
X115025000Y-99475000D01*
G75*
G02*
X115225000Y-99275000I200000J0D01*
G01*
X115625000Y-99275000D01*
G75*
G02*
X115825000Y-99475000I0J-200000D01*
G01*
X115825000Y-100025000D01*
G75*
G02*
X115625000Y-100225000I-200000J0D01*
G01*
X115225000Y-100225000D01*
G75*
G02*
X115025000Y-100025000I0J200000D01*
G01*
G37*
G36*
G01*
X113375000Y-100025000D02*
X113375000Y-99475000D01*
G75*
G02*
X113575000Y-99275000I200000J0D01*
G01*
X113975000Y-99275000D01*
G75*
G02*
X114175000Y-99475000I0J-200000D01*
G01*
X114175000Y-100025000D01*
G75*
G02*
X113975000Y-100225000I-200000J0D01*
G01*
X113575000Y-100225000D01*
G75*
G02*
X113375000Y-100025000I0J200000D01*
G01*
G37*
G04 #@! TD*
G04 #@! TO.C,R12*
G36*
G01*
X115825000Y-100975000D02*
X115825000Y-101525000D01*
G75*
G02*
X115625000Y-101725000I-200000J0D01*
G01*
X115225000Y-101725000D01*
G75*
G02*
X115025000Y-101525000I0J200000D01*
G01*
X115025000Y-100975000D01*
G75*
G02*
X115225000Y-100775000I200000J0D01*
G01*
X115625000Y-100775000D01*
G75*
G02*
X115825000Y-100975000I0J-200000D01*
G01*
G37*
G36*
G01*
X114175000Y-100975000D02*
X114175000Y-101525000D01*
G75*
G02*
X113975000Y-101725000I-200000J0D01*
G01*
X113575000Y-101725000D01*
G75*
G02*
X113375000Y-101525000I0J200000D01*
G01*
X113375000Y-100975000D01*
G75*
G02*
X113575000Y-100775000I200000J0D01*
G01*
X113975000Y-100775000D01*
G75*
G02*
X114175000Y-100975000I0J-200000D01*
G01*
G37*
G04 #@! TD*
G04 #@! TO.C,R13*
G36*
G01*
X115025000Y-94025000D02*
X115025000Y-93475000D01*
G75*
G02*
X115225000Y-93275000I200000J0D01*
G01*
X115625000Y-93275000D01*
G75*
G02*
X115825000Y-93475000I0J-200000D01*
G01*
X115825000Y-94025000D01*
G75*
G02*
X115625000Y-94225000I-200000J0D01*
G01*
X115225000Y-94225000D01*
G75*
G02*
X115025000Y-94025000I0J200000D01*
G01*
G37*
G36*
G01*
X113375000Y-94025000D02*
X113375000Y-93475000D01*
G75*
G02*
X113575000Y-93275000I200000J0D01*
G01*
X113975000Y-93275000D01*
G75*
G02*
X114175000Y-93475000I0J-200000D01*
G01*
X114175000Y-94025000D01*
G75*
G02*
X113975000Y-94225000I-200000J0D01*
G01*
X113575000Y-94225000D01*
G75*
G02*
X113375000Y-94025000I0J200000D01*
G01*
G37*
G04 #@! TD*
G04 #@! TO.C,R14*
G36*
G01*
X115825000Y-94975000D02*
X115825000Y-95525000D01*
G75*
G02*
X115625000Y-95725000I-200000J0D01*
G01*
X115225000Y-95725000D01*
G75*
G02*
X115025000Y-95525000I0J200000D01*
G01*
X115025000Y-94975000D01*
G75*
G02*
X115225000Y-94775000I200000J0D01*
G01*
X115625000Y-94775000D01*
G75*
G02*
X115825000Y-94975000I0J-200000D01*
G01*
G37*
G36*
G01*
X114175000Y-94975000D02*
X114175000Y-95525000D01*
G75*
G02*
X113975000Y-95725000I-200000J0D01*
G01*
X113575000Y-95725000D01*
G75*
G02*
X113375000Y-95525000I0J200000D01*
G01*
X113375000Y-94975000D01*
G75*
G02*
X113575000Y-94775000I200000J0D01*
G01*
X113975000Y-94775000D01*
G75*
G02*
X114175000Y-94975000I0J-200000D01*
G01*
G37*
G04 #@! TD*
G04 #@! TO.C,R4*
G36*
G01*
X176575000Y-125625000D02*
X176575000Y-125075000D01*
G75*
G02*
X176775000Y-124875000I200000J0D01*
G01*
X177175000Y-124875000D01*
G75*
G02*
X177375000Y-125075000I0J-200000D01*
G01*
X177375000Y-125625000D01*
G75*
G02*
X177175000Y-125825000I-200000J0D01*
G01*
X176775000Y-125825000D01*
G75*
G02*
X176575000Y-125625000I0J200000D01*
G01*
G37*
G36*
G01*
X174925000Y-125625000D02*
X174925000Y-125075000D01*
G75*
G02*
X175125000Y-124875000I200000J0D01*
G01*
X175525000Y-124875000D01*
G75*
G02*
X175725000Y-125075000I0J-200000D01*
G01*
X175725000Y-125625000D01*
G75*
G02*
X175525000Y-125825000I-200000J0D01*
G01*
X175125000Y-125825000D01*
G75*
G02*
X174925000Y-125625000I0J200000D01*
G01*
G37*
G04 #@! TD*
G04 #@! TO.C,R5*
G36*
G01*
X177375000Y-123275000D02*
X177375000Y-123825000D01*
G75*
G02*
X177175000Y-124025000I-200000J0D01*
G01*
X176775000Y-124025000D01*
G75*
G02*
X176575000Y-123825000I0J200000D01*
G01*
X176575000Y-123275000D01*
G75*
G02*
X176775000Y-123075000I200000J0D01*
G01*
X177175000Y-123075000D01*
G75*
G02*
X177375000Y-123275000I0J-200000D01*
G01*
G37*
G36*
G01*
X175725000Y-123275000D02*
X175725000Y-123825000D01*
G75*
G02*
X175525000Y-124025000I-200000J0D01*
G01*
X175125000Y-124025000D01*
G75*
G02*
X174925000Y-123825000I0J200000D01*
G01*
X174925000Y-123275000D01*
G75*
G02*
X175125000Y-123075000I200000J0D01*
G01*
X175525000Y-123075000D01*
G75*
G02*
X175725000Y-123275000I0J-200000D01*
G01*
G37*
G04 #@! TD*
G04 #@! TO.C,R6*
G36*
G01*
X177125000Y-94125000D02*
X177675000Y-94125000D01*
G75*
G02*
X177875000Y-94325000I0J-200000D01*
G01*
X177875000Y-94725000D01*
G75*
G02*
X177675000Y-94925000I-200000J0D01*
G01*
X177125000Y-94925000D01*
G75*
G02*
X176925000Y-94725000I0J200000D01*
G01*
X176925000Y-94325000D01*
G75*
G02*
X177125000Y-94125000I200000J0D01*
G01*
G37*
G36*
G01*
X177125000Y-95775000D02*
X177675000Y-95775000D01*
G75*
G02*
X177875000Y-95975000I0J-200000D01*
G01*
X177875000Y-96375000D01*
G75*
G02*
X177675000Y-96575000I-200000J0D01*
G01*
X177125000Y-96575000D01*
G75*
G02*
X176925000Y-96375000I0J200000D01*
G01*
X176925000Y-95975000D01*
G75*
G02*
X177125000Y-95775000I200000J0D01*
G01*
G37*
G04 #@! TD*
D27*
G04 #@! TO.C,Q1*
X173700000Y-123550000D03*
X171800000Y-123550000D03*
X172750000Y-125550000D03*
G04 #@! TD*
G04 #@! TO.C,Q2*
X179550000Y-125550000D03*
X178600000Y-123550000D03*
X180500000Y-123550000D03*
G04 #@! TD*
G04 #@! TO.C,C10*
G36*
G01*
X169150000Y-116200000D02*
X168650000Y-116200000D01*
G75*
G02*
X168425000Y-115975000I0J225000D01*
G01*
X168425000Y-115525000D01*
G75*
G02*
X168650000Y-115300000I225000J0D01*
G01*
X169150000Y-115300000D01*
G75*
G02*
X169375000Y-115525000I0J-225000D01*
G01*
X169375000Y-115975000D01*
G75*
G02*
X169150000Y-116200000I-225000J0D01*
G01*
G37*
G36*
G01*
X169150000Y-114650000D02*
X168650000Y-114650000D01*
G75*
G02*
X168425000Y-114425000I0J225000D01*
G01*
X168425000Y-113975000D01*
G75*
G02*
X168650000Y-113750000I225000J0D01*
G01*
X169150000Y-113750000D01*
G75*
G02*
X169375000Y-113975000I0J-225000D01*
G01*
X169375000Y-114425000D01*
G75*
G02*
X169150000Y-114650000I-225000J0D01*
G01*
G37*
G04 #@! TD*
G04 #@! TO.C,C2*
G36*
G01*
X160280000Y-129850000D02*
X160620000Y-129850000D01*
G75*
G02*
X160760000Y-129990000I0J-140000D01*
G01*
X160760000Y-130270000D01*
G75*
G02*
X160620000Y-130410000I-140000J0D01*
G01*
X160280000Y-130410000D01*
G75*
G02*
X160140000Y-130270000I0J140000D01*
G01*
X160140000Y-129990000D01*
G75*
G02*
X160280000Y-129850000I140000J0D01*
G01*
G37*
G36*
G01*
X160280000Y-128890000D02*
X160620000Y-128890000D01*
G75*
G02*
X160760000Y-129030000I0J-140000D01*
G01*
X160760000Y-129310000D01*
G75*
G02*
X160620000Y-129450000I-140000J0D01*
G01*
X160280000Y-129450000D01*
G75*
G02*
X160140000Y-129310000I0J140000D01*
G01*
X160140000Y-129030000D01*
G75*
G02*
X160280000Y-128890000I140000J0D01*
G01*
G37*
G04 #@! TD*
G04 #@! TO.C,D7*
G36*
G01*
X168743750Y-109325000D02*
X169256250Y-109325000D01*
G75*
G02*
X169475000Y-109543750I0J-218750D01*
G01*
X169475000Y-109981250D01*
G75*
G02*
X169256250Y-110200000I-218750J0D01*
G01*
X168743750Y-110200000D01*
G75*
G02*
X168525000Y-109981250I0J218750D01*
G01*
X168525000Y-109543750D01*
G75*
G02*
X168743750Y-109325000I218750J0D01*
G01*
G37*
G36*
G01*
X168743750Y-110900000D02*
X169256250Y-110900000D01*
G75*
G02*
X169475000Y-111118750I0J-218750D01*
G01*
X169475000Y-111556250D01*
G75*
G02*
X169256250Y-111775000I-218750J0D01*
G01*
X168743750Y-111775000D01*
G75*
G02*
X168525000Y-111556250I0J218750D01*
G01*
X168525000Y-111118750D01*
G75*
G02*
X168743750Y-110900000I218750J0D01*
G01*
G37*
G04 #@! TD*
G04 #@! TO.C,D8*
G36*
G01*
X163643750Y-110900000D02*
X164156250Y-110900000D01*
G75*
G02*
X164375000Y-111118750I0J-218750D01*
G01*
X164375000Y-111556250D01*
G75*
G02*
X164156250Y-111775000I-218750J0D01*
G01*
X163643750Y-111775000D01*
G75*
G02*
X163425000Y-111556250I0J218750D01*
G01*
X163425000Y-111118750D01*
G75*
G02*
X163643750Y-110900000I218750J0D01*
G01*
G37*
G36*
G01*
X163643750Y-109325000D02*
X164156250Y-109325000D01*
G75*
G02*
X164375000Y-109543750I0J-218750D01*
G01*
X164375000Y-109981250D01*
G75*
G02*
X164156250Y-110200000I-218750J0D01*
G01*
X163643750Y-110200000D01*
G75*
G02*
X163425000Y-109981250I0J218750D01*
G01*
X163425000Y-109543750D01*
G75*
G02*
X163643750Y-109325000I218750J0D01*
G01*
G37*
G04 #@! TD*
G04 #@! TO.C,R15*
G36*
G01*
X169275000Y-107125000D02*
X168725000Y-107125000D01*
G75*
G02*
X168525000Y-106925000I0J200000D01*
G01*
X168525000Y-106525000D01*
G75*
G02*
X168725000Y-106325000I200000J0D01*
G01*
X169275000Y-106325000D01*
G75*
G02*
X169475000Y-106525000I0J-200000D01*
G01*
X169475000Y-106925000D01*
G75*
G02*
X169275000Y-107125000I-200000J0D01*
G01*
G37*
G36*
G01*
X169275000Y-108775000D02*
X168725000Y-108775000D01*
G75*
G02*
X168525000Y-108575000I0J200000D01*
G01*
X168525000Y-108175000D01*
G75*
G02*
X168725000Y-107975000I200000J0D01*
G01*
X169275000Y-107975000D01*
G75*
G02*
X169475000Y-108175000I0J-200000D01*
G01*
X169475000Y-108575000D01*
G75*
G02*
X169275000Y-108775000I-200000J0D01*
G01*
G37*
G04 #@! TD*
G04 #@! TO.C,R16*
G36*
G01*
X164175000Y-108775000D02*
X163625000Y-108775000D01*
G75*
G02*
X163425000Y-108575000I0J200000D01*
G01*
X163425000Y-108175000D01*
G75*
G02*
X163625000Y-107975000I200000J0D01*
G01*
X164175000Y-107975000D01*
G75*
G02*
X164375000Y-108175000I0J-200000D01*
G01*
X164375000Y-108575000D01*
G75*
G02*
X164175000Y-108775000I-200000J0D01*
G01*
G37*
G36*
G01*
X164175000Y-107125000D02*
X163625000Y-107125000D01*
G75*
G02*
X163425000Y-106925000I0J200000D01*
G01*
X163425000Y-106525000D01*
G75*
G02*
X163625000Y-106325000I200000J0D01*
G01*
X164175000Y-106325000D01*
G75*
G02*
X164375000Y-106525000I0J-200000D01*
G01*
X164375000Y-106925000D01*
G75*
G02*
X164175000Y-107125000I-200000J0D01*
G01*
G37*
G04 #@! TD*
G04 #@! TO.C,C3*
G36*
G01*
X127625000Y-83600000D02*
X127625000Y-83100000D01*
G75*
G02*
X127850000Y-82875000I225000J0D01*
G01*
X128300000Y-82875000D01*
G75*
G02*
X128525000Y-83100000I0J-225000D01*
G01*
X128525000Y-83600000D01*
G75*
G02*
X128300000Y-83825000I-225000J0D01*
G01*
X127850000Y-83825000D01*
G75*
G02*
X127625000Y-83600000I0J225000D01*
G01*
G37*
G36*
G01*
X126075000Y-83600000D02*
X126075000Y-83100000D01*
G75*
G02*
X126300000Y-82875000I225000J0D01*
G01*
X126750000Y-82875000D01*
G75*
G02*
X126975000Y-83100000I0J-225000D01*
G01*
X126975000Y-83600000D01*
G75*
G02*
X126750000Y-83825000I-225000J0D01*
G01*
X126300000Y-83825000D01*
G75*
G02*
X126075000Y-83600000I0J225000D01*
G01*
G37*
G04 #@! TD*
G04 #@! TO.C,C4*
G36*
G01*
X126075000Y-85200000D02*
X126075000Y-84700000D01*
G75*
G02*
X126300000Y-84475000I225000J0D01*
G01*
X126750000Y-84475000D01*
G75*
G02*
X126975000Y-84700000I0J-225000D01*
G01*
X126975000Y-85200000D01*
G75*
G02*
X126750000Y-85425000I-225000J0D01*
G01*
X126300000Y-85425000D01*
G75*
G02*
X126075000Y-85200000I0J225000D01*
G01*
G37*
G36*
G01*
X127625000Y-85200000D02*
X127625000Y-84700000D01*
G75*
G02*
X127850000Y-84475000I225000J0D01*
G01*
X128300000Y-84475000D01*
G75*
G02*
X128525000Y-84700000I0J-225000D01*
G01*
X128525000Y-85200000D01*
G75*
G02*
X128300000Y-85425000I-225000J0D01*
G01*
X127850000Y-85425000D01*
G75*
G02*
X127625000Y-85200000I0J225000D01*
G01*
G37*
G04 #@! TD*
G04 #@! TO.C,C5*
G36*
G01*
X124675000Y-96200000D02*
X124675000Y-95700000D01*
G75*
G02*
X124900000Y-95475000I225000J0D01*
G01*
X125350000Y-95475000D01*
G75*
G02*
X125575000Y-95700000I0J-225000D01*
G01*
X125575000Y-96200000D01*
G75*
G02*
X125350000Y-96425000I-225000J0D01*
G01*
X124900000Y-96425000D01*
G75*
G02*
X124675000Y-96200000I0J225000D01*
G01*
G37*
G36*
G01*
X126225000Y-96200000D02*
X126225000Y-95700000D01*
G75*
G02*
X126450000Y-95475000I225000J0D01*
G01*
X126900000Y-95475000D01*
G75*
G02*
X127125000Y-95700000I0J-225000D01*
G01*
X127125000Y-96200000D01*
G75*
G02*
X126900000Y-96425000I-225000J0D01*
G01*
X126450000Y-96425000D01*
G75*
G02*
X126225000Y-96200000I0J225000D01*
G01*
G37*
G04 #@! TD*
G04 #@! TO.C,C6*
G36*
G01*
X128825000Y-86800000D02*
X128825000Y-86300000D01*
G75*
G02*
X129050000Y-86075000I225000J0D01*
G01*
X129500000Y-86075000D01*
G75*
G02*
X129725000Y-86300000I0J-225000D01*
G01*
X129725000Y-86800000D01*
G75*
G02*
X129500000Y-87025000I-225000J0D01*
G01*
X129050000Y-87025000D01*
G75*
G02*
X128825000Y-86800000I0J225000D01*
G01*
G37*
G36*
G01*
X127275000Y-86800000D02*
X127275000Y-86300000D01*
G75*
G02*
X127500000Y-86075000I225000J0D01*
G01*
X127950000Y-86075000D01*
G75*
G02*
X128175000Y-86300000I0J-225000D01*
G01*
X128175000Y-86800000D01*
G75*
G02*
X127950000Y-87025000I-225000J0D01*
G01*
X127500000Y-87025000D01*
G75*
G02*
X127275000Y-86800000I0J225000D01*
G01*
G37*
G04 #@! TD*
G04 #@! TO.C,C7*
G36*
G01*
X132849999Y-115500000D02*
X135050001Y-115500000D01*
G75*
G02*
X135300000Y-115749999I0J-249999D01*
G01*
X135300000Y-116400001D01*
G75*
G02*
X135050001Y-116650000I-249999J0D01*
G01*
X132849999Y-116650000D01*
G75*
G02*
X132600000Y-116400001I0J249999D01*
G01*
X132600000Y-115749999D01*
G75*
G02*
X132849999Y-115500000I249999J0D01*
G01*
G37*
G36*
G01*
X132849999Y-112550000D02*
X135050001Y-112550000D01*
G75*
G02*
X135300000Y-112799999I0J-249999D01*
G01*
X135300000Y-113450001D01*
G75*
G02*
X135050001Y-113700000I-249999J0D01*
G01*
X132849999Y-113700000D01*
G75*
G02*
X132600000Y-113450001I0J249999D01*
G01*
X132600000Y-112799999D01*
G75*
G02*
X132849999Y-112550000I249999J0D01*
G01*
G37*
G04 #@! TD*
G04 #@! TO.C,C8*
G36*
G01*
X129449999Y-112550000D02*
X131650001Y-112550000D01*
G75*
G02*
X131900000Y-112799999I0J-249999D01*
G01*
X131900000Y-113450001D01*
G75*
G02*
X131650001Y-113700000I-249999J0D01*
G01*
X129449999Y-113700000D01*
G75*
G02*
X129200000Y-113450001I0J249999D01*
G01*
X129200000Y-112799999D01*
G75*
G02*
X129449999Y-112550000I249999J0D01*
G01*
G37*
G36*
G01*
X129449999Y-115500000D02*
X131650001Y-115500000D01*
G75*
G02*
X131900000Y-115749999I0J-249999D01*
G01*
X131900000Y-116400001D01*
G75*
G02*
X131650001Y-116650000I-249999J0D01*
G01*
X129449999Y-116650000D01*
G75*
G02*
X129200000Y-116400001I0J249999D01*
G01*
X129200000Y-115749999D01*
G75*
G02*
X129449999Y-115500000I249999J0D01*
G01*
G37*
G04 #@! TD*
D28*
G04 #@! TO.C,D2*
X109800000Y-85610000D03*
X109800000Y-81290000D03*
G04 #@! TD*
D29*
G04 #@! TO.C,D4*
X180550000Y-96980000D03*
X180550000Y-101920000D03*
G04 #@! TD*
G04 #@! TO.C,D5*
X180550000Y-88980000D03*
X180550000Y-93920000D03*
G04 #@! TD*
D30*
G04 #@! TO.C,L1*
X132050000Y-99950000D03*
X132050000Y-109950000D03*
G04 #@! TD*
G04 #@! TO.C,R1*
G36*
G01*
X122025000Y-89950000D02*
X122575000Y-89950000D01*
G75*
G02*
X122775000Y-90150000I0J-200000D01*
G01*
X122775000Y-90550000D01*
G75*
G02*
X122575000Y-90750000I-200000J0D01*
G01*
X122025000Y-90750000D01*
G75*
G02*
X121825000Y-90550000I0J200000D01*
G01*
X121825000Y-90150000D01*
G75*
G02*
X122025000Y-89950000I200000J0D01*
G01*
G37*
G36*
G01*
X122025000Y-88300000D02*
X122575000Y-88300000D01*
G75*
G02*
X122775000Y-88500000I0J-200000D01*
G01*
X122775000Y-88900000D01*
G75*
G02*
X122575000Y-89100000I-200000J0D01*
G01*
X122025000Y-89100000D01*
G75*
G02*
X121825000Y-88900000I0J200000D01*
G01*
X121825000Y-88500000D01*
G75*
G02*
X122025000Y-88300000I200000J0D01*
G01*
G37*
G04 #@! TD*
G04 #@! TO.C,R2*
G36*
G01*
X124375000Y-101175000D02*
X123825000Y-101175000D01*
G75*
G02*
X123625000Y-100975000I0J200000D01*
G01*
X123625000Y-100575000D01*
G75*
G02*
X123825000Y-100375000I200000J0D01*
G01*
X124375000Y-100375000D01*
G75*
G02*
X124575000Y-100575000I0J-200000D01*
G01*
X124575000Y-100975000D01*
G75*
G02*
X124375000Y-101175000I-200000J0D01*
G01*
G37*
G36*
G01*
X124375000Y-99525000D02*
X123825000Y-99525000D01*
G75*
G02*
X123625000Y-99325000I0J200000D01*
G01*
X123625000Y-98925000D01*
G75*
G02*
X123825000Y-98725000I200000J0D01*
G01*
X124375000Y-98725000D01*
G75*
G02*
X124575000Y-98925000I0J-200000D01*
G01*
X124575000Y-99325000D01*
G75*
G02*
X124375000Y-99525000I-200000J0D01*
G01*
G37*
G04 #@! TD*
G04 #@! TO.C,R3*
G36*
G01*
X123675000Y-97825000D02*
X123675000Y-97275000D01*
G75*
G02*
X123875000Y-97075000I200000J0D01*
G01*
X124275000Y-97075000D01*
G75*
G02*
X124475000Y-97275000I0J-200000D01*
G01*
X124475000Y-97825000D01*
G75*
G02*
X124275000Y-98025000I-200000J0D01*
G01*
X123875000Y-98025000D01*
G75*
G02*
X123675000Y-97825000I0J200000D01*
G01*
G37*
G36*
G01*
X125325000Y-97825000D02*
X125325000Y-97275000D01*
G75*
G02*
X125525000Y-97075000I200000J0D01*
G01*
X125925000Y-97075000D01*
G75*
G02*
X126125000Y-97275000I0J-200000D01*
G01*
X126125000Y-97825000D01*
G75*
G02*
X125925000Y-98025000I-200000J0D01*
G01*
X125525000Y-98025000D01*
G75*
G02*
X125325000Y-97825000I0J200000D01*
G01*
G37*
G04 #@! TD*
D31*
G04 #@! TO.C,U2*
X127805000Y-88650000D03*
X126535000Y-88650000D03*
X125265000Y-88650000D03*
X123995000Y-88650000D03*
X123995000Y-94050000D03*
X125265000Y-94050000D03*
X126535000Y-94050000D03*
X127805000Y-94050000D03*
D32*
X125900000Y-91350000D03*
G04 #@! TD*
M02*
